<?xml version="1.0" encoding="UTF-8"?>
<svg xmlns="http://www.w3.org/2000/svg" xmlns:xlink="http://www.w3.org/1999/xlink" width="234pt" height="150pt" viewBox="0 0 234 150" version="1.1">
<g id="surface48298">
<path style="fill:none;stroke-width:0.015;stroke-linecap:round;stroke-linejoin:miter;stroke:rgb(0%,0%,0%);stroke-opacity:1;stroke-miterlimit:10;" d="M 9.783994 -2.963999 L 9.783994 -3.005991 " transform="matrix(72,0,0,72,-555.908516,341.232116)"/>
<path style="fill:none;stroke-width:0.015;stroke-linecap:round;stroke-linejoin:miter;stroke:rgb(0%,0%,0%);stroke-opacity:1;stroke-miterlimit:10;" d="M 9.804014 -2.986025 L 9.762998 -2.986025 " transform="matrix(72,0,0,72,-555.908516,341.232116)"/>
<path style=" stroke:none;fill-rule:evenodd;fill:rgb(0%,0%,0%);fill-opacity:1;" d="M 92.480469 35.230469 C 92.480469 37.871094 88.519531 37.871094 88.519531 35.230469 C 88.519531 32.59375 92.480469 32.59375 92.480469 35.230469 "/>
<path style=" stroke:none;fill-rule:evenodd;fill:rgb(0%,0%,0%);fill-opacity:1;" d="M 92.480469 13.632812 C 92.480469 16.273438 88.519531 16.273438 88.519531 13.632812 C 88.519531 10.992188 92.480469 10.992188 92.480469 13.632812 "/>
<path style=" stroke:none;fill-rule:evenodd;fill:rgb(0%,0%,0%);fill-opacity:1;" d="M 52.597656 74.832031 C 52.597656 77.472656 48.640625 77.472656 48.640625 74.832031 C 48.640625 72.191406 52.597656 72.191406 52.597656 74.832031 "/>
<path style=" stroke:none;fill-rule:evenodd;fill:rgb(0%,0%,0%);fill-opacity:1;" d="M 52.597656 53.230469 C 52.597656 55.871094 48.640625 55.871094 48.640625 53.230469 C 48.640625 50.59375 52.597656 50.59375 52.597656 53.230469 "/>
<path style=" stroke:none;fill-rule:evenodd;fill:rgb(0%,0%,0%);fill-opacity:1;" d="M 73.761719 89.808594 C 73.761719 92.449219 69.800781 92.449219 69.800781 89.808594 C 69.800781 87.167969 73.761719 87.167969 73.761719 89.808594 "/>
<path style=" stroke:none;fill-rule:evenodd;fill:rgb(0%,0%,0%);fill-opacity:1;" d="M 73.761719 111.40625 C 73.761719 114.046875 69.800781 114.046875 69.800781 111.40625 C 69.800781 108.769531 73.761719 108.769531 73.761719 111.40625 "/>
<path style=" stroke:none;fill-rule:evenodd;fill:rgb(0%,0%,0%);fill-opacity:1;" d="M 44.679688 35.527344 C 44.679688 38.167969 40.71875 38.167969 40.71875 35.527344 C 40.71875 32.886719 44.679688 32.886719 44.679688 35.527344 "/>
<path style=" stroke:none;fill-rule:evenodd;fill:rgb(0%,0%,0%);fill-opacity:1;" d="M 66.28125 35.527344 C 66.28125 38.167969 62.320312 38.167969 62.320312 35.527344 C 62.320312 32.886719 66.28125 32.886719 66.28125 35.527344 "/>
<path style=" stroke:none;fill-rule:evenodd;fill:rgb(0%,0%,0%);fill-opacity:1;" d="M 25.375 15.648438 C 25.375 18.289062 21.417969 18.289062 21.417969 15.648438 C 21.417969 13.007812 25.375 13.007812 25.375 15.648438 "/>
<path style=" stroke:none;fill-rule:evenodd;fill:rgb(0%,0%,0%);fill-opacity:1;" d="M 25.375 37.25 C 25.375 39.886719 21.417969 39.886719 21.417969 37.25 C 21.417969 34.609375 25.375 34.609375 25.375 37.25 "/>
<path style=" stroke:none;fill-rule:evenodd;fill:rgb(0%,0%,0%);fill-opacity:1;" d="M 103.28125 93.40625 C 103.28125 96.046875 99.320312 96.046875 99.320312 93.40625 C 99.320312 90.769531 103.28125 90.769531 103.28125 93.40625 "/>
<path style=" stroke:none;fill-rule:evenodd;fill:rgb(0%,0%,0%);fill-opacity:1;" d="M 103.28125 71.808594 C 103.28125 74.449219 99.320312 74.449219 99.320312 71.808594 C 99.320312 69.167969 103.28125 69.167969 103.28125 71.808594 "/>
<path style=" stroke:none;fill-rule:evenodd;fill:rgb(0%,0%,0%);fill-opacity:1;" d="M 36.355469 100.03125 L 40.675781 100.03125 L 40.675781 104.351562 L 36.355469 104.351562 Z "/>
<path style=" stroke:none;fill-rule:evenodd;fill:rgb(0%,0%,0%);fill-opacity:1;" d="M 40.675781 94.992188 C 40.675781 97.871094 36.355469 97.871094 36.355469 94.992188 C 36.355469 92.113281 40.675781 92.113281 40.675781 94.992188 "/>
<path style=" stroke:none;fill-rule:evenodd;fill:rgb(0%,0%,0%);fill-opacity:1;" d="M 40.675781 87.792969 C 40.675781 90.671875 36.355469 90.671875 36.355469 87.792969 C 36.355469 84.914062 40.675781 84.914062 40.675781 87.792969 "/>
<path style=" stroke:none;fill-rule:evenodd;fill:rgb(0%,0%,0%);fill-opacity:1;" d="M 107.355469 130.847656 L 111.675781 130.847656 L 111.675781 135.167969 L 107.355469 135.167969 Z "/>
<path style=" stroke:none;fill-rule:evenodd;fill:rgb(0%,0%,0%);fill-opacity:1;" d="M 118.875 133.007812 C 118.875 135.886719 114.554688 135.886719 114.554688 133.007812 C 114.554688 130.128906 118.875 130.128906 118.875 133.007812 "/>
<path style=" stroke:none;fill-rule:evenodd;fill:rgb(0%,0%,0%);fill-opacity:1;" d="M 126.074219 133.007812 C 126.074219 135.886719 121.753906 135.886719 121.753906 133.007812 C 121.753906 130.128906 126.074219 130.128906 126.074219 133.007812 "/>
<path style=" stroke:none;fill-rule:evenodd;fill:rgb(0%,0%,0%);fill-opacity:1;" d="M 207.292969 119.183594 L 211.613281 119.183594 L 211.613281 123.503906 L 207.292969 123.503906 Z "/>
<path style=" stroke:none;fill-rule:evenodd;fill:rgb(0%,0%,0%);fill-opacity:1;" d="M 211.613281 128.542969 C 211.613281 131.425781 207.292969 131.425781 207.292969 128.542969 C 207.292969 125.664062 211.613281 125.664062 211.613281 128.542969 "/>
<path style=" stroke:none;fill-rule:evenodd;fill:rgb(0%,0%,0%);fill-opacity:1;" d="M 68.476562 12.488281 L 72.796875 12.488281 L 72.796875 16.808594 L 68.476562 16.808594 Z "/>
<path style=" stroke:none;fill-rule:evenodd;fill:rgb(0%,0%,0%);fill-opacity:1;" d="M 65.59375 14.648438 C 65.59375 17.527344 61.277344 17.527344 61.277344 14.648438 C 61.277344 11.765625 65.59375 11.765625 65.59375 14.648438 "/>
<path style=" stroke:none;fill-rule:evenodd;fill:rgb(0%,0%,0%);fill-opacity:1;" d="M 207.714844 82.464844 L 212.035156 82.464844 L 212.035156 86.785156 L 207.714844 86.785156 Z "/>
<path style=" stroke:none;fill-rule:evenodd;fill:rgb(0%,0%,0%);fill-opacity:1;" d="M 66.460938 126.097656 L 70.78125 126.097656 L 70.78125 130.417969 L 66.460938 130.417969 Z "/>
<path style=" stroke:none;fill-rule:evenodd;fill:rgb(0%,0%,0%);fill-opacity:1;" d="M 94.753906 122.929688 C 94.753906 126.097656 90.003906 126.097656 90.003906 122.929688 C 90.003906 119.761719 94.753906 119.761719 94.753906 122.929688 "/>
<path style=" stroke:none;fill-rule:evenodd;fill:rgb(0%,0%,0%);fill-opacity:1;" d="M 87.554688 122.929688 C 87.554688 126.097656 82.804688 126.097656 82.804688 122.929688 C 82.804688 119.761719 87.554688 119.761719 87.554688 122.929688 "/>
<path style=" stroke:none;fill-rule:evenodd;fill:rgb(0%,0%,0%);fill-opacity:1;" d="M 155.8125 23.289062 C 155.8125 26.457031 151.058594 26.457031 151.058594 23.289062 C 151.058594 20.121094 155.8125 20.121094 155.8125 23.289062 "/>
<path style=" stroke:none;fill-rule:evenodd;fill:rgb(0%,0%,0%);fill-opacity:1;" d="M 155.8125 16.085938 C 155.8125 19.253906 151.058594 19.253906 151.058594 16.085938 C 151.058594 12.917969 155.8125 12.917969 155.8125 16.085938 "/>
<path style=" stroke:none;fill-rule:evenodd;fill:rgb(0%,0%,0%);fill-opacity:1;" d="M 119.515625 16.085938 C 119.515625 19.253906 114.765625 19.253906 114.765625 16.085938 C 114.765625 12.917969 119.515625 12.917969 119.515625 16.085938 "/>
<path style=" stroke:none;fill-rule:evenodd;fill:rgb(0%,0%,0%);fill-opacity:1;" d="M 119.515625 23.289062 C 119.515625 26.457031 114.765625 26.457031 114.765625 23.289062 C 114.765625 20.121094 119.515625 20.121094 119.515625 23.289062 "/>
<path style=" stroke:none;fill-rule:evenodd;fill:rgb(0%,0%,0%);fill-opacity:1;" d="M 146.347656 121.199219 C 146.347656 124.035156 142.09375 124.035156 142.09375 121.199219 C 142.09375 118.363281 146.347656 118.363281 146.347656 121.199219 "/>
<path style=" stroke:none;fill-rule:evenodd;fill:rgb(0%,0%,0%);fill-opacity:1;" d="M 146.347656 128.398438 C 146.347656 131.238281 142.09375 131.238281 142.09375 128.398438 C 142.09375 125.5625 146.347656 125.5625 146.347656 128.398438 "/>
<path style=" stroke:none;fill-rule:evenodd;fill:rgb(0%,0%,0%);fill-opacity:1;" d="M 128.695312 73.429688 L 132.65625 73.429688 L 132.65625 77.390625 L 128.695312 77.390625 Z "/>
<path style=" stroke:none;fill-rule:evenodd;fill:rgb(0%,0%,0%);fill-opacity:1;" d="M 139.855469 75.40625 C 139.855469 78.046875 135.894531 78.046875 135.894531 75.40625 C 135.894531 72.769531 139.855469 72.769531 139.855469 75.40625 "/>
<path style=" stroke:none;fill-rule:evenodd;fill:rgb(0%,0%,0%);fill-opacity:1;" d="M 147.054688 75.40625 C 147.054688 78.046875 143.097656 78.046875 143.097656 75.40625 C 143.097656 72.769531 147.054688 72.769531 147.054688 75.40625 "/>
<path style=" stroke:none;fill-rule:evenodd;fill:rgb(0%,0%,0%);fill-opacity:1;" d="M 154.257812 75.40625 C 154.257812 78.046875 150.296875 78.046875 150.296875 75.40625 C 150.296875 72.769531 154.257812 72.769531 154.257812 75.40625 "/>
<path style=" stroke:none;fill-rule:evenodd;fill:rgb(0%,0%,0%);fill-opacity:1;" d="M 161.457031 75.40625 C 161.457031 78.046875 157.496094 78.046875 157.496094 75.40625 C 157.496094 72.769531 161.457031 72.769531 161.457031 75.40625 "/>
<path style=" stroke:none;fill-rule:evenodd;fill:rgb(0%,0%,0%);fill-opacity:1;" d="M 168.65625 75.40625 C 168.65625 78.046875 164.695312 78.046875 164.695312 75.40625 C 164.695312 72.769531 168.65625 72.769531 168.65625 75.40625 "/>
<path style=" stroke:none;fill-rule:evenodd;fill:rgb(0%,0%,0%);fill-opacity:1;" d="M 175.855469 75.40625 C 175.855469 78.046875 171.894531 78.046875 171.894531 75.40625 C 171.894531 72.769531 175.855469 72.769531 175.855469 75.40625 "/>
<path style=" stroke:none;fill-rule:evenodd;fill:rgb(0%,0%,0%);fill-opacity:1;" d="M 175.855469 97.007812 C 175.855469 99.648438 171.894531 99.648438 171.894531 97.007812 C 171.894531 94.367188 175.855469 94.367188 175.855469 97.007812 "/>
<path style=" stroke:none;fill-rule:evenodd;fill:rgb(0%,0%,0%);fill-opacity:1;" d="M 168.65625 97.007812 C 168.65625 99.648438 164.695312 99.648438 164.695312 97.007812 C 164.695312 94.367188 168.65625 94.367188 168.65625 97.007812 "/>
<path style=" stroke:none;fill-rule:evenodd;fill:rgb(0%,0%,0%);fill-opacity:1;" d="M 161.457031 97.007812 C 161.457031 99.648438 157.496094 99.648438 157.496094 97.007812 C 157.496094 94.367188 161.457031 94.367188 161.457031 97.007812 "/>
<path style=" stroke:none;fill-rule:evenodd;fill:rgb(0%,0%,0%);fill-opacity:1;" d="M 154.257812 97.007812 C 154.257812 99.648438 150.296875 99.648438 150.296875 97.007812 C 150.296875 94.367188 154.257812 94.367188 154.257812 97.007812 "/>
<path style=" stroke:none;fill-rule:evenodd;fill:rgb(0%,0%,0%);fill-opacity:1;" d="M 147.054688 97.007812 C 147.054688 99.648438 143.097656 99.648438 143.097656 97.007812 C 143.097656 94.367188 147.054688 94.367188 147.054688 97.007812 "/>
<path style=" stroke:none;fill-rule:evenodd;fill:rgb(0%,0%,0%);fill-opacity:1;" d="M 139.855469 97.007812 C 139.855469 99.648438 135.894531 99.648438 135.894531 97.007812 C 135.894531 94.367188 139.855469 94.367188 139.855469 97.007812 "/>
<path style=" stroke:none;fill-rule:evenodd;fill:rgb(0%,0%,0%);fill-opacity:1;" d="M 132.65625 97.007812 C 132.65625 99.648438 128.695312 99.648438 128.695312 97.007812 C 128.695312 94.367188 132.65625 94.367188 132.65625 97.007812 "/>
<path style=" stroke:none;fill-rule:evenodd;fill:rgb(0%,0%,0%);fill-opacity:1;" d="M 129.558594 56.148438 L 133.519531 56.148438 L 133.519531 60.109375 L 129.558594 60.109375 Z "/>
<path style=" stroke:none;fill-rule:evenodd;fill:rgb(0%,0%,0%);fill-opacity:1;" d="M 133.519531 36.527344 C 133.519531 39.167969 129.558594 39.167969 129.558594 36.527344 C 129.558594 33.886719 133.519531 33.886719 133.519531 36.527344 "/>
<path style=" stroke:none;fill-rule:evenodd;fill:rgb(0%,0%,0%);fill-opacity:1;" d="M 73.398438 52.261719 L 77.359375 52.261719 L 77.359375 56.222656 L 73.398438 56.222656 Z "/>
<path style=" stroke:none;fill-rule:evenodd;fill:rgb(0%,0%,0%);fill-opacity:1;" d="M 77.359375 75.839844 C 77.359375 78.480469 73.398438 78.480469 73.398438 75.839844 C 73.398438 73.199219 77.359375 73.199219 77.359375 75.839844 "/>
<path style=" stroke:none;fill-rule:evenodd;fill:rgb(0%,0%,0%);fill-opacity:1;" d="M 25.597656 127.859375 L 29.558594 127.859375 L 29.558594 131.820312 L 25.597656 131.820312 Z "/>
<path style=" stroke:none;fill-rule:evenodd;fill:rgb(0%,0%,0%);fill-opacity:1;" d="M 51.160156 129.839844 C 51.160156 132.480469 47.199219 132.480469 47.199219 129.839844 C 47.199219 127.199219 51.160156 127.199219 51.160156 129.839844 "/>
<path style=" stroke:none;fill-rule:evenodd;fill:rgb(0%,0%,0%);fill-opacity:1;" d="M 167.152344 128.867188 L 171.113281 128.867188 L 171.113281 132.828125 L 167.152344 132.828125 Z "/>
<path style=" stroke:none;fill-rule:evenodd;fill:rgb(0%,0%,0%);fill-opacity:1;" d="M 192.710938 130.847656 C 192.710938 133.488281 188.75 133.488281 188.75 130.847656 C 188.75 128.207031 192.710938 128.207031 192.710938 130.847656 "/>
<path style=" stroke:none;fill-rule:evenodd;fill:rgb(0%,0%,0%);fill-opacity:1;" d="M 204.082031 102.046875 C 204.082031 104.6875 200.121094 104.6875 200.121094 102.046875 C 200.121094 99.40625 204.082031 99.40625 204.082031 102.046875 "/>
<path style=" stroke:none;fill-rule:evenodd;fill:rgb(0%,0%,0%);fill-opacity:1;" d="M 211.28125 102.046875 C 211.28125 104.6875 207.320312 104.6875 207.320312 102.046875 C 207.320312 99.40625 211.28125 99.40625 211.28125 102.046875 "/>
<path style=" stroke:none;fill-rule:evenodd;fill:rgb(0%,0%,0%);fill-opacity:1;" d="M 193.605469 51.367188 L 197.636719 51.367188 L 197.636719 55.398438 L 193.605469 55.398438 Z "/>
<path style=" stroke:none;fill-rule:evenodd;fill:rgb(0%,0%,0%);fill-opacity:1;" d="M 197.636719 31.785156 C 197.636719 34.472656 193.605469 34.472656 193.605469 31.785156 C 193.605469 29.09375 197.636719 29.09375 197.636719 31.785156 "/>
<path style="fill:none;stroke-width:0.0444882;stroke-linecap:round;stroke-linejoin:miter;stroke:rgb(0%,0%,0%);stroke-opacity:1;stroke-miterlimit:10;" d="M 9.851974 -4.515919 L 9.347905 -4.515919 " transform="matrix(72,0,0,72,-555.908516,341.232116)"/>
<path style="fill:none;stroke-width:0.0444882;stroke-linecap:round;stroke-linejoin:miter;stroke:rgb(0%,0%,0%);stroke-opacity:1;stroke-miterlimit:10;" d="M 9.313888 -4.54999 L 8.977896 -4.54999 " transform="matrix(72,0,0,72,-555.908516,341.232116)"/>
<path style="fill:none;stroke-width:0.0444882;stroke-linecap:round;stroke-linejoin:miter;stroke:rgb(0%,0%,0%);stroke-opacity:1;stroke-miterlimit:10;" d="M 9.347905 -4.515919 L 9.313888 -4.54999 " transform="matrix(72,0,0,72,-555.908516,341.232116)"/>
<path style="fill:none;stroke-width:0.0444882;stroke-linecap:round;stroke-linejoin:miter;stroke:rgb(0%,0%,0%);stroke-opacity:1;stroke-miterlimit:10;" d="M 8.045876 -3.730003 L 8.255891 -3.519988 " transform="matrix(72,0,0,72,-555.908516,341.232116)"/>
<path style="fill:none;stroke-width:0.0444882;stroke-linecap:round;stroke-linejoin:miter;stroke:rgb(0%,0%,0%);stroke-opacity:1;stroke-miterlimit:10;" d="M 8.045876 -4.221974 L 8.045876 -3.730003 " transform="matrix(72,0,0,72,-555.908516,341.232116)"/>
<path style="fill:none;stroke-width:0.0444882;stroke-linecap:round;stroke-linejoin:miter;stroke:rgb(0%,0%,0%);stroke-opacity:1;stroke-miterlimit:10;" d="M 8.059873 -4.535884 L 8.045876 -4.521996 " transform="matrix(72,0,0,72,-555.908516,341.232116)"/>
<path style="fill:none;stroke-width:0.0444882;stroke-linecap:round;stroke-linejoin:miter;stroke:rgb(0%,0%,0%);stroke-opacity:1;stroke-miterlimit:10;" d="M 8.601974 -4.535884 L 8.059873 -4.535884 " transform="matrix(72,0,0,72,-555.908516,341.232116)"/>
<path style="fill:none;stroke-width:0.0444882;stroke-linecap:round;stroke-linejoin:miter;stroke:rgb(0%,0%,0%);stroke-opacity:1;stroke-miterlimit:10;" d="M 10.635882 -3.563988 L 10.561392 -3.563988 " transform="matrix(72,0,0,72,-555.908516,341.232116)"/>
<path style="fill:none;stroke-width:0.0444882;stroke-linecap:round;stroke-linejoin:miter;stroke:rgb(0%,0%,0%);stroke-opacity:1;stroke-miterlimit:10;" d="M 9.735926 -3.392004 L 9.835915 -3.392004 " transform="matrix(72,0,0,72,-555.908516,341.232116)"/>
<path style="fill:none;stroke-width:0.0444882;stroke-linecap:round;stroke-linejoin:miter;stroke:rgb(0%,0%,0%);stroke-opacity:1;stroke-miterlimit:10;" d="M 10.484406 -3.563988 L 10.561392 -3.563988 " transform="matrix(72,0,0,72,-555.908516,341.232116)"/>
<path style="fill:none;stroke-width:0.0444882;stroke-linecap:round;stroke-linejoin:miter;stroke:rgb(0%,0%,0%);stroke-opacity:1;stroke-miterlimit:10;" d="M 10.251008 -3.330589 L 10.484406 -3.563988 " transform="matrix(72,0,0,72,-555.908516,341.232116)"/>
<path style="fill:none;stroke-width:0.0444882;stroke-linecap:round;stroke-linejoin:miter;stroke:rgb(0%,0%,0%);stroke-opacity:1;stroke-miterlimit:10;" d="M 9.897275 -3.330589 L 10.251008 -3.330589 " transform="matrix(72,0,0,72,-555.908516,341.232116)"/>
<path style="fill:none;stroke-width:0.0444882;stroke-linecap:round;stroke-linejoin:miter;stroke:rgb(0%,0%,0%);stroke-opacity:1;stroke-miterlimit:10;" d="M 9.835915 -3.392004 L 9.897275 -3.330589 " transform="matrix(72,0,0,72,-555.908516,341.232116)"/>
<path style="fill:none;stroke-width:0.0444882;stroke-linecap:round;stroke-linejoin:miter;stroke:rgb(0%,0%,0%);stroke-opacity:1;stroke-miterlimit:10;" d="M 9.364398 -3.505502 L 9.127907 -3.741993 " transform="matrix(72,0,0,72,-555.908516,341.232116)"/>
<path style="fill:none;stroke-width:0.0444882;stroke-linecap:round;stroke-linejoin:miter;stroke:rgb(0%,0%,0%);stroke-opacity:1;stroke-miterlimit:10;" d="M 9.622373 -3.505502 L 9.364398 -3.505502 " transform="matrix(72,0,0,72,-555.908516,341.232116)"/>
<path style="fill:none;stroke-width:0.0444882;stroke-linecap:round;stroke-linejoin:miter;stroke:rgb(0%,0%,0%);stroke-opacity:1;stroke-miterlimit:10;" d="M 9.735926 -3.392004 L 9.622373 -3.505502 " transform="matrix(72,0,0,72,-555.908516,341.232116)"/>
<path style="fill:none;stroke-width:0.0444882;stroke-linecap:round;stroke-linejoin:miter;stroke:rgb(0%,0%,0%);stroke-opacity:1;stroke-miterlimit:10;" d="M 9.44198 -2.892004 L 9.341991 -2.892004 " transform="matrix(72,0,0,72,-555.908516,341.232116)"/>
<path style="fill:none;stroke-width:0.0444882;stroke-linecap:round;stroke-linejoin:miter;stroke:rgb(0%,0%,0%);stroke-opacity:1;stroke-miterlimit:10;" d="M 9.593998 -3.044022 L 9.44198 -2.892004 " transform="matrix(72,0,0,72,-555.908516,341.232116)"/>
<path style="fill:none;stroke-width:0.0444882;stroke-linecap:round;stroke-linejoin:miter;stroke:rgb(0%,0%,0%);stroke-opacity:1;stroke-miterlimit:10;" d="M 9.635882 -3.044022 L 9.593998 -3.044022 " transform="matrix(72,0,0,72,-555.908516,341.232116)"/>
<path style="fill:none;stroke-width:0.0444882;stroke-linecap:round;stroke-linejoin:miter;stroke:rgb(0%,0%,0%);stroke-opacity:1;stroke-miterlimit:10;" d="M 9.635882 -3.392004 L 9.635882 -3.044022 " transform="matrix(72,0,0,72,-555.908516,341.232116)"/>
<path style="fill:none;stroke-width:0.0444882;stroke-linecap:round;stroke-linejoin:miter;stroke:rgb(0%,0%,0%);stroke-opacity:1;stroke-miterlimit:10;" d="M 9.635882 -3.044022 L 9.72399 -2.956023 " transform="matrix(72,0,0,72,-555.908516,341.232116)"/>
<path style="fill:none;stroke-width:0.0444882;stroke-linecap:round;stroke-linejoin:miter;stroke:rgb(0%,0%,0%);stroke-opacity:1;stroke-miterlimit:10;" d="M 9.242002 -3.327877 L 9.127907 -3.442026 " transform="matrix(72,0,0,72,-555.908516,341.232116)"/>
<path style="fill:none;stroke-width:0.0444882;stroke-linecap:round;stroke-linejoin:miter;stroke:rgb(0%,0%,0%);stroke-opacity:1;stroke-miterlimit:10;" d="M 9.242002 -2.892004 L 9.242002 -3.327877 " transform="matrix(72,0,0,72,-555.908516,341.232116)"/>
<path style="fill:none;stroke-width:0.0444882;stroke-linecap:round;stroke-linejoin:miter;stroke:rgb(0%,0%,0%);stroke-opacity:1;stroke-miterlimit:10;" d="M 9.027809 -3.801781 L 8.717913 -3.491993 " transform="matrix(72,0,0,72,-555.908516,341.232116)"/>
<path style="fill:none;stroke-width:0.0444882;stroke-linecap:round;stroke-linejoin:miter;stroke:rgb(0%,0%,0%);stroke-opacity:1;stroke-miterlimit:10;" d="M 9.199901 -3.801781 L 9.027809 -3.801781 " transform="matrix(72,0,0,72,-555.908516,341.232116)"/>
<path style="fill:none;stroke-width:0.0444882;stroke-linecap:round;stroke-linejoin:miter;stroke:rgb(0%,0%,0%);stroke-opacity:1;stroke-miterlimit:10;" d="M 9.441817 -3.559973 L 9.199901 -3.801781 " transform="matrix(72,0,0,72,-555.908516,341.232116)"/>
<path style="fill:none;stroke-width:0.0444882;stroke-linecap:round;stroke-linejoin:miter;stroke:rgb(0%,0%,0%);stroke-opacity:1;stroke-miterlimit:10;" d="M 9.767881 -3.559973 L 9.441817 -3.559973 " transform="matrix(72,0,0,72,-555.908516,341.232116)"/>
<path style="fill:none;stroke-width:0.0444882;stroke-linecap:round;stroke-linejoin:miter;stroke:rgb(0%,0%,0%);stroke-opacity:1;stroke-miterlimit:10;" d="M 9.935904 -3.392004 L 9.767881 -3.559973 " transform="matrix(72,0,0,72,-555.908516,341.232116)"/>
<path style="fill:none;stroke-width:0.0444882;stroke-linecap:round;stroke-linejoin:miter;stroke:rgb(0%,0%,0%);stroke-opacity:1;stroke-miterlimit:10;" d="M 8.674022 -2.957976 L 8.674022 -3.032412 " transform="matrix(72,0,0,72,-555.908516,341.232116)"/>
<path style="fill:none;stroke-width:0.0444882;stroke-linecap:round;stroke-linejoin:miter;stroke:rgb(0%,0%,0%);stroke-opacity:1;stroke-miterlimit:10;" d="M 8.427223 -3.279211 L 8.674022 -3.032412 " transform="matrix(72,0,0,72,-555.908516,341.232116)"/>
<path style="fill:none;stroke-width:0.0444882;stroke-linecap:round;stroke-linejoin:miter;stroke:rgb(0%,0%,0%);stroke-opacity:1;stroke-miterlimit:10;" d="M 8.427223 -3.696692 L 8.427223 -3.279211 " transform="matrix(72,0,0,72,-555.908516,341.232116)"/>
<path style="fill:none;stroke-width:0.0444882;stroke-linecap:round;stroke-linejoin:miter;stroke:rgb(0%,0%,0%);stroke-opacity:1;stroke-miterlimit:10;" d="M 8.424022 -3.700001 L 8.427223 -3.696692 " transform="matrix(72,0,0,72,-555.908516,341.232116)"/>
<path style="fill:none;stroke-width:0.0444882;stroke-linecap:round;stroke-linejoin:miter;stroke:rgb(0%,0%,0%);stroke-opacity:1;stroke-miterlimit:10;" d="M 8.877907 -3.031978 L 8.717913 -3.192026 " transform="matrix(72,0,0,72,-555.908516,341.232116)"/>
<path style="fill:none;stroke-width:0.0444882;stroke-linecap:round;stroke-linejoin:miter;stroke:rgb(0%,0%,0%);stroke-opacity:1;stroke-miterlimit:10;" d="M 8.904003 -3.031978 L 8.877907 -3.031978 " transform="matrix(72,0,0,72,-555.908516,341.232116)"/>
<path style="fill:none;stroke-width:0.0444882;stroke-linecap:round;stroke-linejoin:miter;stroke:rgb(0%,0%,0%);stroke-opacity:1;stroke-miterlimit:10;" d="M 10.437911 -3.997907 L 10.365483 -3.997907 " transform="matrix(72,0,0,72,-555.908516,341.232116)"/>
<path style="fill:none;stroke-width:0.0444882;stroke-linecap:round;stroke-linejoin:miter;stroke:rgb(0%,0%,0%);stroke-opacity:1;stroke-miterlimit:10;" d="M 9.935904 -3.997907 L 10.365483 -3.997907 " transform="matrix(72,0,0,72,-555.908516,341.232116)"/>
<path style="fill:none;stroke-width:0.0444882;stroke-linecap:round;stroke-linejoin:miter;stroke:rgb(0%,0%,0%);stroke-opacity:1;stroke-miterlimit:10;" d="M 9.935904 -3.997907 L 9.935904 -3.751976 " transform="matrix(72,0,0,72,-555.908516,341.232116)"/>
<path style="fill:none;stroke-width:0.0444882;stroke-linecap:round;stroke-linejoin:miter;stroke:rgb(0%,0%,0%);stroke-opacity:1;stroke-miterlimit:10;" d="M 9.935904 -3.751976 L 9.935904 -3.692026 " transform="matrix(72,0,0,72,-555.908516,341.232116)"/>
<path style="fill:none;stroke-width:0.0444882;stroke-linecap:round;stroke-linejoin:miter;stroke:rgb(0%,0%,0%);stroke-opacity:1;stroke-miterlimit:10;" d="M 9.230012 -3.997907 L 9.935904 -3.997907 " transform="matrix(72,0,0,72,-555.908516,341.232116)"/>
<path style="fill:none;stroke-width:0.0444882;stroke-linecap:round;stroke-linejoin:miter;stroke:rgb(0%,0%,0%);stroke-opacity:1;stroke-miterlimit:10;" d="M 8.977896 -4.250023 L 9.230012 -3.997907 " transform="matrix(72,0,0,72,-555.908516,341.232116)"/>
<path style="fill:none;stroke-width:0.0444882;stroke-linecap:round;stroke-linejoin:miter;stroke:rgb(0%,0%,0%);stroke-opacity:1;stroke-miterlimit:10;" d="M 9.795984 -3.751976 L 9.735926 -3.692026 " transform="matrix(72,0,0,72,-555.908516,341.232116)"/>
<path style="fill:none;stroke-width:0.0444882;stroke-linecap:round;stroke-linejoin:miter;stroke:rgb(0%,0%,0%);stroke-opacity:1;stroke-miterlimit:10;" d="M 9.935904 -3.751976 L 9.795984 -3.751976 " transform="matrix(72,0,0,72,-555.908516,341.232116)"/>
<path style="fill:none;stroke-width:0.0444882;stroke-linecap:round;stroke-linejoin:miter;stroke:rgb(0%,0%,0%);stroke-opacity:1;stroke-miterlimit:10;" d="M 9.735926 -3.692026 L 9.635882 -3.692026 " transform="matrix(72,0,0,72,-555.908516,341.232116)"/>
<path style="fill:none;stroke-width:0.0444882;stroke-linecap:round;stroke-linejoin:miter;stroke:rgb(0%,0%,0%);stroke-opacity:1;stroke-miterlimit:10;" d="M 9.851974 -4.415876 L 9.347905 -4.415876 " transform="matrix(72,0,0,72,-555.908516,341.232116)"/>
<path style="fill:none;stroke-width:0.0444882;stroke-linecap:round;stroke-linejoin:miter;stroke:rgb(0%,0%,0%);stroke-opacity:1;stroke-miterlimit:10;" d="M 9.969975 -4.297874 L 10.437911 -4.297874 " transform="matrix(72,0,0,72,-555.908516,341.232116)"/>
<path style="fill:none;stroke-width:0.0444882;stroke-linecap:round;stroke-linejoin:miter;stroke:rgb(0%,0%,0%);stroke-opacity:1;stroke-miterlimit:10;" d="M 9.851974 -4.415876 L 9.969975 -4.297874 " transform="matrix(72,0,0,72,-555.908516,341.232116)"/>
<path style="fill:none;stroke-width:0.0444882;stroke-linecap:round;stroke-linejoin:miter;stroke:rgb(0%,0%,0%);stroke-opacity:1;stroke-miterlimit:10;" d="M 9.896896 -3.630991 L 9.835915 -3.692026 " transform="matrix(72,0,0,72,-555.908516,341.232116)"/>
<path style="fill:none;stroke-width:0.0444882;stroke-linecap:round;stroke-linejoin:miter;stroke:rgb(0%,0%,0%);stroke-opacity:1;stroke-miterlimit:10;" d="M 10.33011 -3.630991 L 9.896896 -3.630991 " transform="matrix(72,0,0,72,-555.908516,341.232116)"/>
<path style="fill:none;stroke-width:0.0444882;stroke-linecap:round;stroke-linejoin:miter;stroke:rgb(0%,0%,0%);stroke-opacity:1;stroke-miterlimit:10;" d="M 10.607725 -3.908606 L 10.33011 -3.630991 " transform="matrix(72,0,0,72,-555.908516,341.232116)"/>
<path style="fill:none;stroke-width:0.0444882;stroke-linecap:round;stroke-linejoin:miter;stroke:rgb(0%,0%,0%);stroke-opacity:1;stroke-miterlimit:10;" d="M 10.607725 -4.128224 L 10.607725 -3.908606 " transform="matrix(72,0,0,72,-555.908516,341.232116)"/>
<path style="fill:none;stroke-width:0.0444882;stroke-linecap:round;stroke-linejoin:miter;stroke:rgb(0%,0%,0%);stroke-opacity:1;stroke-miterlimit:10;" d="M 10.437911 -4.297874 L 10.607725 -4.128224 " transform="matrix(72,0,0,72,-555.908516,341.232116)"/>
<path style="fill:none;stroke-width:0.0444882;stroke-linecap:round;stroke-linejoin:miter;stroke:rgb(0%,0%,0%);stroke-opacity:1;stroke-miterlimit:10;" d="M 8.767881 -3.986025 L 8.839875 -3.986025 " transform="matrix(72,0,0,72,-555.908516,341.232116)"/>
<path style="fill:none;stroke-width:0.0444882;stroke-linecap:round;stroke-linejoin:miter;stroke:rgb(0%,0%,0%);stroke-opacity:1;stroke-miterlimit:10;" d="M 8.893912 -3.931989 L 9.475997 -3.931989 " transform="matrix(72,0,0,72,-555.908516,341.232116)"/>
<path style="fill:none;stroke-width:0.0444882;stroke-linecap:round;stroke-linejoin:miter;stroke:rgb(0%,0%,0%);stroke-opacity:1;stroke-miterlimit:10;" d="M 8.839875 -3.986025 L 8.893912 -3.931989 " transform="matrix(72,0,0,72,-555.908516,341.232116)"/>
<path style="fill:none;stroke-width:0.0444882;stroke-linecap:round;stroke-linejoin:miter;stroke:rgb(0%,0%,0%);stroke-opacity:1;stroke-miterlimit:10;" d="M 9.547883 -3.931989 L 9.475997 -3.931989 " transform="matrix(72,0,0,72,-555.908516,341.232116)"/>
<path style="fill:none;stroke-width:0.0444882;stroke-linecap:round;stroke-linejoin:miter;stroke:rgb(0%,0%,0%);stroke-opacity:1;stroke-miterlimit:10;" d="M 8.427278 -3.996605 L 8.424022 -4.000023 " transform="matrix(72,0,0,72,-555.908516,341.232116)"/>
<path style="fill:none;stroke-width:0.0444882;stroke-linecap:round;stroke-linejoin:miter;stroke:rgb(0%,0%,0%);stroke-opacity:1;stroke-miterlimit:10;" d="M 8.427278 -3.788977 L 8.427278 -3.996605 " transform="matrix(72,0,0,72,-555.908516,341.232116)"/>
<path style="fill:none;stroke-width:0.0444882;stroke-linecap:round;stroke-linejoin:miter;stroke:rgb(0%,0%,0%);stroke-opacity:1;stroke-miterlimit:10;" d="M 8.664908 -3.788977 L 8.767881 -3.686004 " transform="matrix(72,0,0,72,-555.908516,341.232116)"/>
<path style="fill:none;stroke-width:0.0444882;stroke-linecap:round;stroke-linejoin:miter;stroke:rgb(0%,0%,0%);stroke-opacity:1;stroke-miterlimit:10;" d="M 8.427278 -3.788977 L 8.664908 -3.788977 " transform="matrix(72,0,0,72,-555.908516,341.232116)"/>
<path style="fill:none;stroke-width:0.0444882;stroke-linecap:round;stroke-linejoin:miter;stroke:rgb(0%,0%,0%);stroke-opacity:1;stroke-miterlimit:10;" d="M 8.372699 -3.436709 L 8.255891 -3.32001 " transform="matrix(72,0,0,72,-555.908516,341.232116)"/>
<path style="fill:none;stroke-width:0.0444882;stroke-linecap:round;stroke-linejoin:miter;stroke:rgb(0%,0%,0%);stroke-opacity:1;stroke-miterlimit:10;" d="M 8.372699 -3.577497 L 8.372699 -3.436709 " transform="matrix(72,0,0,72,-555.908516,341.232116)"/>
<path style="fill:none;stroke-width:0.0444882;stroke-linecap:round;stroke-linejoin:miter;stroke:rgb(0%,0%,0%);stroke-opacity:1;stroke-miterlimit:10;" d="M 8.362499 -3.587805 L 8.372699 -3.577497 " transform="matrix(72,0,0,72,-555.908516,341.232116)"/>
<path style="fill:none;stroke-width:0.0444882;stroke-linecap:round;stroke-linejoin:miter;stroke:rgb(0%,0%,0%);stroke-opacity:1;stroke-miterlimit:10;" d="M 8.362499 -3.724198 L 8.362499 -3.587805 " transform="matrix(72,0,0,72,-555.908516,341.232116)"/>
<path style="fill:none;stroke-width:0.0444882;stroke-linecap:round;stroke-linejoin:miter;stroke:rgb(0%,0%,0%);stroke-opacity:1;stroke-miterlimit:10;" d="M 8.427278 -3.788977 L 8.362499 -3.724198 " transform="matrix(72,0,0,72,-555.908516,341.232116)"/>
<path style="fill:none;stroke-width:0.0444882;stroke-linecap:round;stroke-linejoin:miter;stroke:rgb(0%,0%,0%);stroke-opacity:1;stroke-miterlimit:10;" d="M 8.404003 -3.097408 L 8.255891 -3.24552 " transform="matrix(72,0,0,72,-555.908516,341.232116)"/>
<path style="fill:none;stroke-width:0.0444882;stroke-linecap:round;stroke-linejoin:miter;stroke:rgb(0%,0%,0%);stroke-opacity:1;stroke-miterlimit:10;" d="M 8.404003 -2.936004 L 8.404003 -3.097408 " transform="matrix(72,0,0,72,-555.908516,341.232116)"/>
<path style="fill:none;stroke-width:0.0444882;stroke-linecap:round;stroke-linejoin:miter;stroke:rgb(0%,0%,0%);stroke-opacity:1;stroke-miterlimit:10;" d="M 8.255891 -3.32001 L 8.255891 -3.24552 " transform="matrix(72,0,0,72,-555.908516,341.232116)"/>
<path style="fill:none;stroke-width:0.0444882;stroke-linecap:round;stroke-linejoin:miter;stroke:rgb(0%,0%,0%);stroke-opacity:1;stroke-miterlimit:10;" d="M 10.598013 -2.922006 L 10.630023 -2.954016 " transform="matrix(72,0,0,72,-555.908516,341.232116)"/>
<path style="fill:none;stroke-width:0.0444882;stroke-linecap:round;stroke-linejoin:miter;stroke:rgb(0%,0%,0%);stroke-opacity:1;stroke-miterlimit:10;" d="M 10.369986 -2.922006 L 10.598013 -2.922006 " transform="matrix(72,0,0,72,-555.908516,341.232116)"/>
<path style="fill:none;stroke-width:0.0444882;stroke-linecap:round;stroke-linejoin:miter;stroke:rgb(0%,0%,0%);stroke-opacity:1;stroke-miterlimit:10;" d="M 8.249977 -3.419999 L 8.255891 -3.419999 " transform="matrix(72,0,0,72,-555.908516,341.232116)"/>
<path style="fill:none;stroke-width:0.0444882;stroke-linecap:round;stroke-linejoin:miter;stroke:rgb(0%,0%,0%);stroke-opacity:1;stroke-miterlimit:10;" d="M 8.103981 -3.274003 L 8.249977 -3.419999 " transform="matrix(72,0,0,72,-555.908516,341.232116)"/>
<path style="fill:none;stroke-width:0.0444882;stroke-linecap:round;stroke-linejoin:miter;stroke:rgb(0%,0%,0%);stroke-opacity:1;stroke-miterlimit:10;" d="M 8.103981 -2.936004 L 8.103981 -3.274003 " transform="matrix(72,0,0,72,-555.908516,341.232116)"/>
<path style="fill:none;stroke-width:0.0444882;stroke-linecap:round;stroke-linejoin:miter;stroke:rgb(0%,0%,0%);stroke-opacity:1;stroke-miterlimit:10;" d="M 9.535893 -3.692026 L 9.463899 -3.692026 " transform="matrix(72,0,0,72,-555.908516,341.232116)"/>
<path style="fill:none;stroke-width:0.0444882;stroke-linecap:round;stroke-linejoin:miter;stroke:rgb(0%,0%,0%);stroke-opacity:1;stroke-miterlimit:10;" d="M 8.313996 -4.061221 L 8.313996 -4.2459 " transform="matrix(72,0,0,72,-555.908516,341.232116)"/>
<path style="fill:none;stroke-width:0.0444882;stroke-linecap:round;stroke-linejoin:miter;stroke:rgb(0%,0%,0%);stroke-opacity:1;stroke-miterlimit:10;" d="M 8.486685 -4.061221 L 8.313996 -4.061221 " transform="matrix(72,0,0,72,-555.908516,341.232116)"/>
<path style="fill:none;stroke-width:0.0444882;stroke-linecap:round;stroke-linejoin:miter;stroke:rgb(0%,0%,0%);stroke-opacity:1;stroke-miterlimit:10;" d="M 8.678797 -3.869109 L 8.486685 -4.061221 " transform="matrix(72,0,0,72,-555.908516,341.232116)"/>
<path style="fill:none;stroke-width:0.0444882;stroke-linecap:round;stroke-linejoin:miter;stroke:rgb(0%,0%,0%);stroke-opacity:1;stroke-miterlimit:10;" d="M 9.286815 -3.869109 L 8.678797 -3.869109 " transform="matrix(72,0,0,72,-555.908516,341.232116)"/>
<path style="fill:none;stroke-width:0.0444882;stroke-linecap:round;stroke-linejoin:miter;stroke:rgb(0%,0%,0%);stroke-opacity:1;stroke-miterlimit:10;" d="M 9.463899 -3.692026 L 9.286815 -3.869109 " transform="matrix(72,0,0,72,-555.908516,341.232116)"/>
<path style="fill:none;stroke-width:0.0444882;stroke-linecap:round;stroke-linejoin:miter;stroke:rgb(0%,0%,0%);stroke-opacity:1;stroke-miterlimit:10;" d="M 8.318174 -3.482173 L 8.255891 -3.419999 " transform="matrix(72,0,0,72,-555.908516,341.232116)"/>
<path style="fill:none;stroke-width:0.0444882;stroke-linecap:round;stroke-linejoin:miter;stroke:rgb(0%,0%,0%);stroke-opacity:1;stroke-miterlimit:10;" d="M 8.318174 -3.550424 L 8.318174 -3.482173 " transform="matrix(72,0,0,72,-555.908516,341.232116)"/>
<path style="fill:none;stroke-width:0.0444882;stroke-linecap:round;stroke-linejoin:miter;stroke:rgb(0%,0%,0%);stroke-opacity:1;stroke-miterlimit:10;" d="M 8.307974 -3.560624 L 8.318174 -3.550424 " transform="matrix(72,0,0,72,-555.908516,341.232116)"/>
<path style="fill:none;stroke-width:0.0444882;stroke-linecap:round;stroke-linejoin:miter;stroke:rgb(0%,0%,0%);stroke-opacity:1;stroke-miterlimit:10;" d="M 8.307974 -4.055199 L 8.307974 -3.560624 " transform="matrix(72,0,0,72,-555.908516,341.232116)"/>
<path style="fill:none;stroke-width:0.0444882;stroke-linecap:round;stroke-linejoin:miter;stroke:rgb(0%,0%,0%);stroke-opacity:1;stroke-miterlimit:10;" d="M 8.313996 -4.061221 L 8.307974 -4.055199 " transform="matrix(72,0,0,72,-555.908516,341.232116)"/>
<path style="fill:none;stroke-width:0.0444882;stroke-linecap:round;stroke-linejoin:miter;stroke:rgb(0%,0%,0%);stroke-opacity:1;stroke-miterlimit:10;" d="M 8.678308 -4.31019 L 8.614018 -4.2459 " transform="matrix(72,0,0,72,-555.908516,341.232116)"/>
<path style="fill:none;stroke-width:0.0444882;stroke-linecap:round;stroke-linejoin:miter;stroke:rgb(0%,0%,0%);stroke-opacity:1;stroke-miterlimit:10;" d="M 9.053688 -4.31019 L 8.678308 -4.31019 " transform="matrix(72,0,0,72,-555.908516,341.232116)"/>
<path style="fill:none;stroke-width:0.0444882;stroke-linecap:round;stroke-linejoin:miter;stroke:rgb(0%,0%,0%);stroke-opacity:1;stroke-miterlimit:10;" d="M 9.305804 -4.058183 L 9.053688 -4.31019 " transform="matrix(72,0,0,72,-555.908516,341.232116)"/>
<path style="fill:none;stroke-width:0.0444882;stroke-linecap:round;stroke-linejoin:miter;stroke:rgb(0%,0%,0%);stroke-opacity:1;stroke-miterlimit:10;" d="M 10.481097 -4.058183 L 9.305804 -4.058183 " transform="matrix(72,0,0,72,-555.908516,341.232116)"/>
<path style="fill:none;stroke-width:0.0444882;stroke-linecap:round;stroke-linejoin:miter;stroke:rgb(0%,0%,0%);stroke-opacity:1;stroke-miterlimit:10;" d="M 10.498187 -4.041093 L 10.481097 -4.058183 " transform="matrix(72,0,0,72,-555.908516,341.232116)"/>
<path style="fill:none;stroke-width:0.0444882;stroke-linecap:round;stroke-linejoin:miter;stroke:rgb(0%,0%,0%);stroke-opacity:1;stroke-miterlimit:10;" d="M 10.498187 -3.956186 L 10.498187 -4.041093 " transform="matrix(72,0,0,72,-555.908516,341.232116)"/>
<path style="fill:none;stroke-width:0.0444882;stroke-linecap:round;stroke-linejoin:miter;stroke:rgb(0%,0%,0%);stroke-opacity:1;stroke-miterlimit:10;" d="M 10.468185 -3.926184 L 10.498187 -3.956186 " transform="matrix(72,0,0,72,-555.908516,341.232116)"/>
<path style="fill:none;stroke-width:0.0444882;stroke-linecap:round;stroke-linejoin:miter;stroke:rgb(0%,0%,0%);stroke-opacity:1;stroke-miterlimit:10;" d="M 10.270214 -3.926184 L 10.468185 -3.926184 " transform="matrix(72,0,0,72,-555.908516,341.232116)"/>
<path style="fill:none;stroke-width:0.0444882;stroke-linecap:round;stroke-linejoin:miter;stroke:rgb(0%,0%,0%);stroke-opacity:1;stroke-miterlimit:10;" d="M 10.035893 -3.692026 L 10.270214 -3.926184 " transform="matrix(72,0,0,72,-555.908516,341.232116)"/>
<path style="fill:none;stroke-width:0.0444882;stroke-linecap:round;stroke-linejoin:miter;stroke:rgb(0%,0%,0%);stroke-opacity:1;stroke-miterlimit:10;" d="M 10.070018 -2.922006 L 9.998024 -2.922006 " transform="matrix(72,0,0,72,-555.908516,341.232116)"/>
<path style="fill:none;stroke-width:0.0444882;stroke-linecap:round;stroke-linejoin:miter;stroke:rgb(0%,0%,0%);stroke-opacity:1;stroke-miterlimit:10;" d="M 10.141904 -2.935895 L 10.141904 -2.922006 " transform="matrix(72,0,0,72,-555.908516,341.232116)"/>
<path style="fill:none;stroke-width:0.0444882;stroke-linecap:round;stroke-linejoin:miter;stroke:rgb(0%,0%,0%);stroke-opacity:1;stroke-miterlimit:10;" d="M 10.527918 -3.322017 L 10.141904 -2.935895 " transform="matrix(72,0,0,72,-555.908516,341.232116)"/>
<path style="fill:none;stroke-width:0.0444882;stroke-linecap:round;stroke-linejoin:miter;stroke:rgb(0%,0%,0%);stroke-opacity:1;stroke-miterlimit:10;" d="M 10.070018 -2.922006 L 10.141904 -2.922006 " transform="matrix(72,0,0,72,-555.908516,341.232116)"/>
<path style="fill:none;stroke-width:0.0444882;stroke-linecap:round;stroke-linejoin:miter;stroke:rgb(0%,0%,0%);stroke-opacity:1;stroke-miterlimit:10;" d="M 9.003992 -3.023298 L 9.003992 -3.031978 " transform="matrix(72,0,0,72,-555.908516,341.232116)"/>
<path style="fill:none;stroke-width:0.0444882;stroke-linecap:round;stroke-linejoin:miter;stroke:rgb(0%,0%,0%);stroke-opacity:1;stroke-miterlimit:10;" d="M 9.197623 -2.829721 L 9.003992 -3.023298 " transform="matrix(72,0,0,72,-555.908516,341.232116)"/>
<path style="fill:none;stroke-width:0.0444882;stroke-linecap:round;stroke-linejoin:miter;stroke:rgb(0%,0%,0%);stroke-opacity:1;stroke-miterlimit:10;" d="M 9.905685 -2.829721 L 9.197623 -2.829721 " transform="matrix(72,0,0,72,-555.908516,341.232116)"/>
<path style="fill:none;stroke-width:0.0444882;stroke-linecap:round;stroke-linejoin:miter;stroke:rgb(0%,0%,0%);stroke-opacity:1;stroke-miterlimit:10;" d="M 9.998024 -2.922006 L 9.905685 -2.829721 " transform="matrix(72,0,0,72,-555.908516,341.232116)"/>
<path style="fill:none;stroke-width:0.0444882;stroke-linecap:round;stroke-linejoin:miter;stroke:rgb(0%,0%,0%);stroke-opacity:1;stroke-miterlimit:10;" d="M 9.3555 -3.392004 L 9.535893 -3.392004 " transform="matrix(72,0,0,72,-555.908516,341.232116)"/>
<path style="fill:none;stroke-width:0.0444882;stroke-linecap:round;stroke-linejoin:miter;stroke:rgb(0%,0%,0%);stroke-opacity:1;stroke-miterlimit:10;" d="M 9.245474 -3.501922 L 9.3555 -3.392004 " transform="matrix(72,0,0,72,-555.908516,341.232116)"/>
<path style="fill:none;stroke-width:0.0444882;stroke-linecap:round;stroke-linejoin:miter;stroke:rgb(0%,0%,0%);stroke-opacity:1;stroke-miterlimit:10;" d="M 9.103384 -3.501922 L 9.245474 -3.501922 " transform="matrix(72,0,0,72,-555.908516,341.232116)"/>
<path style="fill:none;stroke-width:0.0444882;stroke-linecap:round;stroke-linejoin:miter;stroke:rgb(0%,0%,0%);stroke-opacity:1;stroke-miterlimit:10;" d="M 9.003992 -3.402475 L 9.103384 -3.501922 " transform="matrix(72,0,0,72,-555.908516,341.232116)"/>
<path style="fill:none;stroke-width:0.0444882;stroke-linecap:round;stroke-linejoin:miter;stroke:rgb(0%,0%,0%);stroke-opacity:1;stroke-miterlimit:10;" d="M 9.003992 -3.031978 L 9.003992 -3.402475 " transform="matrix(72,0,0,72,-555.908516,341.232116)"/>
<path style="fill:none;stroke-width:0.0444882;stroke-linecap:round;stroke-linejoin:miter;stroke:rgb(0%,0%,0%);stroke-opacity:1;stroke-miterlimit:10;" d="M 10.630023 -3.054005 L 10.630023 -3.128387 " transform="matrix(72,0,0,72,-555.908516,341.232116)"/>
<path style="fill:none;stroke-width:0.0444882;stroke-linecap:round;stroke-linejoin:miter;stroke:rgb(0%,0%,0%);stroke-opacity:1;stroke-miterlimit:10;" d="M 8.702017 -4.535884 L 8.776399 -4.535884 " transform="matrix(72,0,0,72,-555.908516,341.232116)"/>
<path style="fill:none;stroke-width:0.0444882;stroke-linecap:round;stroke-linejoin:miter;stroke:rgb(0%,0%,0%);stroke-opacity:1;stroke-miterlimit:10;" d="M 10.091991 -3.056012 L 9.72399 -3.056012 " transform="matrix(72,0,0,72,-555.908516,341.232116)"/>
<path style="fill:none;stroke-width:0.0444882;stroke-linecap:round;stroke-linejoin:miter;stroke:rgb(0%,0%,0%);stroke-opacity:1;stroke-miterlimit:10;" d="M 10.417783 -3.381805 L 10.091991 -3.056012 " transform="matrix(72,0,0,72,-555.908516,341.232116)"/>
<path style="fill:none;stroke-width:0.0444882;stroke-linecap:round;stroke-linejoin:miter;stroke:rgb(0%,0%,0%);stroke-opacity:1;stroke-miterlimit:10;" d="M 10.629806 -3.381805 L 10.417783 -3.381805 " transform="matrix(72,0,0,72,-555.908516,341.232116)"/>
<path style="fill:none;stroke-width:0.0444882;stroke-linecap:round;stroke-linejoin:miter;stroke:rgb(0%,0%,0%);stroke-opacity:1;stroke-miterlimit:10;" d="M 10.629806 -3.322017 L 10.629806 -3.381805 " transform="matrix(72,0,0,72,-555.908516,341.232116)"/>
<path style="fill:none;stroke-width:0.0444882;stroke-linecap:round;stroke-linejoin:miter;stroke:rgb(0%,0%,0%);stroke-opacity:1;stroke-miterlimit:10;" d="M 10.627907 -3.322017 L 10.629806 -3.322017 " transform="matrix(72,0,0,72,-555.908516,341.232116)"/>
<path style="fill:none;stroke-width:0.0444882;stroke-linecap:round;stroke-linejoin:miter;stroke:rgb(0%,0%,0%);stroke-opacity:1;stroke-miterlimit:10;" d="M 10.630023 -3.3218 L 10.630023 -3.128387 " transform="matrix(72,0,0,72,-555.908516,341.232116)"/>
<path style="fill:none;stroke-width:0.0444882;stroke-linecap:round;stroke-linejoin:miter;stroke:rgb(0%,0%,0%);stroke-opacity:1;stroke-miterlimit:10;" d="M 10.629806 -3.322017 L 10.630023 -3.3218 " transform="matrix(72,0,0,72,-555.908516,341.232116)"/>
<path style="fill:none;stroke-width:0.0444882;stroke-linecap:round;stroke-linejoin:miter;stroke:rgb(0%,0%,0%);stroke-opacity:1;stroke-miterlimit:10;" d="M 8.953102 -4.610374 L 8.891904 -4.549177 " transform="matrix(72,0,0,72,-555.908516,341.232116)"/>
<path style="fill:none;stroke-width:0.0444882;stroke-linecap:round;stroke-linejoin:miter;stroke:rgb(0%,0%,0%);stroke-opacity:1;stroke-miterlimit:10;" d="M 10.210915 -4.610374 L 8.953102 -4.610374 " transform="matrix(72,0,0,72,-555.908516,341.232116)"/>
<path style="fill:none;stroke-width:0.0444882;stroke-linecap:round;stroke-linejoin:miter;stroke:rgb(0%,0%,0%);stroke-opacity:1;stroke-miterlimit:10;" d="M 10.698219 -4.123124 L 10.210915 -4.610374 " transform="matrix(72,0,0,72,-555.908516,341.232116)"/>
<path style="fill:none;stroke-width:0.0444882;stroke-linecap:round;stroke-linejoin:miter;stroke:rgb(0%,0%,0%);stroke-opacity:1;stroke-miterlimit:10;" d="M 10.698219 -3.450327 L 10.698219 -4.123124 " transform="matrix(72,0,0,72,-555.908516,341.232116)"/>
<path style="fill:none;stroke-width:0.0444882;stroke-linecap:round;stroke-linejoin:miter;stroke:rgb(0%,0%,0%);stroke-opacity:1;stroke-miterlimit:10;" d="M 10.629806 -3.381805 L 10.698219 -3.450327 " transform="matrix(72,0,0,72,-555.908516,341.232116)"/>
<path style="fill:none;stroke-width:0.0444882;stroke-linecap:round;stroke-linejoin:miter;stroke:rgb(0%,0%,0%);stroke-opacity:1;stroke-miterlimit:10;" d="M 8.878612 -4.535884 L 8.776399 -4.535884 " transform="matrix(72,0,0,72,-555.908516,341.232116)"/>
<path style="fill:none;stroke-width:0.0444882;stroke-linecap:round;stroke-linejoin:miter;stroke:rgb(0%,0%,0%);stroke-opacity:1;stroke-miterlimit:10;" d="M 8.891904 -4.549177 L 8.878612 -4.535884 " transform="matrix(72,0,0,72,-555.908516,341.232116)"/>
<path style="fill:none;stroke-width:0.0444882;stroke-linecap:round;stroke-linejoin:miter;stroke:rgb(0%,0%,0%);stroke-opacity:1;stroke-miterlimit:10;" d="M 9.504697 -4.232011 L 9.547883 -4.232011 " transform="matrix(72,0,0,72,-555.908516,341.232116)"/>
<path style="fill:none;stroke-width:0.0444882;stroke-linecap:round;stroke-linejoin:miter;stroke:rgb(0%,0%,0%);stroke-opacity:1;stroke-miterlimit:10;" d="M 9.450227 -4.286481 L 9.504697 -4.232011 " transform="matrix(72,0,0,72,-555.908516,341.232116)"/>
<path style="fill:none;stroke-width:0.0444882;stroke-linecap:round;stroke-linejoin:miter;stroke:rgb(0%,0%,0%);stroke-opacity:1;stroke-miterlimit:10;" d="M 9.272275 -4.286481 L 9.450227 -4.286481 " transform="matrix(72,0,0,72,-555.908516,341.232116)"/>
<path style="fill:none;stroke-width:0.0444882;stroke-linecap:round;stroke-linejoin:miter;stroke:rgb(0%,0%,0%);stroke-opacity:1;stroke-miterlimit:10;" d="M 9.099098 -4.459713 L 9.272275 -4.286481 " transform="matrix(72,0,0,72,-555.908516,341.232116)"/>
<path style="fill:none;stroke-width:0.0444882;stroke-linecap:round;stroke-linejoin:miter;stroke:rgb(0%,0%,0%);stroke-opacity:1;stroke-miterlimit:10;" d="M 8.981423 -4.459713 L 9.099098 -4.459713 " transform="matrix(72,0,0,72,-555.908516,341.232116)"/>
<path style="fill:none;stroke-width:0.0444882;stroke-linecap:round;stroke-linejoin:miter;stroke:rgb(0%,0%,0%);stroke-opacity:1;stroke-miterlimit:10;" d="M 8.891904 -4.549177 L 8.981423 -4.459713 " transform="matrix(72,0,0,72,-555.908516,341.232116)"/>
<path style="fill:none;stroke-width:0.0444882;stroke-linecap:round;stroke-linejoin:miter;stroke:rgb(0%,0%,0%);stroke-opacity:1;stroke-miterlimit:10;" d="M 10.313996 -3.692026 L 10.135882 -3.692026 " transform="matrix(72,0,0,72,-555.908516,341.232116)"/>
<path style="fill:none;stroke-width:0.0444882;stroke-linecap:round;stroke-linejoin:miter;stroke:rgb(0%,0%,0%);stroke-opacity:1;stroke-miterlimit:10;" d="M 10.5532 -3.931175 L 10.313996 -3.692026 " transform="matrix(72,0,0,72,-555.908516,341.232116)"/>
<path style="fill:none;stroke-width:0.0444882;stroke-linecap:round;stroke-linejoin:miter;stroke:rgb(0%,0%,0%);stroke-opacity:1;stroke-miterlimit:10;" d="M 10.5532 -4.063879 L 10.5532 -3.931175 " transform="matrix(72,0,0,72,-555.908516,341.232116)"/>
<path style="fill:none;stroke-width:0.0444882;stroke-linecap:round;stroke-linejoin:miter;stroke:rgb(0%,0%,0%);stroke-opacity:1;stroke-miterlimit:10;" d="M 10.385123 -4.232011 L 10.5532 -4.063879 " transform="matrix(72,0,0,72,-555.908516,341.232116)"/>
<path style="fill:none;stroke-width:0.0444882;stroke-linecap:round;stroke-linejoin:miter;stroke:rgb(0%,0%,0%);stroke-opacity:1;stroke-miterlimit:10;" d="M 9.547883 -4.232011 L 10.385123 -4.232011 " transform="matrix(72,0,0,72,-555.908516,341.232116)"/>
<path style="fill:none;stroke-width:0.00984252;stroke-linecap:round;stroke-linejoin:miter;stroke:rgb(0%,0%,0%);stroke-opacity:1;stroke-miterlimit:10;" d="M 7.874001 -2.755882 L 7.874001 -4.645585 " transform="matrix(72,0,0,72,-555.908516,341.232116)"/>
<path style="fill:none;stroke-width:0.00984252;stroke-linecap:round;stroke-linejoin:miter;stroke:rgb(0%,0%,0%);stroke-opacity:1;stroke-miterlimit:10;" d="M 7.874001 -4.645585 L 10.826692 -4.645585 " transform="matrix(72,0,0,72,-555.908516,341.232116)"/>
<path style="fill:none;stroke-width:0.00984252;stroke-linecap:round;stroke-linejoin:miter;stroke:rgb(0%,0%,0%);stroke-opacity:1;stroke-miterlimit:10;" d="M 10.826692 -2.755882 L 10.826692 -4.645585 " transform="matrix(72,0,0,72,-555.908516,341.232116)"/>
<path style="fill:none;stroke-width:0.00984252;stroke-linecap:round;stroke-linejoin:miter;stroke:rgb(0%,0%,0%);stroke-opacity:1;stroke-miterlimit:10;" d="M 7.874001 -2.755882 L 10.826692 -2.755882 " transform="matrix(72,0,0,72,-555.908516,341.232116)"/>
</g>
</svg>
