G04 (created by PCBNEW (2013-mar-13)-testing) date jue 07 nov 2013 14:29:40 ART*
%MOIN*%
G04 Gerber Fmt 3.4, Leading zero omitted, Abs format*
%FSLAX34Y34*%
G01*
G70*
G90*
G04 APERTURE LIST*
%ADD10C,0.005906*%
%ADD11C,0.055000*%
%ADD12R,0.050000X0.060000*%
%ADD13O,0.059300X0.118700*%
%ADD14R,0.060000X0.060000*%
%ADD15C,0.060000*%
%ADD16C,0.066000*%
%ADD17C,0.059100*%
%ADD18R,0.055000X0.055000*%
%ADD19R,0.056000X0.056000*%
%ADD20C,0.056000*%
G04 APERTURE END LIST*
G54D10*
G54D11*
X81000Y-54000D03*
X84000Y-54000D03*
X75900Y-59300D03*
X72900Y-59300D03*
X84600Y-66700D03*
X81600Y-66700D03*
X76000Y-65900D03*
X79000Y-65900D03*
X69300Y-60800D03*
X69300Y-63800D03*
X78200Y-56900D03*
X78200Y-59900D03*
G54D12*
X74500Y-54500D03*
X74000Y-56500D03*
X73500Y-54500D03*
G54D13*
X70900Y-55200D03*
X69900Y-55200D03*
G54D14*
X72000Y-58000D03*
G54D15*
X71000Y-58000D03*
X70000Y-58000D03*
G54D14*
X90500Y-54000D03*
G54D15*
X90500Y-55000D03*
G54D14*
X78800Y-53700D03*
X76700Y-53700D03*
G54D16*
X82000Y-56500D03*
X82000Y-55500D03*
X84000Y-56500D03*
X84000Y-55500D03*
X86000Y-55500D03*
X86000Y-56500D03*
G54D17*
X78300Y-63100D03*
X78300Y-62100D03*
G54D18*
X87600Y-59100D03*
G54D11*
X87600Y-60100D03*
X87600Y-61100D03*
X87600Y-62100D03*
X87600Y-63100D03*
X87600Y-64100D03*
X87600Y-65100D03*
X90600Y-65100D03*
X90600Y-64100D03*
X90600Y-63100D03*
X90600Y-62100D03*
X90600Y-61100D03*
X90600Y-60100D03*
X90600Y-59100D03*
G54D18*
X70900Y-63800D03*
G54D11*
X70900Y-60800D03*
G54D18*
X72600Y-65900D03*
G54D11*
X72600Y-62900D03*
G54D18*
X74500Y-65900D03*
G54D11*
X74500Y-62900D03*
G54D18*
X88000Y-56900D03*
G54D11*
X91000Y-56900D03*
X88500Y-55000D03*
X88500Y-54000D03*
G54D19*
X83300Y-62500D03*
G54D20*
X83300Y-59500D03*
M02*
