G04 (created by PCBNEW (2013-june-11)-stable) date Fri 08 Nov 2013 23:00:49 ART*
%MOIN*%
G04 Gerber Fmt 3.4, Leading zero omitted, Abs format*
%FSLAX34Y34*%
G01*
G70*
G90*
G04 APERTURE LIST*
%ADD10C,0.00393701*%
%ADD11C,0.070748*%
%ADD12R,0.075748X0.075748*%
%ADD13C,0.075748*%
%ADD14C,0.081748*%
%ADD15C,0.074848*%
%ADD16R,0.070748X0.070748*%
%ADD17R,0.071748X0.071748*%
%ADD18C,0.071748*%
G04 APERTURE END LIST*
G54D10*
G54D11*
X105100Y-41600D03*
X108100Y-41600D03*
X98600Y-37100D03*
X98600Y-40100D03*
X101900Y-35800D03*
X101900Y-32800D03*
X99000Y-42200D03*
X102000Y-42200D03*
X97100Y-42800D03*
X97100Y-39800D03*
X105100Y-32300D03*
X105100Y-35300D03*
G54D12*
X97200Y-35300D03*
G54D13*
X97200Y-36300D03*
X97200Y-37300D03*
G54D12*
X105100Y-31100D03*
G54D13*
X106100Y-31100D03*
X107100Y-31100D03*
G54D12*
X112500Y-32300D03*
G54D13*
X112500Y-31300D03*
G54D12*
X102900Y-43900D03*
G54D13*
X101900Y-43900D03*
G54D12*
X112500Y-35800D03*
X100500Y-31500D03*
G54D14*
X103300Y-31400D03*
X102300Y-31400D03*
X108200Y-43000D03*
X108200Y-44000D03*
X105400Y-44100D03*
X105400Y-43100D03*
G54D15*
X108500Y-34500D03*
X107500Y-34500D03*
G54D16*
X105700Y-40000D03*
G54D11*
X106700Y-40000D03*
X107700Y-40000D03*
X108700Y-40000D03*
X109700Y-40000D03*
X110700Y-40000D03*
X111700Y-40000D03*
X111700Y-37000D03*
X110700Y-37000D03*
X109700Y-37000D03*
X108700Y-37000D03*
X107700Y-37000D03*
X106700Y-37000D03*
X105700Y-37000D03*
G54D16*
X102500Y-40100D03*
G54D11*
X102500Y-37100D03*
G54D16*
X100600Y-40100D03*
G54D11*
X100600Y-37100D03*
G54D16*
X98800Y-34300D03*
G54D11*
X98800Y-31300D03*
G54D16*
X108300Y-31000D03*
G54D11*
X111300Y-31000D03*
X111400Y-34000D03*
X112400Y-34000D03*
G54D17*
X111800Y-41700D03*
G54D18*
X111800Y-44700D03*
M02*
