G04 (created by PCBNEW (2013-june-11)-stable) date Tue 26 Nov 2013 22:50:24 ART*
%MOIN*%
G04 Gerber Fmt 3.4, Leading zero omitted, Abs format*
%FSLAX34Y34*%
G01*
G70*
G90*
G04 APERTURE LIST*
%ADD10C,0.00590551*%
%ADD11C,0.070748*%
%ADD12R,0.075748X0.075748*%
%ADD13C,0.075748*%
%ADD14C,0.081748*%
%ADD15C,0.074848*%
%ADD16R,0.070748X0.070748*%
%ADD17R,0.071748X0.071748*%
%ADD18C,0.071748*%
G04 APERTURE END LIST*
G54D10*
G54D11*
X89779Y-42500D03*
X89779Y-45500D03*
X84240Y-37000D03*
X84240Y-40000D03*
X87179Y-34920D03*
X87179Y-31920D03*
X83140Y-42459D03*
X86140Y-42459D03*
X80459Y-45220D03*
X80459Y-42220D03*
X91279Y-34420D03*
X91279Y-37420D03*
G54D12*
X82559Y-33200D03*
G54D13*
X82559Y-34200D03*
X82559Y-35200D03*
G54D12*
X92420Y-28920D03*
G54D13*
X93420Y-28920D03*
X94420Y-28920D03*
G54D12*
X106300Y-30540D03*
G54D13*
X106300Y-29540D03*
G54D12*
X87020Y-45359D03*
G54D13*
X86020Y-45359D03*
G54D12*
X106359Y-35640D03*
X86740Y-29580D03*
G54D14*
X90040Y-30320D03*
X89040Y-30320D03*
X98520Y-44159D03*
X98520Y-45159D03*
X93479Y-45159D03*
X93479Y-44159D03*
G54D15*
X97240Y-30560D03*
X97240Y-29560D03*
G54D16*
X95359Y-36920D03*
G54D11*
X96359Y-36920D03*
X97359Y-36920D03*
X98359Y-36920D03*
X99359Y-36920D03*
X100359Y-36920D03*
X101359Y-36920D03*
X101359Y-33920D03*
X100359Y-33920D03*
X99359Y-33920D03*
X98359Y-33920D03*
X97359Y-33920D03*
X96359Y-33920D03*
X95359Y-33920D03*
G54D16*
X95479Y-39320D03*
G54D11*
X95479Y-42320D03*
G54D16*
X87679Y-39860D03*
G54D11*
X87679Y-36860D03*
G54D16*
X81040Y-29360D03*
G54D11*
X84040Y-29360D03*
G54D16*
X100700Y-29220D03*
G54D11*
X103700Y-29220D03*
X105279Y-33220D03*
X106279Y-33220D03*
G54D17*
X104379Y-39979D03*
G54D18*
X104379Y-42979D03*
M02*
