M48
;DRILL file {Pcbnew (2013-june-11)-stable} date Tue 26 Nov 2013 22:50:33 ART
;FORMAT={-:-/ absolute / metric / decimal}
FMAT,2
METRIC,TZ
T1C0.800
T2C0.813
T3C1.016
%
G90
G05
M71
T1
X246.99Y-75.082
X246.99Y-77.622
T2
X204.368Y-107.239
X204.368Y-114.859
X205.842Y-74.574
X211.176Y-107.848
X213.462Y-74.574
X213.97Y-93.98
X213.97Y-101.6
X218.796Y-107.848
X221.437Y-81.077
X221.437Y-88.697
X222.707Y-93.624
X222.707Y-101.244
X226.162Y-77.013
X228.041Y-107.95
X228.041Y-115.57
X228.702Y-77.013
X231.851Y-87.427
X231.851Y-95.047
X237.439Y-112.166
X237.439Y-114.706
X242.214Y-86.157
X242.214Y-93.777
X242.519Y-99.873
X242.519Y-107.493
X244.754Y-86.157
X244.754Y-93.777
X247.294Y-86.157
X247.294Y-93.777
X249.834Y-86.157
X249.834Y-93.777
X250.241Y-112.166
X250.241Y-114.706
X252.374Y-86.157
X252.374Y-93.777
X254.914Y-86.157
X254.914Y-93.777
X255.778Y-74.219
X257.454Y-86.157
X257.454Y-93.777
X263.398Y-74.219
X265.125Y-101.549
X265.125Y-109.169
X267.411Y-84.379
X269.951Y-84.379
T3
X209.702Y-84.328
X209.702Y-86.868
X209.702Y-89.408
X218.491Y-115.214
X220.32Y-75.133
X221.031Y-115.214
X234.747Y-73.457
X237.287Y-73.457
X239.827Y-73.457
X270.002Y-75.032
X270.002Y-77.572
X270.154Y-90.526
T0
M30
