G04 (created by PCBNEW (2013-june-11)-stable) date Tue 26 Nov 2013 22:50:24 ART*
%MOIN*%
G04 Gerber Fmt 3.4, Leading zero omitted, Abs format*
%FSLAX34Y34*%
G01*
G70*
G90*
G04 APERTURE LIST*
%ADD10C,0.00590551*%
%ADD11C,0.008*%
%ADD12C,0.006*%
%ADD13C,0.01*%
%ADD14C,0.015*%
%ADD15C,0.012*%
%ADD16C,0.0125*%
%ADD17C,0.0035*%
%ADD18C,0.01125*%
G04 APERTURE END LIST*
G54D10*
G54D11*
X89779Y-42500D02*
X89779Y-42700D01*
X89779Y-45500D02*
X89779Y-45300D01*
X89779Y-45300D02*
X90179Y-45300D01*
X90179Y-45300D02*
X90179Y-42700D01*
X90179Y-42700D02*
X89379Y-42700D01*
X89379Y-42700D02*
X89379Y-45300D01*
X89379Y-45300D02*
X89779Y-45300D01*
X89979Y-42700D02*
X90179Y-42900D01*
X84240Y-37000D02*
X84240Y-37200D01*
X84240Y-40000D02*
X84240Y-39800D01*
X84240Y-39800D02*
X84640Y-39800D01*
X84640Y-39800D02*
X84640Y-37200D01*
X84640Y-37200D02*
X83840Y-37200D01*
X83840Y-37200D02*
X83840Y-39800D01*
X83840Y-39800D02*
X84240Y-39800D01*
X84440Y-37200D02*
X84640Y-37400D01*
X87179Y-34920D02*
X87179Y-34720D01*
X87179Y-31920D02*
X87179Y-32120D01*
X87179Y-32120D02*
X86779Y-32120D01*
X86779Y-32120D02*
X86779Y-34720D01*
X86779Y-34720D02*
X87579Y-34720D01*
X87579Y-34720D02*
X87579Y-32120D01*
X87579Y-32120D02*
X87179Y-32120D01*
X86979Y-34720D02*
X86779Y-34520D01*
X83140Y-42459D02*
X83340Y-42459D01*
X86140Y-42459D02*
X85940Y-42459D01*
X85940Y-42459D02*
X85940Y-42059D01*
X85940Y-42059D02*
X83340Y-42059D01*
X83340Y-42059D02*
X83340Y-42859D01*
X83340Y-42859D02*
X85940Y-42859D01*
X85940Y-42859D02*
X85940Y-42459D01*
X83340Y-42259D02*
X83540Y-42059D01*
X80459Y-45220D02*
X80459Y-45020D01*
X80459Y-42220D02*
X80459Y-42420D01*
X80459Y-42420D02*
X80059Y-42420D01*
X80059Y-42420D02*
X80059Y-45020D01*
X80059Y-45020D02*
X80859Y-45020D01*
X80859Y-45020D02*
X80859Y-42420D01*
X80859Y-42420D02*
X80459Y-42420D01*
X80259Y-45020D02*
X80059Y-44820D01*
X91279Y-34420D02*
X91279Y-34620D01*
X91279Y-37420D02*
X91279Y-37220D01*
X91279Y-37220D02*
X91679Y-37220D01*
X91679Y-37220D02*
X91679Y-34620D01*
X91679Y-34620D02*
X90879Y-34620D01*
X90879Y-34620D02*
X90879Y-37220D01*
X90879Y-37220D02*
X91279Y-37220D01*
X91479Y-34620D02*
X91679Y-34820D01*
G54D12*
X82059Y-32700D02*
X83059Y-32700D01*
X83059Y-32700D02*
X83059Y-35700D01*
X83059Y-35700D02*
X82059Y-35700D01*
X82059Y-35700D02*
X82059Y-32700D01*
X83059Y-33700D02*
X82059Y-33700D01*
X91920Y-29420D02*
X91920Y-28420D01*
X91920Y-28420D02*
X94920Y-28420D01*
X94920Y-28420D02*
X94920Y-29420D01*
X94920Y-29420D02*
X91920Y-29420D01*
X92920Y-28420D02*
X92920Y-29420D01*
X106800Y-31040D02*
X105800Y-31040D01*
X105800Y-31040D02*
X105800Y-29040D01*
X105800Y-29040D02*
X106800Y-29040D01*
X106800Y-29040D02*
X106800Y-31040D01*
X87520Y-44859D02*
X87520Y-45859D01*
X87520Y-45859D02*
X85520Y-45859D01*
X85520Y-45859D02*
X85520Y-44859D01*
X85520Y-44859D02*
X87520Y-44859D01*
X106859Y-36140D02*
X105859Y-36140D01*
X105859Y-35140D02*
X106859Y-35140D01*
X105859Y-36140D02*
X105859Y-35140D01*
X106859Y-35140D02*
X106859Y-36140D01*
X87240Y-30080D02*
X86240Y-30080D01*
X86240Y-29080D02*
X87240Y-29080D01*
X86240Y-30080D02*
X86240Y-29080D01*
X87240Y-29080D02*
X87240Y-30080D01*
G54D13*
X88820Y-29820D02*
X88820Y-30820D01*
G54D12*
X89901Y-30704D02*
G75*
G03X90040Y-30320I-460J384D01*
G74*
G01*
X90039Y-30320D02*
G75*
G03X89888Y-29922I-599J0D01*
G74*
G01*
X88840Y-30320D02*
G75*
G03X88985Y-30709I599J0D01*
G74*
G01*
X88979Y-29935D02*
G75*
G03X88840Y-30320I460J-384D01*
G74*
G01*
X88952Y-30669D02*
G75*
G03X89440Y-30920I487J349D01*
G74*
G01*
X89440Y-30920D02*
G75*
G03X89919Y-30680I0J600D01*
G74*
G01*
X89440Y-29720D02*
G75*
G03X88967Y-29951I0J-599D01*
G74*
G01*
X89913Y-29951D02*
G75*
G03X89440Y-29720I-473J-368D01*
G74*
G01*
X89440Y-30570D02*
G75*
G03X89690Y-30320I0J250D01*
G74*
G01*
X89440Y-30720D02*
G75*
G03X89840Y-30320I0J400D01*
G74*
G01*
X89440Y-30070D02*
G75*
G03X89190Y-30320I0J-250D01*
G74*
G01*
X89440Y-29920D02*
G75*
G03X89040Y-30320I0J-400D01*
G74*
G01*
G54D13*
X88826Y-30833D02*
G75*
G03X89440Y-31120I613J513D01*
G74*
G01*
X89440Y-31119D02*
G75*
G03X90144Y-30696I0J799D01*
G74*
G01*
X89438Y-29521D02*
G75*
G03X88829Y-29804I1J-798D01*
G74*
G01*
X90134Y-29922D02*
G75*
G03X89440Y-29520I-694J-397D01*
G74*
G01*
X90144Y-30699D02*
G75*
G03X90240Y-30320I-704J379D01*
G74*
G01*
X90239Y-30320D02*
G75*
G03X90121Y-29901I-799J0D01*
G74*
G01*
X98020Y-45379D02*
X99020Y-45379D01*
G54D12*
X98904Y-44298D02*
G75*
G03X98520Y-44159I-384J-460D01*
G74*
G01*
X98520Y-44160D02*
G75*
G03X98122Y-44311I0J-599D01*
G74*
G01*
X98520Y-45359D02*
G75*
G03X98910Y-45214I0J599D01*
G74*
G01*
X98136Y-45220D02*
G75*
G03X98520Y-45359I384J460D01*
G74*
G01*
X98869Y-45247D02*
G75*
G03X99120Y-44759I-349J487D01*
G74*
G01*
X99120Y-44759D02*
G75*
G03X98880Y-44280I-600J0D01*
G74*
G01*
X97920Y-44759D02*
G75*
G03X98151Y-45232I599J0D01*
G74*
G01*
X98151Y-44286D02*
G75*
G03X97920Y-44759I368J-473D01*
G74*
G01*
X98770Y-44759D02*
G75*
G03X98520Y-44509I-250J0D01*
G74*
G01*
X98920Y-44759D02*
G75*
G03X98520Y-44359I-400J0D01*
G74*
G01*
X98270Y-44759D02*
G75*
G03X98520Y-45009I250J0D01*
G74*
G01*
X98120Y-44759D02*
G75*
G03X98520Y-45159I400J0D01*
G74*
G01*
G54D13*
X99033Y-45373D02*
G75*
G03X99320Y-44759I-513J613D01*
G74*
G01*
X99319Y-44759D02*
G75*
G03X98896Y-44055I-799J0D01*
G74*
G01*
X97721Y-44761D02*
G75*
G03X98004Y-45370I798J1D01*
G74*
G01*
X98122Y-44065D02*
G75*
G03X97720Y-44759I397J-694D01*
G74*
G01*
X98899Y-44055D02*
G75*
G03X98520Y-43959I-379J-704D01*
G74*
G01*
X98520Y-43960D02*
G75*
G03X98101Y-44078I0J-799D01*
G74*
G01*
X93979Y-43939D02*
X92979Y-43939D01*
G54D12*
X93095Y-45020D02*
G75*
G03X93479Y-45159I384J460D01*
G74*
G01*
X93479Y-45159D02*
G75*
G03X93877Y-45007I0J599D01*
G74*
G01*
X93479Y-43960D02*
G75*
G03X93089Y-44104I0J-599D01*
G74*
G01*
X93863Y-44098D02*
G75*
G03X93479Y-43959I-384J-460D01*
G74*
G01*
X93130Y-44071D02*
G75*
G03X92879Y-44559I349J-487D01*
G74*
G01*
X92879Y-44559D02*
G75*
G03X93119Y-45039I600J0D01*
G74*
G01*
X94079Y-44559D02*
G75*
G03X93848Y-44086I-599J0D01*
G74*
G01*
X93848Y-45033D02*
G75*
G03X94079Y-44559I-368J473D01*
G74*
G01*
X93229Y-44559D02*
G75*
G03X93479Y-44809I250J0D01*
G74*
G01*
X93079Y-44559D02*
G75*
G03X93479Y-44959I400J0D01*
G74*
G01*
X93729Y-44559D02*
G75*
G03X93479Y-44309I-250J0D01*
G74*
G01*
X93879Y-44559D02*
G75*
G03X93479Y-44159I-400J0D01*
G74*
G01*
G54D13*
X92966Y-43946D02*
G75*
G03X92679Y-44559I513J-613D01*
G74*
G01*
X92680Y-44559D02*
G75*
G03X93103Y-45264I799J0D01*
G74*
G01*
X94278Y-44558D02*
G75*
G03X93995Y-43949I-798J-1D01*
G74*
G01*
X93877Y-45254D02*
G75*
G03X94279Y-44559I-397J694D01*
G74*
G01*
X93100Y-45264D02*
G75*
G03X93479Y-45359I379J704D01*
G74*
G01*
X93479Y-45359D02*
G75*
G03X93898Y-45240I0J799D01*
G74*
G01*
G54D14*
X97840Y-30060D02*
X97840Y-29640D01*
X98040Y-29860D02*
X97630Y-29860D01*
X98240Y-30060D02*
G75*
G03X98240Y-30060I-1000J0D01*
G74*
G01*
X94359Y-34420D02*
X102359Y-34420D01*
X102359Y-36420D02*
X94359Y-36420D01*
X94359Y-36420D02*
X94359Y-34420D01*
X94359Y-34920D02*
X94859Y-34920D01*
X94859Y-34920D02*
X94859Y-35920D01*
X94859Y-35920D02*
X94359Y-35920D01*
X102359Y-34420D02*
X102359Y-36420D01*
G54D15*
X95479Y-39320D02*
X95479Y-39620D01*
X95479Y-39620D02*
X95079Y-39620D01*
X95079Y-39620D02*
X95079Y-42020D01*
X95079Y-42020D02*
X95479Y-42020D01*
X95479Y-42020D02*
X95479Y-42320D01*
X95479Y-42020D02*
X95879Y-42020D01*
X95879Y-42020D02*
X95879Y-39620D01*
X95879Y-39620D02*
X95479Y-39620D01*
X95079Y-39820D02*
X95879Y-39820D01*
X95879Y-39920D02*
X95079Y-39920D01*
X87679Y-39860D02*
X87679Y-39560D01*
X87679Y-39560D02*
X88079Y-39560D01*
X88079Y-39560D02*
X88079Y-37160D01*
X88079Y-37160D02*
X87679Y-37160D01*
X87679Y-37160D02*
X87679Y-36860D01*
X87679Y-37160D02*
X87279Y-37160D01*
X87279Y-37160D02*
X87279Y-39560D01*
X87279Y-39560D02*
X87679Y-39560D01*
X88079Y-39360D02*
X87279Y-39360D01*
X87279Y-39260D02*
X88079Y-39260D01*
X81040Y-29360D02*
X81340Y-29360D01*
X81340Y-29360D02*
X81340Y-29760D01*
X81340Y-29760D02*
X83740Y-29760D01*
X83740Y-29760D02*
X83740Y-29360D01*
X83740Y-29360D02*
X84040Y-29360D01*
X83740Y-29360D02*
X83740Y-28960D01*
X83740Y-28960D02*
X81340Y-28960D01*
X81340Y-28960D02*
X81340Y-29360D01*
X81540Y-29760D02*
X81540Y-28960D01*
X81640Y-28960D02*
X81640Y-29760D01*
X100700Y-29220D02*
X101000Y-29220D01*
X101000Y-29220D02*
X101000Y-29620D01*
X101000Y-29620D02*
X103400Y-29620D01*
X103400Y-29620D02*
X103400Y-29220D01*
X103400Y-29220D02*
X103700Y-29220D01*
X103400Y-29220D02*
X103400Y-28820D01*
X103400Y-28820D02*
X101000Y-28820D01*
X101000Y-28820D02*
X101000Y-29220D01*
X101200Y-29620D02*
X101200Y-28820D01*
X101300Y-28820D02*
X101300Y-29620D01*
X104799Y-32720D02*
X106779Y-32720D01*
X106779Y-32720D02*
X106779Y-33720D01*
X106779Y-33720D02*
X104779Y-33720D01*
X104779Y-33720D02*
X104779Y-32720D01*
X104779Y-32970D02*
X105029Y-32720D01*
G54D16*
X106879Y-41479D02*
G75*
G03X106879Y-41479I-2500J0D01*
G74*
G01*
G54D11*
X90752Y-44033D02*
X90490Y-44200D01*
X90752Y-44319D02*
X90202Y-44319D01*
X90202Y-44128D01*
X90228Y-44080D01*
X90254Y-44057D01*
X90307Y-44033D01*
X90385Y-44033D01*
X90438Y-44057D01*
X90464Y-44080D01*
X90490Y-44128D01*
X90490Y-44319D01*
X90202Y-43580D02*
X90202Y-43819D01*
X90464Y-43842D01*
X90438Y-43819D01*
X90412Y-43771D01*
X90412Y-43652D01*
X90438Y-43604D01*
X90464Y-43580D01*
X90516Y-43557D01*
X90647Y-43557D01*
X90700Y-43580D01*
X90726Y-43604D01*
X90752Y-43652D01*
X90752Y-43771D01*
X90726Y-43819D01*
X90700Y-43842D01*
X89952Y-44345D02*
X89952Y-44630D01*
X89952Y-44488D02*
X89402Y-44488D01*
X89481Y-44535D01*
X89533Y-44583D01*
X89559Y-44630D01*
X89952Y-44130D02*
X89402Y-44130D01*
X89952Y-43845D02*
X89638Y-44059D01*
X89402Y-43845D02*
X89716Y-44130D01*
X89454Y-43654D02*
X89428Y-43630D01*
X89402Y-43583D01*
X89402Y-43464D01*
X89428Y-43416D01*
X89454Y-43392D01*
X89507Y-43369D01*
X89559Y-43369D01*
X89638Y-43392D01*
X89952Y-43678D01*
X89952Y-43369D01*
X85362Y-38483D02*
X85100Y-38650D01*
X85362Y-38769D02*
X84812Y-38769D01*
X84812Y-38578D01*
X84838Y-38530D01*
X84865Y-38507D01*
X84917Y-38483D01*
X84996Y-38483D01*
X85048Y-38507D01*
X85074Y-38530D01*
X85100Y-38578D01*
X85100Y-38769D01*
X85362Y-38007D02*
X85362Y-38292D01*
X85362Y-38150D02*
X84812Y-38150D01*
X84891Y-38197D01*
X84943Y-38245D01*
X84969Y-38292D01*
X84412Y-38845D02*
X84412Y-39130D01*
X84412Y-38988D02*
X83862Y-38988D01*
X83941Y-39035D01*
X83993Y-39083D01*
X84019Y-39130D01*
X83862Y-38535D02*
X83862Y-38488D01*
X83888Y-38440D01*
X83915Y-38416D01*
X83967Y-38392D01*
X84072Y-38369D01*
X84203Y-38369D01*
X84308Y-38392D01*
X84360Y-38416D01*
X84386Y-38440D01*
X84412Y-38488D01*
X84412Y-38535D01*
X84386Y-38583D01*
X84360Y-38607D01*
X84308Y-38630D01*
X84203Y-38654D01*
X84072Y-38654D01*
X83967Y-38630D01*
X83915Y-38607D01*
X83888Y-38583D01*
X83862Y-38535D01*
X84412Y-38154D02*
X83862Y-38154D01*
X84412Y-37869D02*
X84098Y-38083D01*
X83862Y-37869D02*
X84177Y-38154D01*
X88302Y-33403D02*
X88040Y-33570D01*
X88302Y-33689D02*
X87752Y-33689D01*
X87752Y-33498D01*
X87778Y-33450D01*
X87804Y-33427D01*
X87857Y-33403D01*
X87935Y-33403D01*
X87988Y-33427D01*
X88014Y-33450D01*
X88040Y-33498D01*
X88040Y-33689D01*
X87752Y-32974D02*
X87752Y-33070D01*
X87778Y-33117D01*
X87804Y-33141D01*
X87883Y-33189D01*
X87988Y-33212D01*
X88197Y-33212D01*
X88250Y-33189D01*
X88276Y-33165D01*
X88302Y-33117D01*
X88302Y-33022D01*
X88276Y-32974D01*
X88250Y-32950D01*
X88197Y-32927D01*
X88066Y-32927D01*
X88014Y-32950D01*
X87988Y-32974D01*
X87962Y-33022D01*
X87962Y-33117D01*
X87988Y-33165D01*
X88014Y-33189D01*
X88066Y-33212D01*
X87452Y-33765D02*
X87452Y-34050D01*
X87452Y-33908D02*
X86902Y-33908D01*
X86981Y-33955D01*
X87033Y-34003D01*
X87059Y-34050D01*
X87452Y-33550D02*
X86902Y-33550D01*
X87452Y-33265D02*
X87138Y-33479D01*
X86902Y-33265D02*
X87216Y-33550D01*
X86954Y-33074D02*
X86928Y-33050D01*
X86902Y-33003D01*
X86902Y-32884D01*
X86928Y-32836D01*
X86954Y-32812D01*
X87007Y-32789D01*
X87059Y-32789D01*
X87138Y-32812D01*
X87452Y-33098D01*
X87452Y-32789D01*
X84606Y-43532D02*
X84440Y-43270D01*
X84321Y-43532D02*
X84321Y-42982D01*
X84511Y-42982D01*
X84559Y-43008D01*
X84583Y-43034D01*
X84606Y-43087D01*
X84606Y-43165D01*
X84583Y-43218D01*
X84559Y-43244D01*
X84511Y-43270D01*
X84321Y-43270D01*
X85035Y-43165D02*
X85035Y-43532D01*
X84916Y-42956D02*
X84797Y-43349D01*
X85106Y-43349D01*
X84211Y-42365D02*
X84211Y-42732D01*
X84092Y-42156D02*
X83973Y-42549D01*
X84283Y-42549D01*
X84473Y-42732D02*
X84473Y-42182D01*
X84640Y-42575D01*
X84806Y-42182D01*
X84806Y-42732D01*
X84997Y-42182D02*
X85330Y-42182D01*
X85116Y-42732D01*
X81632Y-43753D02*
X81370Y-43920D01*
X81632Y-44039D02*
X81082Y-44039D01*
X81082Y-43848D01*
X81108Y-43801D01*
X81134Y-43777D01*
X81187Y-43753D01*
X81265Y-43753D01*
X81318Y-43777D01*
X81344Y-43801D01*
X81370Y-43848D01*
X81370Y-44039D01*
X81134Y-43562D02*
X81108Y-43539D01*
X81082Y-43491D01*
X81082Y-43372D01*
X81108Y-43324D01*
X81134Y-43301D01*
X81187Y-43277D01*
X81239Y-43277D01*
X81318Y-43301D01*
X81632Y-43586D01*
X81632Y-43277D01*
X80732Y-44065D02*
X80732Y-44351D01*
X80732Y-44208D02*
X80182Y-44208D01*
X80261Y-44255D01*
X80313Y-44303D01*
X80339Y-44351D01*
X80182Y-43755D02*
X80182Y-43708D01*
X80208Y-43660D01*
X80234Y-43636D01*
X80287Y-43612D01*
X80391Y-43589D01*
X80522Y-43589D01*
X80627Y-43612D01*
X80680Y-43636D01*
X80706Y-43660D01*
X80732Y-43708D01*
X80732Y-43755D01*
X80706Y-43803D01*
X80680Y-43827D01*
X80627Y-43851D01*
X80522Y-43874D01*
X80391Y-43874D01*
X80287Y-43851D01*
X80234Y-43827D01*
X80208Y-43803D01*
X80182Y-43755D01*
X80732Y-43374D02*
X80182Y-43374D01*
X80732Y-43089D02*
X80418Y-43303D01*
X80182Y-43089D02*
X80496Y-43374D01*
X90702Y-36053D02*
X90440Y-36220D01*
X90702Y-36339D02*
X90152Y-36339D01*
X90152Y-36148D01*
X90178Y-36100D01*
X90204Y-36077D01*
X90257Y-36053D01*
X90335Y-36053D01*
X90388Y-36077D01*
X90414Y-36100D01*
X90440Y-36148D01*
X90440Y-36339D01*
X90152Y-35886D02*
X90152Y-35577D01*
X90362Y-35743D01*
X90362Y-35672D01*
X90388Y-35624D01*
X90414Y-35600D01*
X90466Y-35577D01*
X90597Y-35577D01*
X90650Y-35600D01*
X90676Y-35624D01*
X90702Y-35672D01*
X90702Y-35815D01*
X90676Y-35862D01*
X90650Y-35886D01*
X91552Y-36315D02*
X91552Y-36600D01*
X91552Y-36458D02*
X91002Y-36458D01*
X91081Y-36505D01*
X91133Y-36553D01*
X91159Y-36600D01*
X91002Y-36005D02*
X91002Y-35958D01*
X91028Y-35910D01*
X91054Y-35886D01*
X91107Y-35862D01*
X91212Y-35839D01*
X91343Y-35839D01*
X91447Y-35862D01*
X91500Y-35886D01*
X91526Y-35910D01*
X91552Y-35958D01*
X91552Y-36005D01*
X91526Y-36053D01*
X91500Y-36077D01*
X91447Y-36100D01*
X91343Y-36124D01*
X91212Y-36124D01*
X91107Y-36100D01*
X91054Y-36077D01*
X91028Y-36053D01*
X91002Y-36005D01*
X91552Y-35624D02*
X91002Y-35624D01*
X91552Y-35339D02*
X91238Y-35553D01*
X91002Y-35339D02*
X91316Y-35624D01*
G54D12*
X82652Y-35133D02*
X82671Y-35076D01*
X82671Y-34980D01*
X82652Y-34942D01*
X82633Y-34923D01*
X82595Y-34904D01*
X82557Y-34904D01*
X82519Y-34923D01*
X82500Y-34942D01*
X82481Y-34980D01*
X82462Y-35057D01*
X82443Y-35095D01*
X82424Y-35114D01*
X82386Y-35133D01*
X82347Y-35133D01*
X82309Y-35114D01*
X82290Y-35095D01*
X82271Y-35057D01*
X82271Y-34961D01*
X82290Y-34904D01*
X82271Y-34771D02*
X82671Y-34676D01*
X82386Y-34600D01*
X82671Y-34523D01*
X82271Y-34428D01*
X82671Y-34066D02*
X82671Y-34295D01*
X82671Y-34180D02*
X82271Y-34180D01*
X82328Y-34219D01*
X82366Y-34257D01*
X82386Y-34295D01*
X83390Y-36609D02*
X83390Y-36799D01*
X82990Y-36799D01*
X83390Y-36418D02*
X83371Y-36456D01*
X83332Y-36475D01*
X82990Y-36475D01*
X83390Y-36094D02*
X83180Y-36094D01*
X83142Y-36113D01*
X83123Y-36152D01*
X83123Y-36228D01*
X83142Y-36266D01*
X83371Y-36094D02*
X83390Y-36132D01*
X83390Y-36228D01*
X83371Y-36266D01*
X83332Y-36285D01*
X83294Y-36285D01*
X83256Y-36266D01*
X83237Y-36228D01*
X83237Y-36132D01*
X83218Y-36094D01*
X83123Y-35942D02*
X83390Y-35847D01*
X83123Y-35752D01*
X83371Y-35447D02*
X83390Y-35485D01*
X83390Y-35561D01*
X83371Y-35599D01*
X83332Y-35618D01*
X83180Y-35618D01*
X83142Y-35599D01*
X83123Y-35561D01*
X83123Y-35485D01*
X83142Y-35447D01*
X83180Y-35428D01*
X83218Y-35428D01*
X83256Y-35618D01*
X83390Y-34952D02*
X82990Y-34952D01*
X83123Y-34761D02*
X83390Y-34761D01*
X83161Y-34761D02*
X83142Y-34742D01*
X83123Y-34704D01*
X83123Y-34647D01*
X83142Y-34609D01*
X83180Y-34590D01*
X83390Y-34590D01*
X83123Y-34437D02*
X83390Y-34342D01*
X83123Y-34247D01*
X83371Y-33942D02*
X83390Y-33980D01*
X83390Y-34056D01*
X83371Y-34094D01*
X83332Y-34113D01*
X83180Y-34113D01*
X83142Y-34094D01*
X83123Y-34056D01*
X83123Y-33980D01*
X83142Y-33942D01*
X83180Y-33923D01*
X83218Y-33923D01*
X83256Y-34113D01*
X83390Y-33752D02*
X83123Y-33752D01*
X83199Y-33752D02*
X83161Y-33732D01*
X83142Y-33713D01*
X83123Y-33675D01*
X83123Y-33637D01*
X83371Y-33523D02*
X83390Y-33485D01*
X83390Y-33409D01*
X83371Y-33371D01*
X83332Y-33352D01*
X83313Y-33352D01*
X83275Y-33371D01*
X83256Y-33409D01*
X83256Y-33466D01*
X83237Y-33504D01*
X83199Y-33523D01*
X83180Y-33523D01*
X83142Y-33504D01*
X83123Y-33466D01*
X83123Y-33409D01*
X83142Y-33371D01*
X83390Y-33123D02*
X83371Y-33161D01*
X83351Y-33180D01*
X83313Y-33199D01*
X83199Y-33199D01*
X83161Y-33180D01*
X83142Y-33161D01*
X83123Y-33123D01*
X83123Y-33066D01*
X83142Y-33028D01*
X83161Y-33009D01*
X83199Y-32990D01*
X83313Y-32990D01*
X83351Y-33009D01*
X83371Y-33028D01*
X83390Y-33066D01*
X83390Y-33123D01*
X83390Y-32818D02*
X83123Y-32818D01*
X83199Y-32818D02*
X83161Y-32799D01*
X83142Y-32780D01*
X83123Y-32742D01*
X83123Y-32704D01*
X83390Y-32399D02*
X83180Y-32399D01*
X83142Y-32418D01*
X83123Y-32456D01*
X83123Y-32532D01*
X83142Y-32571D01*
X83371Y-32399D02*
X83390Y-32437D01*
X83390Y-32532D01*
X83371Y-32571D01*
X83332Y-32590D01*
X83294Y-32590D01*
X83256Y-32571D01*
X83237Y-32532D01*
X83237Y-32437D01*
X83218Y-32399D01*
X92212Y-28281D02*
X92212Y-27881D01*
X92365Y-27881D01*
X92403Y-27900D01*
X92422Y-27920D01*
X92441Y-27958D01*
X92441Y-28015D01*
X92422Y-28053D01*
X92403Y-28072D01*
X92365Y-28091D01*
X92212Y-28091D01*
X92689Y-27881D02*
X92765Y-27881D01*
X92803Y-27900D01*
X92841Y-27939D01*
X92860Y-28015D01*
X92860Y-28148D01*
X92841Y-28224D01*
X92803Y-28262D01*
X92765Y-28281D01*
X92689Y-28281D01*
X92651Y-28262D01*
X92612Y-28224D01*
X92593Y-28148D01*
X92593Y-28015D01*
X92612Y-27939D01*
X92651Y-27900D01*
X92689Y-27881D01*
X92974Y-27881D02*
X93203Y-27881D01*
X93089Y-28281D02*
X93089Y-27881D01*
X93546Y-28281D02*
X93317Y-28281D01*
X93431Y-28281D02*
X93431Y-27881D01*
X93393Y-27939D01*
X93355Y-27977D01*
X93317Y-27996D01*
X94155Y-28281D02*
X93927Y-28281D01*
X94041Y-28281D02*
X94041Y-27881D01*
X94003Y-27939D01*
X93965Y-27977D01*
X93927Y-27996D01*
X94327Y-28281D02*
X94327Y-27881D01*
X94460Y-28167D01*
X94593Y-27881D01*
X94593Y-28281D01*
X105671Y-30261D02*
X105371Y-30261D01*
X105371Y-30147D01*
X105385Y-30118D01*
X105400Y-30104D01*
X105428Y-30090D01*
X105471Y-30090D01*
X105500Y-30104D01*
X105514Y-30118D01*
X105528Y-30147D01*
X105528Y-30261D01*
X105671Y-29804D02*
X105671Y-29975D01*
X105671Y-29890D02*
X105371Y-29890D01*
X105414Y-29918D01*
X105442Y-29947D01*
X105457Y-29975D01*
X107192Y-30625D02*
X107207Y-30640D01*
X107221Y-30682D01*
X107221Y-30711D01*
X107207Y-30754D01*
X107178Y-30782D01*
X107150Y-30797D01*
X107092Y-30811D01*
X107050Y-30811D01*
X106992Y-30797D01*
X106964Y-30782D01*
X106935Y-30754D01*
X106921Y-30711D01*
X106921Y-30682D01*
X106935Y-30640D01*
X106950Y-30625D01*
X106921Y-30440D02*
X106921Y-30382D01*
X106935Y-30354D01*
X106964Y-30325D01*
X107021Y-30311D01*
X107121Y-30311D01*
X107178Y-30325D01*
X107207Y-30354D01*
X107221Y-30382D01*
X107221Y-30440D01*
X107207Y-30468D01*
X107178Y-30497D01*
X107121Y-30511D01*
X107021Y-30511D01*
X106964Y-30497D01*
X106935Y-30468D01*
X106921Y-30440D01*
X107221Y-30182D02*
X106921Y-30182D01*
X107221Y-30011D01*
X106921Y-30011D01*
X107221Y-29868D02*
X106921Y-29868D01*
X107221Y-29697D01*
X106921Y-29697D01*
X107250Y-29625D02*
X107250Y-29397D01*
X106950Y-29339D02*
X106935Y-29325D01*
X106921Y-29297D01*
X106921Y-29225D01*
X106935Y-29197D01*
X106950Y-29182D01*
X106978Y-29168D01*
X107007Y-29168D01*
X107050Y-29182D01*
X107221Y-29354D01*
X107221Y-29168D01*
X85891Y-46231D02*
X85891Y-45931D01*
X86005Y-45931D01*
X86034Y-45945D01*
X86048Y-45959D01*
X86062Y-45988D01*
X86062Y-46031D01*
X86048Y-46059D01*
X86034Y-46074D01*
X86005Y-46088D01*
X85891Y-46088D01*
X86191Y-45931D02*
X86191Y-46174D01*
X86205Y-46202D01*
X86220Y-46216D01*
X86248Y-46231D01*
X86305Y-46231D01*
X86334Y-46216D01*
X86348Y-46202D01*
X86362Y-46174D01*
X86362Y-45931D01*
X86491Y-46216D02*
X86534Y-46231D01*
X86605Y-46231D01*
X86634Y-46216D01*
X86648Y-46202D01*
X86662Y-46174D01*
X86662Y-46145D01*
X86648Y-46116D01*
X86634Y-46102D01*
X86605Y-46088D01*
X86548Y-46074D01*
X86520Y-46059D01*
X86505Y-46045D01*
X86491Y-46016D01*
X86491Y-45988D01*
X86505Y-45959D01*
X86520Y-45945D01*
X86548Y-45931D01*
X86620Y-45931D01*
X86662Y-45945D01*
X86791Y-46231D02*
X86791Y-45931D01*
X86791Y-46074D02*
X86962Y-46074D01*
X86962Y-46231D02*
X86962Y-45931D01*
X87262Y-46231D02*
X87091Y-46231D01*
X87177Y-46231D02*
X87177Y-45931D01*
X87148Y-45974D01*
X87120Y-46002D01*
X87091Y-46016D01*
X85605Y-45531D02*
X85605Y-45231D01*
X85720Y-45231D01*
X85748Y-45245D01*
X85762Y-45259D01*
X85777Y-45288D01*
X85777Y-45331D01*
X85762Y-45359D01*
X85748Y-45374D01*
X85720Y-45388D01*
X85605Y-45388D01*
X86034Y-45331D02*
X86034Y-45531D01*
X85905Y-45331D02*
X85905Y-45488D01*
X85920Y-45516D01*
X85948Y-45531D01*
X85991Y-45531D01*
X86020Y-45516D01*
X86034Y-45502D01*
X86220Y-45531D02*
X86191Y-45516D01*
X86177Y-45488D01*
X86177Y-45231D01*
X86320Y-45516D02*
X86348Y-45531D01*
X86405Y-45531D01*
X86434Y-45516D01*
X86448Y-45488D01*
X86448Y-45474D01*
X86434Y-45445D01*
X86405Y-45431D01*
X86362Y-45431D01*
X86334Y-45416D01*
X86320Y-45388D01*
X86320Y-45374D01*
X86334Y-45345D01*
X86362Y-45331D01*
X86405Y-45331D01*
X86434Y-45345D01*
X86705Y-45531D02*
X86705Y-45374D01*
X86691Y-45345D01*
X86662Y-45331D01*
X86605Y-45331D01*
X86577Y-45345D01*
X86705Y-45516D02*
X86677Y-45531D01*
X86605Y-45531D01*
X86577Y-45516D01*
X86562Y-45488D01*
X86562Y-45459D01*
X86577Y-45431D01*
X86605Y-45416D01*
X86677Y-45416D01*
X86705Y-45402D01*
X86977Y-45531D02*
X86977Y-45231D01*
X86977Y-45516D02*
X86948Y-45531D01*
X86891Y-45531D01*
X86862Y-45516D01*
X86848Y-45502D01*
X86834Y-45474D01*
X86834Y-45388D01*
X86848Y-45359D01*
X86862Y-45345D01*
X86891Y-45331D01*
X86948Y-45331D01*
X86977Y-45345D01*
X87162Y-45531D02*
X87134Y-45516D01*
X87120Y-45502D01*
X87105Y-45474D01*
X87105Y-45388D01*
X87120Y-45359D01*
X87134Y-45345D01*
X87162Y-45331D01*
X87205Y-45331D01*
X87234Y-45345D01*
X87248Y-45359D01*
X87262Y-45388D01*
X87262Y-45474D01*
X87248Y-45502D01*
X87234Y-45516D01*
X87205Y-45531D01*
X87162Y-45531D01*
X87391Y-45531D02*
X87391Y-45331D01*
X87391Y-45388D02*
X87405Y-45359D01*
X87420Y-45345D01*
X87448Y-45331D01*
X87477Y-45331D01*
X107281Y-35811D02*
X106981Y-35811D01*
X106981Y-35697D01*
X106995Y-35668D01*
X107009Y-35654D01*
X107038Y-35640D01*
X107081Y-35640D01*
X107109Y-35654D01*
X107124Y-35668D01*
X107138Y-35697D01*
X107138Y-35811D01*
X106981Y-35540D02*
X106981Y-35354D01*
X107095Y-35454D01*
X107095Y-35411D01*
X107109Y-35382D01*
X107124Y-35368D01*
X107152Y-35354D01*
X107224Y-35354D01*
X107252Y-35368D01*
X107266Y-35382D01*
X107281Y-35411D01*
X107281Y-35497D01*
X107266Y-35525D01*
X107252Y-35540D01*
X105724Y-34982D02*
X105709Y-34997D01*
X105666Y-35011D01*
X105638Y-35011D01*
X105595Y-34997D01*
X105566Y-34968D01*
X105552Y-34940D01*
X105538Y-34882D01*
X105538Y-34840D01*
X105552Y-34782D01*
X105566Y-34754D01*
X105595Y-34725D01*
X105638Y-34711D01*
X105666Y-34711D01*
X105709Y-34725D01*
X105724Y-34740D01*
X105909Y-34711D02*
X105966Y-34711D01*
X105995Y-34725D01*
X106024Y-34754D01*
X106038Y-34811D01*
X106038Y-34911D01*
X106024Y-34968D01*
X105995Y-34997D01*
X105966Y-35011D01*
X105909Y-35011D01*
X105881Y-34997D01*
X105852Y-34968D01*
X105838Y-34911D01*
X105838Y-34811D01*
X105852Y-34754D01*
X105881Y-34725D01*
X105909Y-34711D01*
X106166Y-35011D02*
X106166Y-34711D01*
X106338Y-35011D01*
X106338Y-34711D01*
X106481Y-35011D02*
X106481Y-34711D01*
X106652Y-35011D01*
X106652Y-34711D01*
X106724Y-35040D02*
X106952Y-35040D01*
X107181Y-35011D02*
X107009Y-35011D01*
X107095Y-35011D02*
X107095Y-34711D01*
X107066Y-34754D01*
X107038Y-34782D01*
X107009Y-34797D01*
X86518Y-29701D02*
X86518Y-29401D01*
X86633Y-29401D01*
X86661Y-29415D01*
X86675Y-29430D01*
X86690Y-29458D01*
X86690Y-29501D01*
X86675Y-29530D01*
X86661Y-29544D01*
X86633Y-29558D01*
X86518Y-29558D01*
X86804Y-29430D02*
X86818Y-29415D01*
X86847Y-29401D01*
X86918Y-29401D01*
X86947Y-29415D01*
X86961Y-29430D01*
X86975Y-29458D01*
X86975Y-29487D01*
X86961Y-29530D01*
X86790Y-29701D01*
X86975Y-29701D01*
X86104Y-28922D02*
X86090Y-28937D01*
X86047Y-28951D01*
X86018Y-28951D01*
X85975Y-28937D01*
X85947Y-28908D01*
X85933Y-28880D01*
X85918Y-28822D01*
X85918Y-28780D01*
X85933Y-28722D01*
X85947Y-28694D01*
X85975Y-28665D01*
X86018Y-28651D01*
X86047Y-28651D01*
X86090Y-28665D01*
X86104Y-28680D01*
X86290Y-28651D02*
X86347Y-28651D01*
X86375Y-28665D01*
X86404Y-28694D01*
X86418Y-28751D01*
X86418Y-28851D01*
X86404Y-28908D01*
X86375Y-28937D01*
X86347Y-28951D01*
X86290Y-28951D01*
X86261Y-28937D01*
X86233Y-28908D01*
X86218Y-28851D01*
X86218Y-28751D01*
X86233Y-28694D01*
X86261Y-28665D01*
X86290Y-28651D01*
X86547Y-28951D02*
X86547Y-28651D01*
X86718Y-28951D01*
X86718Y-28651D01*
X86861Y-28951D02*
X86861Y-28651D01*
X87033Y-28951D01*
X87033Y-28651D01*
X87104Y-28980D02*
X87333Y-28980D01*
X87561Y-28951D02*
X87390Y-28951D01*
X87475Y-28951D02*
X87475Y-28651D01*
X87447Y-28694D01*
X87418Y-28722D01*
X87390Y-28737D01*
G54D17*
X89318Y-31591D02*
X89318Y-31291D01*
X89390Y-31291D01*
X89433Y-31305D01*
X89461Y-31334D01*
X89475Y-31362D01*
X89490Y-31420D01*
X89490Y-31462D01*
X89475Y-31520D01*
X89461Y-31548D01*
X89433Y-31577D01*
X89390Y-31591D01*
X89318Y-31591D01*
X89590Y-31291D02*
X89790Y-31291D01*
X89661Y-31591D01*
X88675Y-29355D02*
X88818Y-29355D01*
X88647Y-29441D02*
X88747Y-29141D01*
X88847Y-29441D01*
X88947Y-29441D02*
X88947Y-29241D01*
X88947Y-29270D02*
X88961Y-29255D01*
X88990Y-29241D01*
X89033Y-29241D01*
X89061Y-29255D01*
X89075Y-29284D01*
X89075Y-29441D01*
X89075Y-29284D02*
X89090Y-29255D01*
X89118Y-29241D01*
X89161Y-29241D01*
X89190Y-29255D01*
X89204Y-29284D01*
X89204Y-29441D01*
X89475Y-29441D02*
X89475Y-29284D01*
X89461Y-29255D01*
X89433Y-29241D01*
X89375Y-29241D01*
X89347Y-29255D01*
X89475Y-29427D02*
X89447Y-29441D01*
X89375Y-29441D01*
X89347Y-29427D01*
X89333Y-29398D01*
X89333Y-29370D01*
X89347Y-29341D01*
X89375Y-29327D01*
X89447Y-29327D01*
X89475Y-29312D01*
X89618Y-29441D02*
X89618Y-29241D01*
X89618Y-29298D02*
X89633Y-29270D01*
X89647Y-29255D01*
X89675Y-29241D01*
X89704Y-29241D01*
X89804Y-29441D02*
X89804Y-29241D01*
X89804Y-29141D02*
X89790Y-29155D01*
X89804Y-29170D01*
X89818Y-29155D01*
X89804Y-29141D01*
X89804Y-29170D01*
X89990Y-29441D02*
X89961Y-29427D01*
X89947Y-29398D01*
X89947Y-29141D01*
X90147Y-29441D02*
X90118Y-29427D01*
X90104Y-29398D01*
X90104Y-29141D01*
X90304Y-29441D02*
X90275Y-29427D01*
X90261Y-29412D01*
X90247Y-29384D01*
X90247Y-29298D01*
X90261Y-29270D01*
X90275Y-29255D01*
X90304Y-29241D01*
X90347Y-29241D01*
X90375Y-29255D01*
X90390Y-29270D01*
X90404Y-29298D01*
X90404Y-29384D01*
X90390Y-29412D01*
X90375Y-29427D01*
X90347Y-29441D01*
X90304Y-29441D01*
X99741Y-45581D02*
X99441Y-45581D01*
X99441Y-45509D01*
X99455Y-45466D01*
X99484Y-45438D01*
X99512Y-45424D01*
X99570Y-45409D01*
X99612Y-45409D01*
X99670Y-45424D01*
X99698Y-45438D01*
X99727Y-45466D01*
X99741Y-45509D01*
X99741Y-45581D01*
X99441Y-45138D02*
X99441Y-45281D01*
X99584Y-45295D01*
X99570Y-45281D01*
X99555Y-45252D01*
X99555Y-45181D01*
X99570Y-45152D01*
X99584Y-45138D01*
X99612Y-45124D01*
X99684Y-45124D01*
X99712Y-45138D01*
X99727Y-45152D01*
X99741Y-45181D01*
X99741Y-45252D01*
X99727Y-45281D01*
X99712Y-45295D01*
X97641Y-44909D02*
X97498Y-45009D01*
X97641Y-45081D02*
X97341Y-45081D01*
X97341Y-44966D01*
X97355Y-44938D01*
X97370Y-44924D01*
X97398Y-44909D01*
X97441Y-44909D01*
X97470Y-44924D01*
X97484Y-44938D01*
X97498Y-44966D01*
X97498Y-45081D01*
X97641Y-44738D02*
X97627Y-44766D01*
X97612Y-44781D01*
X97584Y-44795D01*
X97498Y-44795D01*
X97470Y-44781D01*
X97455Y-44766D01*
X97441Y-44738D01*
X97441Y-44695D01*
X97455Y-44666D01*
X97470Y-44652D01*
X97498Y-44638D01*
X97584Y-44638D01*
X97612Y-44652D01*
X97627Y-44666D01*
X97641Y-44695D01*
X97641Y-44738D01*
X97441Y-44509D02*
X97698Y-44509D01*
X97727Y-44524D01*
X97741Y-44552D01*
X97741Y-44566D01*
X97341Y-44509D02*
X97355Y-44524D01*
X97370Y-44509D01*
X97355Y-44495D01*
X97341Y-44509D01*
X97370Y-44509D01*
X97641Y-44324D02*
X97627Y-44352D01*
X97612Y-44366D01*
X97584Y-44381D01*
X97498Y-44381D01*
X97470Y-44366D01*
X97455Y-44352D01*
X97441Y-44324D01*
X97441Y-44281D01*
X97455Y-44252D01*
X97470Y-44238D01*
X97498Y-44224D01*
X97584Y-44224D01*
X97612Y-44238D01*
X97627Y-44252D01*
X97641Y-44281D01*
X97641Y-44324D01*
X92501Y-44181D02*
X92201Y-44181D01*
X92201Y-44109D01*
X92215Y-44066D01*
X92244Y-44038D01*
X92272Y-44024D01*
X92329Y-44009D01*
X92372Y-44009D01*
X92429Y-44024D01*
X92458Y-44038D01*
X92487Y-44066D01*
X92501Y-44109D01*
X92501Y-44181D01*
X92201Y-43752D02*
X92201Y-43809D01*
X92215Y-43838D01*
X92229Y-43852D01*
X92272Y-43881D01*
X92329Y-43895D01*
X92444Y-43895D01*
X92472Y-43881D01*
X92487Y-43866D01*
X92501Y-43838D01*
X92501Y-43781D01*
X92487Y-43752D01*
X92472Y-43738D01*
X92444Y-43724D01*
X92372Y-43724D01*
X92344Y-43738D01*
X92329Y-43752D01*
X92315Y-43781D01*
X92315Y-43838D01*
X92329Y-43866D01*
X92344Y-43881D01*
X92372Y-43895D01*
X94301Y-45245D02*
X94601Y-45145D01*
X94301Y-45045D01*
X94587Y-44831D02*
X94601Y-44859D01*
X94601Y-44916D01*
X94587Y-44945D01*
X94558Y-44959D01*
X94444Y-44959D01*
X94415Y-44945D01*
X94401Y-44916D01*
X94401Y-44859D01*
X94415Y-44831D01*
X94444Y-44816D01*
X94472Y-44816D01*
X94501Y-44959D01*
X94601Y-44688D02*
X94401Y-44688D01*
X94458Y-44688D02*
X94429Y-44674D01*
X94415Y-44659D01*
X94401Y-44631D01*
X94401Y-44602D01*
X94601Y-44374D02*
X94301Y-44374D01*
X94587Y-44374D02*
X94601Y-44402D01*
X94601Y-44459D01*
X94587Y-44488D01*
X94572Y-44502D01*
X94544Y-44516D01*
X94458Y-44516D01*
X94429Y-44502D01*
X94415Y-44488D01*
X94401Y-44459D01*
X94401Y-44402D01*
X94415Y-44374D01*
X94587Y-44116D02*
X94601Y-44145D01*
X94601Y-44202D01*
X94587Y-44231D01*
X94558Y-44245D01*
X94444Y-44245D01*
X94415Y-44231D01*
X94401Y-44202D01*
X94401Y-44145D01*
X94415Y-44116D01*
X94444Y-44102D01*
X94472Y-44102D01*
X94501Y-44245D01*
G54D15*
X98925Y-30160D02*
X98954Y-30188D01*
X98983Y-30274D01*
X98983Y-30331D01*
X98954Y-30417D01*
X98897Y-30474D01*
X98840Y-30502D01*
X98725Y-30531D01*
X98640Y-30531D01*
X98525Y-30502D01*
X98468Y-30474D01*
X98411Y-30417D01*
X98383Y-30331D01*
X98383Y-30274D01*
X98411Y-30188D01*
X98440Y-30160D01*
X98440Y-29931D02*
X98411Y-29902D01*
X98383Y-29845D01*
X98383Y-29702D01*
X98411Y-29645D01*
X98440Y-29617D01*
X98497Y-29588D01*
X98554Y-29588D01*
X98640Y-29617D01*
X98983Y-29960D01*
X98983Y-29588D01*
X95983Y-30645D02*
X95983Y-30988D01*
X95983Y-30817D02*
X95383Y-30817D01*
X95468Y-30874D01*
X95525Y-30931D01*
X95554Y-30988D01*
X95583Y-29674D02*
X95983Y-29674D01*
X95583Y-29931D02*
X95897Y-29931D01*
X95954Y-29902D01*
X95983Y-29845D01*
X95983Y-29759D01*
X95954Y-29702D01*
X95925Y-29674D01*
X95668Y-29188D02*
X95668Y-29388D01*
X95983Y-29388D02*
X95383Y-29388D01*
X95383Y-29102D01*
G54D18*
X96016Y-34562D02*
X96016Y-35048D01*
X96038Y-35105D01*
X96059Y-35134D01*
X96102Y-35162D01*
X96188Y-35162D01*
X96231Y-35134D01*
X96252Y-35105D01*
X96274Y-35048D01*
X96274Y-34562D01*
X96724Y-35162D02*
X96466Y-35162D01*
X96595Y-35162D02*
X96595Y-34562D01*
X96552Y-34648D01*
X96509Y-34705D01*
X96466Y-34734D01*
G54D15*
G54D18*
X98088Y-35762D02*
X98088Y-36162D01*
X97981Y-35534D02*
X97874Y-35962D01*
X98152Y-35962D01*
X98409Y-35562D02*
X98452Y-35562D01*
X98495Y-35591D01*
X98516Y-35620D01*
X98538Y-35677D01*
X98559Y-35791D01*
X98559Y-35934D01*
X98538Y-36048D01*
X98516Y-36105D01*
X98495Y-36134D01*
X98452Y-36162D01*
X98409Y-36162D01*
X98366Y-36134D01*
X98345Y-36105D01*
X98324Y-36048D01*
X98302Y-35934D01*
X98302Y-35791D01*
X98324Y-35677D01*
X98345Y-35620D01*
X98366Y-35591D01*
X98409Y-35562D01*
X98988Y-36162D02*
X98731Y-36162D01*
X98859Y-36162D02*
X98859Y-35562D01*
X98816Y-35648D01*
X98774Y-35705D01*
X98731Y-35734D01*
X99266Y-35562D02*
X99309Y-35562D01*
X99352Y-35591D01*
X99374Y-35620D01*
X99395Y-35677D01*
X99416Y-35791D01*
X99416Y-35934D01*
X99395Y-36048D01*
X99374Y-36105D01*
X99352Y-36134D01*
X99309Y-36162D01*
X99266Y-36162D01*
X99224Y-36134D01*
X99202Y-36105D01*
X99181Y-36048D01*
X99159Y-35934D01*
X99159Y-35791D01*
X99181Y-35677D01*
X99202Y-35620D01*
X99224Y-35591D01*
X99266Y-35562D01*
X99802Y-35562D02*
X99716Y-35562D01*
X99674Y-35591D01*
X99652Y-35620D01*
X99609Y-35705D01*
X99588Y-35820D01*
X99588Y-36048D01*
X99609Y-36105D01*
X99631Y-36134D01*
X99674Y-36162D01*
X99759Y-36162D01*
X99802Y-36134D01*
X99824Y-36105D01*
X99845Y-36048D01*
X99845Y-35905D01*
X99824Y-35848D01*
X99802Y-35820D01*
X99759Y-35791D01*
X99674Y-35791D01*
X99631Y-35820D01*
X99609Y-35848D01*
X99588Y-35905D01*
G54D15*
G54D11*
X95184Y-40931D02*
X95184Y-40531D01*
X95279Y-40531D01*
X95337Y-40551D01*
X95375Y-40589D01*
X95394Y-40627D01*
X95413Y-40703D01*
X95413Y-40760D01*
X95394Y-40836D01*
X95375Y-40874D01*
X95337Y-40912D01*
X95279Y-40931D01*
X95184Y-40931D01*
X95546Y-40531D02*
X95794Y-40531D01*
X95660Y-40684D01*
X95718Y-40684D01*
X95756Y-40703D01*
X95775Y-40722D01*
X95794Y-40760D01*
X95794Y-40855D01*
X95775Y-40893D01*
X95756Y-40912D01*
X95718Y-40931D01*
X95603Y-40931D01*
X95565Y-40912D01*
X95546Y-40893D01*
X94441Y-42529D02*
X94441Y-42262D01*
X94841Y-42529D01*
X94841Y-42262D01*
X94632Y-42110D02*
X94632Y-41977D01*
X94841Y-41920D02*
X94841Y-42110D01*
X94441Y-42110D01*
X94441Y-41920D01*
X94841Y-41748D02*
X94441Y-41748D01*
X94841Y-41520D01*
X94441Y-41520D01*
X94632Y-41329D02*
X94632Y-41196D01*
X94841Y-41139D02*
X94841Y-41329D01*
X94441Y-41329D01*
X94441Y-41139D01*
X94841Y-40739D02*
X94651Y-40872D01*
X94841Y-40967D02*
X94441Y-40967D01*
X94441Y-40815D01*
X94460Y-40777D01*
X94479Y-40758D01*
X94518Y-40739D01*
X94575Y-40739D01*
X94613Y-40758D01*
X94632Y-40777D01*
X94651Y-40815D01*
X94651Y-40967D01*
X94841Y-40053D02*
X94841Y-40281D01*
X94841Y-40167D02*
X94441Y-40167D01*
X94498Y-40205D01*
X94537Y-40243D01*
X94556Y-40281D01*
X94479Y-39901D02*
X94460Y-39881D01*
X94441Y-39843D01*
X94441Y-39748D01*
X94460Y-39710D01*
X94479Y-39691D01*
X94518Y-39672D01*
X94556Y-39672D01*
X94613Y-39691D01*
X94841Y-39920D01*
X94841Y-39672D01*
X94441Y-39558D02*
X94841Y-39424D01*
X94441Y-39291D01*
X87841Y-38555D02*
X87441Y-38555D01*
X87441Y-38459D01*
X87460Y-38402D01*
X87498Y-38364D01*
X87537Y-38345D01*
X87613Y-38326D01*
X87670Y-38326D01*
X87746Y-38345D01*
X87784Y-38364D01*
X87822Y-38402D01*
X87841Y-38459D01*
X87841Y-38555D01*
X87479Y-38174D02*
X87460Y-38155D01*
X87441Y-38117D01*
X87441Y-38021D01*
X87460Y-37983D01*
X87479Y-37964D01*
X87518Y-37945D01*
X87556Y-37945D01*
X87613Y-37964D01*
X87841Y-38193D01*
X87841Y-37945D01*
X88291Y-39919D02*
X88291Y-39652D01*
X88691Y-39919D01*
X88691Y-39652D01*
X88482Y-39500D02*
X88482Y-39367D01*
X88691Y-39310D02*
X88691Y-39500D01*
X88291Y-39500D01*
X88291Y-39310D01*
X88691Y-39138D02*
X88291Y-39138D01*
X88691Y-38910D01*
X88291Y-38910D01*
X88482Y-38719D02*
X88482Y-38586D01*
X88691Y-38529D02*
X88691Y-38719D01*
X88291Y-38719D01*
X88291Y-38529D01*
X88691Y-38129D02*
X88501Y-38262D01*
X88691Y-38357D02*
X88291Y-38357D01*
X88291Y-38205D01*
X88310Y-38167D01*
X88329Y-38148D01*
X88368Y-38129D01*
X88425Y-38129D01*
X88463Y-38148D01*
X88482Y-38167D01*
X88501Y-38205D01*
X88501Y-38357D01*
X88691Y-37443D02*
X88691Y-37671D01*
X88691Y-37557D02*
X88291Y-37557D01*
X88348Y-37595D01*
X88387Y-37633D01*
X88406Y-37671D01*
X88329Y-37290D02*
X88310Y-37271D01*
X88291Y-37233D01*
X88291Y-37138D01*
X88310Y-37100D01*
X88329Y-37081D01*
X88368Y-37062D01*
X88406Y-37062D01*
X88463Y-37081D01*
X88691Y-37310D01*
X88691Y-37062D01*
X88291Y-36948D02*
X88691Y-36814D01*
X88291Y-36681D01*
X82244Y-30321D02*
X82244Y-29921D01*
X82340Y-29921D01*
X82397Y-29940D01*
X82435Y-29979D01*
X82454Y-30017D01*
X82473Y-30093D01*
X82473Y-30150D01*
X82454Y-30226D01*
X82435Y-30264D01*
X82397Y-30302D01*
X82340Y-30321D01*
X82244Y-30321D01*
X82816Y-30055D02*
X82816Y-30321D01*
X82721Y-29902D02*
X82625Y-30188D01*
X82873Y-30188D01*
X82044Y-29255D02*
X82044Y-29521D01*
X81949Y-29102D02*
X81854Y-29388D01*
X82102Y-29388D01*
X82463Y-29521D02*
X82235Y-29521D01*
X82349Y-29521D02*
X82349Y-29121D01*
X82311Y-29179D01*
X82273Y-29217D01*
X82235Y-29236D01*
X82806Y-29255D02*
X82806Y-29521D01*
X82711Y-29102D02*
X82616Y-29388D01*
X82863Y-29388D01*
X83073Y-29293D02*
X83035Y-29274D01*
X83016Y-29255D01*
X82997Y-29217D01*
X82997Y-29198D01*
X83016Y-29160D01*
X83035Y-29140D01*
X83073Y-29121D01*
X83149Y-29121D01*
X83187Y-29140D01*
X83206Y-29160D01*
X83225Y-29198D01*
X83225Y-29217D01*
X83206Y-29255D01*
X83187Y-29274D01*
X83149Y-29293D01*
X83073Y-29293D01*
X83035Y-29312D01*
X83016Y-29331D01*
X82997Y-29369D01*
X82997Y-29445D01*
X83016Y-29483D01*
X83035Y-29502D01*
X83073Y-29521D01*
X83149Y-29521D01*
X83187Y-29502D01*
X83206Y-29483D01*
X83225Y-29445D01*
X83225Y-29369D01*
X83206Y-29331D01*
X83187Y-29312D01*
X83149Y-29293D01*
X101954Y-28631D02*
X101954Y-28231D01*
X102050Y-28231D01*
X102107Y-28250D01*
X102145Y-28289D01*
X102164Y-28327D01*
X102183Y-28403D01*
X102183Y-28460D01*
X102164Y-28536D01*
X102145Y-28574D01*
X102107Y-28612D01*
X102050Y-28631D01*
X101954Y-28631D01*
X102564Y-28631D02*
X102335Y-28631D01*
X102450Y-28631D02*
X102450Y-28231D01*
X102411Y-28289D01*
X102373Y-28327D01*
X102335Y-28346D01*
X101342Y-29381D02*
X101114Y-29381D01*
X101228Y-29381D02*
X101228Y-28981D01*
X101190Y-29039D01*
X101152Y-29077D01*
X101114Y-29096D01*
X101514Y-29381D02*
X101514Y-28981D01*
X101742Y-29381D01*
X101742Y-28981D01*
X102104Y-29115D02*
X102104Y-29381D01*
X102009Y-28962D02*
X101914Y-29248D01*
X102161Y-29248D01*
X102390Y-28981D02*
X102428Y-28981D01*
X102466Y-29000D01*
X102485Y-29020D01*
X102504Y-29058D01*
X102523Y-29134D01*
X102523Y-29229D01*
X102504Y-29305D01*
X102485Y-29343D01*
X102466Y-29362D01*
X102428Y-29381D01*
X102390Y-29381D01*
X102352Y-29362D01*
X102333Y-29343D01*
X102314Y-29305D01*
X102295Y-29229D01*
X102295Y-29134D01*
X102314Y-29058D01*
X102333Y-29020D01*
X102352Y-29000D01*
X102390Y-28981D01*
X102771Y-28981D02*
X102809Y-28981D01*
X102847Y-29000D01*
X102866Y-29020D01*
X102885Y-29058D01*
X102904Y-29134D01*
X102904Y-29229D01*
X102885Y-29305D01*
X102866Y-29343D01*
X102847Y-29362D01*
X102809Y-29381D01*
X102771Y-29381D01*
X102733Y-29362D01*
X102714Y-29343D01*
X102695Y-29305D01*
X102676Y-29229D01*
X102676Y-29134D01*
X102695Y-29058D01*
X102714Y-29020D01*
X102733Y-29000D01*
X102771Y-28981D01*
X103038Y-28981D02*
X103304Y-28981D01*
X103133Y-29381D01*
X107303Y-33236D02*
X107322Y-33255D01*
X107341Y-33312D01*
X107341Y-33350D01*
X107322Y-33408D01*
X107284Y-33446D01*
X107246Y-33465D01*
X107170Y-33484D01*
X107113Y-33484D01*
X107037Y-33465D01*
X106998Y-33446D01*
X106960Y-33408D01*
X106941Y-33350D01*
X106941Y-33312D01*
X106960Y-33255D01*
X106979Y-33236D01*
X107341Y-32855D02*
X107341Y-33084D01*
X107341Y-32969D02*
X106941Y-32969D01*
X106998Y-33008D01*
X107037Y-33046D01*
X107056Y-33084D01*
X104265Y-32181D02*
X104303Y-32181D01*
X104341Y-32200D01*
X104360Y-32220D01*
X104379Y-32258D01*
X104398Y-32334D01*
X104398Y-32429D01*
X104379Y-32505D01*
X104360Y-32543D01*
X104341Y-32562D01*
X104303Y-32581D01*
X104265Y-32581D01*
X104227Y-32562D01*
X104208Y-32543D01*
X104189Y-32505D01*
X104170Y-32429D01*
X104170Y-32334D01*
X104189Y-32258D01*
X104208Y-32220D01*
X104227Y-32200D01*
X104265Y-32181D01*
X104570Y-32543D02*
X104589Y-32562D01*
X104570Y-32581D01*
X104551Y-32562D01*
X104570Y-32543D01*
X104570Y-32581D01*
X104970Y-32581D02*
X104741Y-32581D01*
X104856Y-32581D02*
X104856Y-32181D01*
X104818Y-32239D01*
X104779Y-32277D01*
X104741Y-32296D01*
X105618Y-32315D02*
X105618Y-32581D01*
X105446Y-32315D02*
X105446Y-32524D01*
X105465Y-32562D01*
X105503Y-32581D01*
X105560Y-32581D01*
X105598Y-32562D01*
X105618Y-32543D01*
X105941Y-32372D02*
X105808Y-32372D01*
X105808Y-32581D02*
X105808Y-32181D01*
X105998Y-32181D01*
X106646Y-32181D02*
X106456Y-32181D01*
X106437Y-32372D01*
X106456Y-32353D01*
X106494Y-32334D01*
X106589Y-32334D01*
X106627Y-32353D01*
X106646Y-32372D01*
X106665Y-32410D01*
X106665Y-32505D01*
X106646Y-32543D01*
X106627Y-32562D01*
X106589Y-32581D01*
X106494Y-32581D01*
X106456Y-32562D01*
X106437Y-32543D01*
X106913Y-32181D02*
X106951Y-32181D01*
X106989Y-32200D01*
X107008Y-32220D01*
X107027Y-32258D01*
X107046Y-32334D01*
X107046Y-32429D01*
X107027Y-32505D01*
X107008Y-32543D01*
X106989Y-32562D01*
X106951Y-32581D01*
X106913Y-32581D01*
X106875Y-32562D01*
X106856Y-32543D01*
X106837Y-32505D01*
X106818Y-32429D01*
X106818Y-32334D01*
X106837Y-32258D01*
X106856Y-32220D01*
X106875Y-32200D01*
X106913Y-32181D01*
X107160Y-32181D02*
X107294Y-32581D01*
X107427Y-32181D01*
G54D15*
X105508Y-41808D02*
X105537Y-41722D01*
X105565Y-41694D01*
X105622Y-41665D01*
X105708Y-41665D01*
X105765Y-41694D01*
X105794Y-41722D01*
X105822Y-41779D01*
X105822Y-42008D01*
X105222Y-42008D01*
X105222Y-41808D01*
X105251Y-41751D01*
X105279Y-41722D01*
X105337Y-41694D01*
X105394Y-41694D01*
X105451Y-41722D01*
X105479Y-41751D01*
X105508Y-41808D01*
X105508Y-42008D01*
X105222Y-41465D02*
X105222Y-41065D01*
X105822Y-41465D01*
X105822Y-41065D01*
X105822Y-40522D02*
X105822Y-40865D01*
X105822Y-40694D02*
X105222Y-40694D01*
X105308Y-40751D01*
X105365Y-40808D01*
X105394Y-40865D01*
X103008Y-42894D02*
X103037Y-42808D01*
X103065Y-42779D01*
X103122Y-42751D01*
X103208Y-42751D01*
X103265Y-42779D01*
X103294Y-42808D01*
X103322Y-42865D01*
X103322Y-43094D01*
X102722Y-43094D01*
X102722Y-42894D01*
X102751Y-42837D01*
X102779Y-42808D01*
X102837Y-42779D01*
X102894Y-42779D01*
X102951Y-42808D01*
X102979Y-42837D01*
X103008Y-42894D01*
X103008Y-43094D01*
X102722Y-42494D02*
X103208Y-42494D01*
X103265Y-42465D01*
X103294Y-42437D01*
X103322Y-42379D01*
X103322Y-42265D01*
X103294Y-42208D01*
X103265Y-42179D01*
X103208Y-42151D01*
X102722Y-42151D01*
X102722Y-41922D02*
X102722Y-41522D01*
X103322Y-41922D01*
X103322Y-41522D01*
X102722Y-41351D02*
X102722Y-40951D01*
X103322Y-41351D01*
X103322Y-40951D01*
X103008Y-40722D02*
X103008Y-40522D01*
X103322Y-40437D02*
X103322Y-40722D01*
X102722Y-40722D01*
X102722Y-40437D01*
X103322Y-39837D02*
X103037Y-40037D01*
X103322Y-40179D02*
X102722Y-40179D01*
X102722Y-39951D01*
X102751Y-39894D01*
X102779Y-39865D01*
X102837Y-39837D01*
X102922Y-39837D01*
X102979Y-39865D01*
X103008Y-39894D01*
X103037Y-39951D01*
X103037Y-40179D01*
M02*
