G04 (created by PCBNEW (2013-june-11)-stable) date Fri 08 Nov 2013 23:00:49 ART*
%MOIN*%
G04 Gerber Fmt 3.4, Leading zero omitted, Abs format*
%FSLAX34Y34*%
G01*
G70*
G90*
G04 APERTURE LIST*
%ADD10C,0.00393701*%
%ADD11C,0.008*%
%ADD12C,0.006*%
%ADD13C,0.01*%
%ADD14C,0.015*%
%ADD15C,0.012*%
%ADD16C,0.0125*%
%ADD17C,0.0035*%
%ADD18C,0.01125*%
G04 APERTURE END LIST*
G54D10*
G54D11*
X105100Y-41600D02*
X105300Y-41600D01*
X108100Y-41600D02*
X107900Y-41600D01*
X107900Y-41600D02*
X107900Y-41200D01*
X107900Y-41200D02*
X105300Y-41200D01*
X105300Y-41200D02*
X105300Y-42000D01*
X105300Y-42000D02*
X107900Y-42000D01*
X107900Y-42000D02*
X107900Y-41600D01*
X105300Y-41400D02*
X105500Y-41200D01*
X98600Y-37100D02*
X98600Y-37300D01*
X98600Y-40100D02*
X98600Y-39900D01*
X98600Y-39900D02*
X99000Y-39900D01*
X99000Y-39900D02*
X99000Y-37300D01*
X99000Y-37300D02*
X98200Y-37300D01*
X98200Y-37300D02*
X98200Y-39900D01*
X98200Y-39900D02*
X98600Y-39900D01*
X98800Y-37300D02*
X99000Y-37500D01*
X101900Y-35800D02*
X101900Y-35600D01*
X101900Y-32800D02*
X101900Y-33000D01*
X101900Y-33000D02*
X101500Y-33000D01*
X101500Y-33000D02*
X101500Y-35600D01*
X101500Y-35600D02*
X102300Y-35600D01*
X102300Y-35600D02*
X102300Y-33000D01*
X102300Y-33000D02*
X101900Y-33000D01*
X101700Y-35600D02*
X101500Y-35400D01*
X99000Y-42200D02*
X99200Y-42200D01*
X102000Y-42200D02*
X101800Y-42200D01*
X101800Y-42200D02*
X101800Y-41800D01*
X101800Y-41800D02*
X99200Y-41800D01*
X99200Y-41800D02*
X99200Y-42600D01*
X99200Y-42600D02*
X101800Y-42600D01*
X101800Y-42600D02*
X101800Y-42200D01*
X99200Y-42000D02*
X99400Y-41800D01*
X97100Y-42800D02*
X97100Y-42600D01*
X97100Y-39800D02*
X97100Y-40000D01*
X97100Y-40000D02*
X96700Y-40000D01*
X96700Y-40000D02*
X96700Y-42600D01*
X96700Y-42600D02*
X97500Y-42600D01*
X97500Y-42600D02*
X97500Y-40000D01*
X97500Y-40000D02*
X97100Y-40000D01*
X96900Y-42600D02*
X96700Y-42400D01*
X105100Y-32300D02*
X105100Y-32500D01*
X105100Y-35300D02*
X105100Y-35100D01*
X105100Y-35100D02*
X105500Y-35100D01*
X105500Y-35100D02*
X105500Y-32500D01*
X105500Y-32500D02*
X104700Y-32500D01*
X104700Y-32500D02*
X104700Y-35100D01*
X104700Y-35100D02*
X105100Y-35100D01*
X105300Y-32500D02*
X105500Y-32700D01*
G54D12*
X96700Y-34800D02*
X97700Y-34800D01*
X97700Y-34800D02*
X97700Y-37800D01*
X97700Y-37800D02*
X96700Y-37800D01*
X96700Y-37800D02*
X96700Y-34800D01*
X97700Y-35800D02*
X96700Y-35800D01*
X104600Y-31600D02*
X104600Y-30600D01*
X104600Y-30600D02*
X107600Y-30600D01*
X107600Y-30600D02*
X107600Y-31600D01*
X107600Y-31600D02*
X104600Y-31600D01*
X105600Y-30600D02*
X105600Y-31600D01*
X113000Y-32800D02*
X112000Y-32800D01*
X112000Y-32800D02*
X112000Y-30800D01*
X112000Y-30800D02*
X113000Y-30800D01*
X113000Y-30800D02*
X113000Y-32800D01*
X103400Y-43400D02*
X103400Y-44400D01*
X103400Y-44400D02*
X101400Y-44400D01*
X101400Y-44400D02*
X101400Y-43400D01*
X101400Y-43400D02*
X103400Y-43400D01*
X113000Y-36300D02*
X112000Y-36300D01*
X112000Y-35300D02*
X113000Y-35300D01*
X112000Y-36300D02*
X112000Y-35300D01*
X113000Y-35300D02*
X113000Y-36300D01*
X101000Y-32000D02*
X100000Y-32000D01*
X100000Y-31000D02*
X101000Y-31000D01*
X100000Y-32000D02*
X100000Y-31000D01*
X101000Y-31000D02*
X101000Y-32000D01*
G54D13*
X102080Y-30900D02*
X102080Y-31900D01*
G54D12*
X103160Y-31784D02*
G75*
G03X103300Y-31400I-460J384D01*
G74*
G01*
X103299Y-31400D02*
G75*
G03X103148Y-31002I-599J0D01*
G74*
G01*
X102100Y-31400D02*
G75*
G03X102244Y-31789I599J0D01*
G74*
G01*
X102239Y-31015D02*
G75*
G03X102100Y-31400I460J-384D01*
G74*
G01*
X102212Y-31749D02*
G75*
G03X102700Y-32000I487J349D01*
G74*
G01*
X102700Y-32000D02*
G75*
G03X103179Y-31760I0J600D01*
G74*
G01*
X102700Y-30800D02*
G75*
G03X102227Y-31031I0J-599D01*
G74*
G01*
X103173Y-31031D02*
G75*
G03X102700Y-30800I-473J-368D01*
G74*
G01*
X102700Y-31650D02*
G75*
G03X102950Y-31400I0J250D01*
G74*
G01*
X102700Y-31800D02*
G75*
G03X103100Y-31400I0J400D01*
G74*
G01*
X102700Y-31150D02*
G75*
G03X102450Y-31400I0J-250D01*
G74*
G01*
X102700Y-31000D02*
G75*
G03X102300Y-31400I0J-400D01*
G74*
G01*
G54D13*
X102086Y-31913D02*
G75*
G03X102700Y-32200I613J513D01*
G74*
G01*
X102700Y-32199D02*
G75*
G03X103404Y-31776I0J799D01*
G74*
G01*
X102698Y-30601D02*
G75*
G03X102089Y-30884I1J-798D01*
G74*
G01*
X103394Y-31002D02*
G75*
G03X102700Y-30600I-694J-397D01*
G74*
G01*
X103404Y-31779D02*
G75*
G03X103500Y-31400I-704J379D01*
G74*
G01*
X103499Y-31400D02*
G75*
G03X103381Y-30981I-799J0D01*
G74*
G01*
X107700Y-44220D02*
X108700Y-44220D01*
G54D12*
X108584Y-43139D02*
G75*
G03X108200Y-43000I-384J-460D01*
G74*
G01*
X108200Y-43000D02*
G75*
G03X107802Y-43151I0J-599D01*
G74*
G01*
X108200Y-44199D02*
G75*
G03X108589Y-44055I0J599D01*
G74*
G01*
X107815Y-44060D02*
G75*
G03X108200Y-44200I384J460D01*
G74*
G01*
X108549Y-44087D02*
G75*
G03X108800Y-43600I-349J487D01*
G74*
G01*
X108800Y-43600D02*
G75*
G03X108560Y-43120I-600J0D01*
G74*
G01*
X107600Y-43600D02*
G75*
G03X107831Y-44072I599J0D01*
G74*
G01*
X107831Y-43126D02*
G75*
G03X107600Y-43600I368J-473D01*
G74*
G01*
X108450Y-43600D02*
G75*
G03X108200Y-43350I-250J0D01*
G74*
G01*
X108600Y-43600D02*
G75*
G03X108200Y-43200I-400J0D01*
G74*
G01*
X107950Y-43600D02*
G75*
G03X108200Y-43850I250J0D01*
G74*
G01*
X107800Y-43600D02*
G75*
G03X108200Y-44000I400J0D01*
G74*
G01*
G54D13*
X108713Y-44213D02*
G75*
G03X109000Y-43600I-513J613D01*
G74*
G01*
X108999Y-43600D02*
G75*
G03X108576Y-42895I-799J0D01*
G74*
G01*
X107401Y-43601D02*
G75*
G03X107684Y-44210I798J1D01*
G74*
G01*
X107802Y-42905D02*
G75*
G03X107400Y-43600I397J-694D01*
G74*
G01*
X108579Y-42895D02*
G75*
G03X108200Y-42800I-379J-704D01*
G74*
G01*
X108200Y-42800D02*
G75*
G03X107781Y-42918I0J-799D01*
G74*
G01*
X105900Y-42880D02*
X104900Y-42880D01*
G54D12*
X105015Y-43960D02*
G75*
G03X105400Y-44100I384J460D01*
G74*
G01*
X105400Y-44099D02*
G75*
G03X105797Y-43948I0J599D01*
G74*
G01*
X105400Y-42900D02*
G75*
G03X105010Y-43044I0J-599D01*
G74*
G01*
X105784Y-43039D02*
G75*
G03X105400Y-42900I-384J-460D01*
G74*
G01*
X105050Y-43012D02*
G75*
G03X104800Y-43500I349J-487D01*
G74*
G01*
X104800Y-43500D02*
G75*
G03X105039Y-43979I600J0D01*
G74*
G01*
X105999Y-43500D02*
G75*
G03X105768Y-43027I-599J0D01*
G74*
G01*
X105768Y-43973D02*
G75*
G03X106000Y-43500I-368J473D01*
G74*
G01*
X105150Y-43500D02*
G75*
G03X105400Y-43750I250J0D01*
G74*
G01*
X105000Y-43500D02*
G75*
G03X105400Y-43900I400J0D01*
G74*
G01*
X105650Y-43500D02*
G75*
G03X105400Y-43250I-250J0D01*
G74*
G01*
X105800Y-43500D02*
G75*
G03X105400Y-43100I-400J0D01*
G74*
G01*
G54D13*
X104886Y-42886D02*
G75*
G03X104600Y-43500I513J-613D01*
G74*
G01*
X104601Y-43500D02*
G75*
G03X105023Y-44204I799J0D01*
G74*
G01*
X106198Y-43498D02*
G75*
G03X105915Y-42889I-798J-1D01*
G74*
G01*
X105797Y-44194D02*
G75*
G03X106200Y-43500I-397J694D01*
G74*
G01*
X105020Y-44204D02*
G75*
G03X105400Y-44300I379J704D01*
G74*
G01*
X105400Y-44299D02*
G75*
G03X105818Y-44181I0J799D01*
G74*
G01*
G54D14*
X108000Y-33900D02*
X107580Y-33900D01*
X107800Y-33700D02*
X107800Y-34110D01*
X109000Y-34500D02*
G75*
G03X109000Y-34500I-1000J0D01*
G74*
G01*
X104700Y-37500D02*
X112700Y-37500D01*
X112700Y-39500D02*
X104700Y-39500D01*
X104700Y-39500D02*
X104700Y-37500D01*
X104700Y-38000D02*
X105200Y-38000D01*
X105200Y-38000D02*
X105200Y-39000D01*
X105200Y-39000D02*
X104700Y-39000D01*
X112700Y-37500D02*
X112700Y-39500D01*
G54D15*
X102500Y-40100D02*
X102500Y-39800D01*
X102500Y-39800D02*
X102900Y-39800D01*
X102900Y-39800D02*
X102900Y-37400D01*
X102900Y-37400D02*
X102500Y-37400D01*
X102500Y-37400D02*
X102500Y-37100D01*
X102500Y-37400D02*
X102100Y-37400D01*
X102100Y-37400D02*
X102100Y-39800D01*
X102100Y-39800D02*
X102500Y-39800D01*
X102900Y-39600D02*
X102100Y-39600D01*
X102100Y-39500D02*
X102900Y-39500D01*
X100600Y-40100D02*
X100600Y-39800D01*
X100600Y-39800D02*
X101000Y-39800D01*
X101000Y-39800D02*
X101000Y-37400D01*
X101000Y-37400D02*
X100600Y-37400D01*
X100600Y-37400D02*
X100600Y-37100D01*
X100600Y-37400D02*
X100200Y-37400D01*
X100200Y-37400D02*
X100200Y-39800D01*
X100200Y-39800D02*
X100600Y-39800D01*
X101000Y-39600D02*
X100200Y-39600D01*
X100200Y-39500D02*
X101000Y-39500D01*
X98800Y-34300D02*
X98800Y-34000D01*
X98800Y-34000D02*
X99200Y-34000D01*
X99200Y-34000D02*
X99200Y-31600D01*
X99200Y-31600D02*
X98800Y-31600D01*
X98800Y-31600D02*
X98800Y-31300D01*
X98800Y-31600D02*
X98400Y-31600D01*
X98400Y-31600D02*
X98400Y-34000D01*
X98400Y-34000D02*
X98800Y-34000D01*
X99200Y-33800D02*
X98400Y-33800D01*
X98400Y-33700D02*
X99200Y-33700D01*
X108300Y-31000D02*
X108600Y-31000D01*
X108600Y-31000D02*
X108600Y-31400D01*
X108600Y-31400D02*
X111000Y-31400D01*
X111000Y-31400D02*
X111000Y-31000D01*
X111000Y-31000D02*
X111300Y-31000D01*
X111000Y-31000D02*
X111000Y-30600D01*
X111000Y-30600D02*
X108600Y-30600D01*
X108600Y-30600D02*
X108600Y-31000D01*
X108800Y-31400D02*
X108800Y-30600D01*
X108900Y-30600D02*
X108900Y-31400D01*
X110920Y-33500D02*
X112900Y-33500D01*
X112900Y-33500D02*
X112900Y-34500D01*
X112900Y-34500D02*
X110900Y-34500D01*
X110900Y-34500D02*
X110900Y-33500D01*
X110900Y-33750D02*
X111150Y-33500D01*
G54D16*
X114300Y-43200D02*
G75*
G03X114300Y-43200I-2500J0D01*
G74*
G01*
G54D11*
X106466Y-41072D02*
X106300Y-40810D01*
X106180Y-41072D02*
X106180Y-40522D01*
X106371Y-40522D01*
X106419Y-40548D01*
X106442Y-40575D01*
X106466Y-40627D01*
X106466Y-40705D01*
X106442Y-40758D01*
X106419Y-40784D01*
X106371Y-40810D01*
X106180Y-40810D01*
X106919Y-40522D02*
X106680Y-40522D01*
X106657Y-40784D01*
X106680Y-40758D01*
X106728Y-40732D01*
X106847Y-40732D01*
X106895Y-40758D01*
X106919Y-40784D01*
X106942Y-40836D01*
X106942Y-40967D01*
X106919Y-41020D01*
X106895Y-41046D01*
X106847Y-41072D01*
X106728Y-41072D01*
X106680Y-41046D01*
X106657Y-41020D01*
X106254Y-41872D02*
X105969Y-41872D01*
X106111Y-41872D02*
X106111Y-41322D01*
X106064Y-41401D01*
X106016Y-41453D01*
X105969Y-41479D01*
X106469Y-41872D02*
X106469Y-41322D01*
X106754Y-41872D02*
X106540Y-41558D01*
X106754Y-41322D02*
X106469Y-41636D01*
X106945Y-41375D02*
X106969Y-41348D01*
X107016Y-41322D01*
X107135Y-41322D01*
X107183Y-41348D01*
X107207Y-41375D01*
X107230Y-41427D01*
X107230Y-41479D01*
X107207Y-41558D01*
X106921Y-41872D01*
X107230Y-41872D01*
X99722Y-38583D02*
X99460Y-38750D01*
X99722Y-38869D02*
X99172Y-38869D01*
X99172Y-38678D01*
X99198Y-38630D01*
X99225Y-38607D01*
X99277Y-38583D01*
X99355Y-38583D01*
X99408Y-38607D01*
X99434Y-38630D01*
X99460Y-38678D01*
X99460Y-38869D01*
X99722Y-38107D02*
X99722Y-38392D01*
X99722Y-38250D02*
X99172Y-38250D01*
X99251Y-38297D01*
X99303Y-38345D01*
X99329Y-38392D01*
X98772Y-38945D02*
X98772Y-39230D01*
X98772Y-39088D02*
X98222Y-39088D01*
X98301Y-39135D01*
X98353Y-39183D01*
X98379Y-39230D01*
X98222Y-38635D02*
X98222Y-38588D01*
X98248Y-38540D01*
X98275Y-38516D01*
X98327Y-38492D01*
X98432Y-38469D01*
X98563Y-38469D01*
X98667Y-38492D01*
X98720Y-38516D01*
X98746Y-38540D01*
X98772Y-38588D01*
X98772Y-38635D01*
X98746Y-38683D01*
X98720Y-38707D01*
X98667Y-38730D01*
X98563Y-38754D01*
X98432Y-38754D01*
X98327Y-38730D01*
X98275Y-38707D01*
X98248Y-38683D01*
X98222Y-38635D01*
X98772Y-38254D02*
X98222Y-38254D01*
X98772Y-37969D02*
X98458Y-38183D01*
X98222Y-37969D02*
X98536Y-38254D01*
X103022Y-34283D02*
X102760Y-34450D01*
X103022Y-34569D02*
X102472Y-34569D01*
X102472Y-34378D01*
X102498Y-34330D01*
X102525Y-34307D01*
X102577Y-34283D01*
X102655Y-34283D01*
X102708Y-34307D01*
X102734Y-34330D01*
X102760Y-34378D01*
X102760Y-34569D01*
X102472Y-33854D02*
X102472Y-33950D01*
X102498Y-33997D01*
X102525Y-34021D01*
X102603Y-34069D01*
X102708Y-34092D01*
X102917Y-34092D01*
X102970Y-34069D01*
X102996Y-34045D01*
X103022Y-33997D01*
X103022Y-33902D01*
X102996Y-33854D01*
X102970Y-33830D01*
X102917Y-33807D01*
X102786Y-33807D01*
X102734Y-33830D01*
X102708Y-33854D01*
X102682Y-33902D01*
X102682Y-33997D01*
X102708Y-34045D01*
X102734Y-34069D01*
X102786Y-34092D01*
X102172Y-34645D02*
X102172Y-34930D01*
X102172Y-34788D02*
X101622Y-34788D01*
X101701Y-34835D01*
X101753Y-34883D01*
X101779Y-34930D01*
X102172Y-34430D02*
X101622Y-34430D01*
X102172Y-34145D02*
X101858Y-34359D01*
X101622Y-34145D02*
X101936Y-34430D01*
X101675Y-33954D02*
X101648Y-33930D01*
X101622Y-33883D01*
X101622Y-33764D01*
X101648Y-33716D01*
X101675Y-33692D01*
X101727Y-33669D01*
X101779Y-33669D01*
X101858Y-33692D01*
X102172Y-33978D01*
X102172Y-33669D01*
X100466Y-43272D02*
X100300Y-43010D01*
X100180Y-43272D02*
X100180Y-42722D01*
X100371Y-42722D01*
X100419Y-42748D01*
X100442Y-42775D01*
X100466Y-42827D01*
X100466Y-42905D01*
X100442Y-42958D01*
X100419Y-42984D01*
X100371Y-43010D01*
X100180Y-43010D01*
X100895Y-42905D02*
X100895Y-43272D01*
X100776Y-42696D02*
X100657Y-43089D01*
X100966Y-43089D01*
X100071Y-42105D02*
X100071Y-42472D01*
X99952Y-41896D02*
X99833Y-42289D01*
X100142Y-42289D01*
X100333Y-42472D02*
X100333Y-41922D01*
X100500Y-42315D01*
X100666Y-41922D01*
X100666Y-42472D01*
X100857Y-41922D02*
X101190Y-41922D01*
X100976Y-42472D01*
X98272Y-41333D02*
X98010Y-41500D01*
X98272Y-41619D02*
X97722Y-41619D01*
X97722Y-41428D01*
X97748Y-41380D01*
X97775Y-41357D01*
X97827Y-41333D01*
X97905Y-41333D01*
X97958Y-41357D01*
X97984Y-41380D01*
X98010Y-41428D01*
X98010Y-41619D01*
X97775Y-41142D02*
X97748Y-41119D01*
X97722Y-41071D01*
X97722Y-40952D01*
X97748Y-40904D01*
X97775Y-40880D01*
X97827Y-40857D01*
X97879Y-40857D01*
X97958Y-40880D01*
X98272Y-41166D01*
X98272Y-40857D01*
X97372Y-41645D02*
X97372Y-41930D01*
X97372Y-41788D02*
X96822Y-41788D01*
X96901Y-41835D01*
X96953Y-41883D01*
X96979Y-41930D01*
X96822Y-41335D02*
X96822Y-41288D01*
X96848Y-41240D01*
X96875Y-41216D01*
X96927Y-41192D01*
X97032Y-41169D01*
X97163Y-41169D01*
X97267Y-41192D01*
X97320Y-41216D01*
X97346Y-41240D01*
X97372Y-41288D01*
X97372Y-41335D01*
X97346Y-41383D01*
X97320Y-41407D01*
X97267Y-41430D01*
X97163Y-41454D01*
X97032Y-41454D01*
X96927Y-41430D01*
X96875Y-41407D01*
X96848Y-41383D01*
X96822Y-41335D01*
X97372Y-40954D02*
X96822Y-40954D01*
X97372Y-40669D02*
X97058Y-40883D01*
X96822Y-40669D02*
X97136Y-40954D01*
X104522Y-33933D02*
X104260Y-34100D01*
X104522Y-34219D02*
X103972Y-34219D01*
X103972Y-34028D01*
X103998Y-33980D01*
X104025Y-33957D01*
X104077Y-33933D01*
X104155Y-33933D01*
X104208Y-33957D01*
X104234Y-33980D01*
X104260Y-34028D01*
X104260Y-34219D01*
X103972Y-33766D02*
X103972Y-33457D01*
X104182Y-33623D01*
X104182Y-33552D01*
X104208Y-33504D01*
X104234Y-33480D01*
X104286Y-33457D01*
X104417Y-33457D01*
X104470Y-33480D01*
X104496Y-33504D01*
X104522Y-33552D01*
X104522Y-33695D01*
X104496Y-33742D01*
X104470Y-33766D01*
X105372Y-34195D02*
X105372Y-34480D01*
X105372Y-34338D02*
X104822Y-34338D01*
X104901Y-34385D01*
X104953Y-34433D01*
X104979Y-34480D01*
X104822Y-33885D02*
X104822Y-33838D01*
X104848Y-33790D01*
X104875Y-33766D01*
X104927Y-33742D01*
X105032Y-33719D01*
X105163Y-33719D01*
X105267Y-33742D01*
X105320Y-33766D01*
X105346Y-33790D01*
X105372Y-33838D01*
X105372Y-33885D01*
X105346Y-33933D01*
X105320Y-33957D01*
X105267Y-33980D01*
X105163Y-34004D01*
X105032Y-34004D01*
X104927Y-33980D01*
X104875Y-33957D01*
X104848Y-33933D01*
X104822Y-33885D01*
X105372Y-33504D02*
X104822Y-33504D01*
X105372Y-33219D02*
X105058Y-33433D01*
X104822Y-33219D02*
X105136Y-33504D01*
G54D12*
X97292Y-37233D02*
X97311Y-37176D01*
X97311Y-37080D01*
X97292Y-37042D01*
X97273Y-37023D01*
X97235Y-37004D01*
X97197Y-37004D01*
X97159Y-37023D01*
X97140Y-37042D01*
X97121Y-37080D01*
X97102Y-37157D01*
X97083Y-37195D01*
X97064Y-37214D01*
X97026Y-37233D01*
X96988Y-37233D01*
X96950Y-37214D01*
X96930Y-37195D01*
X96911Y-37157D01*
X96911Y-37061D01*
X96930Y-37004D01*
X96911Y-36871D02*
X97311Y-36776D01*
X97026Y-36700D01*
X97311Y-36623D01*
X96911Y-36528D01*
X97311Y-36166D02*
X97311Y-36395D01*
X97311Y-36280D02*
X96911Y-36280D01*
X96969Y-36319D01*
X97007Y-36357D01*
X97026Y-36395D01*
X98030Y-38709D02*
X98030Y-38899D01*
X97630Y-38899D01*
X98030Y-38518D02*
X98011Y-38556D01*
X97973Y-38575D01*
X97630Y-38575D01*
X98030Y-38194D02*
X97820Y-38194D01*
X97782Y-38213D01*
X97763Y-38252D01*
X97763Y-38328D01*
X97782Y-38366D01*
X98011Y-38194D02*
X98030Y-38232D01*
X98030Y-38328D01*
X98011Y-38366D01*
X97973Y-38385D01*
X97935Y-38385D01*
X97896Y-38366D01*
X97877Y-38328D01*
X97877Y-38232D01*
X97858Y-38194D01*
X97763Y-38042D02*
X98030Y-37947D01*
X97763Y-37852D01*
X98011Y-37547D02*
X98030Y-37585D01*
X98030Y-37661D01*
X98011Y-37699D01*
X97973Y-37718D01*
X97820Y-37718D01*
X97782Y-37699D01*
X97763Y-37661D01*
X97763Y-37585D01*
X97782Y-37547D01*
X97820Y-37528D01*
X97858Y-37528D01*
X97896Y-37718D01*
X98030Y-37052D02*
X97630Y-37052D01*
X97763Y-36861D02*
X98030Y-36861D01*
X97801Y-36861D02*
X97782Y-36842D01*
X97763Y-36804D01*
X97763Y-36747D01*
X97782Y-36709D01*
X97820Y-36690D01*
X98030Y-36690D01*
X97763Y-36537D02*
X98030Y-36442D01*
X97763Y-36347D01*
X98011Y-36042D02*
X98030Y-36080D01*
X98030Y-36156D01*
X98011Y-36194D01*
X97973Y-36213D01*
X97820Y-36213D01*
X97782Y-36194D01*
X97763Y-36156D01*
X97763Y-36080D01*
X97782Y-36042D01*
X97820Y-36023D01*
X97858Y-36023D01*
X97896Y-36213D01*
X98030Y-35852D02*
X97763Y-35852D01*
X97839Y-35852D02*
X97801Y-35832D01*
X97782Y-35813D01*
X97763Y-35775D01*
X97763Y-35737D01*
X98011Y-35623D02*
X98030Y-35585D01*
X98030Y-35509D01*
X98011Y-35471D01*
X97973Y-35452D01*
X97954Y-35452D01*
X97915Y-35471D01*
X97896Y-35509D01*
X97896Y-35566D01*
X97877Y-35604D01*
X97839Y-35623D01*
X97820Y-35623D01*
X97782Y-35604D01*
X97763Y-35566D01*
X97763Y-35509D01*
X97782Y-35471D01*
X98030Y-35223D02*
X98011Y-35261D01*
X97992Y-35280D01*
X97954Y-35299D01*
X97839Y-35299D01*
X97801Y-35280D01*
X97782Y-35261D01*
X97763Y-35223D01*
X97763Y-35166D01*
X97782Y-35128D01*
X97801Y-35109D01*
X97839Y-35090D01*
X97954Y-35090D01*
X97992Y-35109D01*
X98011Y-35128D01*
X98030Y-35166D01*
X98030Y-35223D01*
X98030Y-34918D02*
X97763Y-34918D01*
X97839Y-34918D02*
X97801Y-34899D01*
X97782Y-34880D01*
X97763Y-34842D01*
X97763Y-34804D01*
X98030Y-34499D02*
X97820Y-34499D01*
X97782Y-34518D01*
X97763Y-34556D01*
X97763Y-34632D01*
X97782Y-34671D01*
X98011Y-34499D02*
X98030Y-34537D01*
X98030Y-34632D01*
X98011Y-34671D01*
X97973Y-34690D01*
X97935Y-34690D01*
X97896Y-34671D01*
X97877Y-34632D01*
X97877Y-34537D01*
X97858Y-34499D01*
X104892Y-30461D02*
X104892Y-30061D01*
X105045Y-30061D01*
X105083Y-30080D01*
X105102Y-30100D01*
X105121Y-30138D01*
X105121Y-30195D01*
X105102Y-30233D01*
X105083Y-30252D01*
X105045Y-30271D01*
X104892Y-30271D01*
X105369Y-30061D02*
X105445Y-30061D01*
X105483Y-30080D01*
X105521Y-30119D01*
X105540Y-30195D01*
X105540Y-30328D01*
X105521Y-30404D01*
X105483Y-30442D01*
X105445Y-30461D01*
X105369Y-30461D01*
X105330Y-30442D01*
X105292Y-30404D01*
X105273Y-30328D01*
X105273Y-30195D01*
X105292Y-30119D01*
X105330Y-30080D01*
X105369Y-30061D01*
X105654Y-30061D02*
X105883Y-30061D01*
X105769Y-30461D02*
X105769Y-30061D01*
X106226Y-30461D02*
X105997Y-30461D01*
X106111Y-30461D02*
X106111Y-30061D01*
X106073Y-30119D01*
X106035Y-30157D01*
X105997Y-30176D01*
X106835Y-30461D02*
X106607Y-30461D01*
X106721Y-30461D02*
X106721Y-30061D01*
X106683Y-30119D01*
X106645Y-30157D01*
X106607Y-30176D01*
X107007Y-30461D02*
X107007Y-30061D01*
X107140Y-30347D01*
X107273Y-30061D01*
X107273Y-30461D01*
X111871Y-32021D02*
X111571Y-32021D01*
X111571Y-31907D01*
X111585Y-31878D01*
X111600Y-31864D01*
X111628Y-31850D01*
X111671Y-31850D01*
X111700Y-31864D01*
X111714Y-31878D01*
X111728Y-31907D01*
X111728Y-32021D01*
X111871Y-31564D02*
X111871Y-31735D01*
X111871Y-31650D02*
X111571Y-31650D01*
X111614Y-31678D01*
X111642Y-31707D01*
X111657Y-31735D01*
X113392Y-32385D02*
X113407Y-32400D01*
X113421Y-32442D01*
X113421Y-32471D01*
X113407Y-32514D01*
X113378Y-32542D01*
X113350Y-32557D01*
X113292Y-32571D01*
X113250Y-32571D01*
X113192Y-32557D01*
X113164Y-32542D01*
X113135Y-32514D01*
X113121Y-32471D01*
X113121Y-32442D01*
X113135Y-32400D01*
X113150Y-32385D01*
X113121Y-32200D02*
X113121Y-32142D01*
X113135Y-32114D01*
X113164Y-32085D01*
X113221Y-32071D01*
X113321Y-32071D01*
X113378Y-32085D01*
X113407Y-32114D01*
X113421Y-32142D01*
X113421Y-32200D01*
X113407Y-32228D01*
X113378Y-32257D01*
X113321Y-32271D01*
X113221Y-32271D01*
X113164Y-32257D01*
X113135Y-32228D01*
X113121Y-32200D01*
X113421Y-31942D02*
X113121Y-31942D01*
X113421Y-31771D01*
X113121Y-31771D01*
X113421Y-31628D02*
X113121Y-31628D01*
X113421Y-31457D01*
X113121Y-31457D01*
X113450Y-31385D02*
X113450Y-31157D01*
X113150Y-31099D02*
X113135Y-31085D01*
X113121Y-31057D01*
X113121Y-30985D01*
X113135Y-30957D01*
X113150Y-30942D01*
X113178Y-30928D01*
X113207Y-30928D01*
X113250Y-30942D01*
X113421Y-31114D01*
X113421Y-30928D01*
X101771Y-44771D02*
X101771Y-44471D01*
X101885Y-44471D01*
X101914Y-44485D01*
X101928Y-44500D01*
X101942Y-44528D01*
X101942Y-44571D01*
X101928Y-44600D01*
X101914Y-44614D01*
X101885Y-44628D01*
X101771Y-44628D01*
X102071Y-44471D02*
X102071Y-44714D01*
X102085Y-44742D01*
X102100Y-44757D01*
X102128Y-44771D01*
X102185Y-44771D01*
X102214Y-44757D01*
X102228Y-44742D01*
X102242Y-44714D01*
X102242Y-44471D01*
X102371Y-44757D02*
X102414Y-44771D01*
X102485Y-44771D01*
X102514Y-44757D01*
X102528Y-44742D01*
X102542Y-44714D01*
X102542Y-44685D01*
X102528Y-44657D01*
X102514Y-44642D01*
X102485Y-44628D01*
X102428Y-44614D01*
X102400Y-44600D01*
X102385Y-44585D01*
X102371Y-44557D01*
X102371Y-44528D01*
X102385Y-44500D01*
X102400Y-44485D01*
X102428Y-44471D01*
X102500Y-44471D01*
X102542Y-44485D01*
X102671Y-44771D02*
X102671Y-44471D01*
X102671Y-44614D02*
X102842Y-44614D01*
X102842Y-44771D02*
X102842Y-44471D01*
X103142Y-44771D02*
X102971Y-44771D01*
X103057Y-44771D02*
X103057Y-44471D01*
X103028Y-44514D01*
X103000Y-44542D01*
X102971Y-44557D01*
X101485Y-44071D02*
X101485Y-43771D01*
X101599Y-43771D01*
X101628Y-43785D01*
X101642Y-43800D01*
X101657Y-43828D01*
X101657Y-43871D01*
X101642Y-43900D01*
X101628Y-43914D01*
X101599Y-43928D01*
X101485Y-43928D01*
X101914Y-43871D02*
X101914Y-44071D01*
X101785Y-43871D02*
X101785Y-44028D01*
X101799Y-44057D01*
X101828Y-44071D01*
X101871Y-44071D01*
X101899Y-44057D01*
X101914Y-44042D01*
X102100Y-44071D02*
X102071Y-44057D01*
X102057Y-44028D01*
X102057Y-43771D01*
X102200Y-44057D02*
X102228Y-44071D01*
X102285Y-44071D01*
X102314Y-44057D01*
X102328Y-44028D01*
X102328Y-44014D01*
X102314Y-43985D01*
X102285Y-43971D01*
X102242Y-43971D01*
X102214Y-43957D01*
X102200Y-43928D01*
X102200Y-43914D01*
X102214Y-43885D01*
X102242Y-43871D01*
X102285Y-43871D01*
X102314Y-43885D01*
X102585Y-44071D02*
X102585Y-43914D01*
X102571Y-43885D01*
X102542Y-43871D01*
X102485Y-43871D01*
X102457Y-43885D01*
X102585Y-44057D02*
X102557Y-44071D01*
X102485Y-44071D01*
X102457Y-44057D01*
X102442Y-44028D01*
X102442Y-44000D01*
X102457Y-43971D01*
X102485Y-43957D01*
X102557Y-43957D01*
X102585Y-43942D01*
X102857Y-44071D02*
X102857Y-43771D01*
X102857Y-44057D02*
X102828Y-44071D01*
X102771Y-44071D01*
X102742Y-44057D01*
X102728Y-44042D01*
X102714Y-44014D01*
X102714Y-43928D01*
X102728Y-43900D01*
X102742Y-43885D01*
X102771Y-43871D01*
X102828Y-43871D01*
X102857Y-43885D01*
X103042Y-44071D02*
X103014Y-44057D01*
X103000Y-44042D01*
X102985Y-44014D01*
X102985Y-43928D01*
X103000Y-43900D01*
X103014Y-43885D01*
X103042Y-43871D01*
X103085Y-43871D01*
X103114Y-43885D01*
X103128Y-43900D01*
X103142Y-43928D01*
X103142Y-44014D01*
X103128Y-44042D01*
X103114Y-44057D01*
X103085Y-44071D01*
X103042Y-44071D01*
X103271Y-44071D02*
X103271Y-43871D01*
X103271Y-43928D02*
X103285Y-43900D01*
X103300Y-43885D01*
X103328Y-43871D01*
X103357Y-43871D01*
X113421Y-35971D02*
X113121Y-35971D01*
X113121Y-35857D01*
X113135Y-35828D01*
X113150Y-35814D01*
X113178Y-35800D01*
X113221Y-35800D01*
X113250Y-35814D01*
X113264Y-35828D01*
X113278Y-35857D01*
X113278Y-35971D01*
X113121Y-35700D02*
X113121Y-35514D01*
X113235Y-35614D01*
X113235Y-35571D01*
X113250Y-35542D01*
X113264Y-35528D01*
X113292Y-35514D01*
X113364Y-35514D01*
X113392Y-35528D01*
X113407Y-35542D01*
X113421Y-35571D01*
X113421Y-35657D01*
X113407Y-35685D01*
X113392Y-35700D01*
X111864Y-35142D02*
X111850Y-35157D01*
X111807Y-35171D01*
X111778Y-35171D01*
X111735Y-35157D01*
X111707Y-35128D01*
X111692Y-35100D01*
X111678Y-35042D01*
X111678Y-35000D01*
X111692Y-34942D01*
X111707Y-34914D01*
X111735Y-34885D01*
X111778Y-34871D01*
X111807Y-34871D01*
X111850Y-34885D01*
X111864Y-34900D01*
X112050Y-34871D02*
X112107Y-34871D01*
X112135Y-34885D01*
X112164Y-34914D01*
X112178Y-34971D01*
X112178Y-35071D01*
X112164Y-35128D01*
X112135Y-35157D01*
X112107Y-35171D01*
X112050Y-35171D01*
X112021Y-35157D01*
X111992Y-35128D01*
X111978Y-35071D01*
X111978Y-34971D01*
X111992Y-34914D01*
X112021Y-34885D01*
X112050Y-34871D01*
X112307Y-35171D02*
X112307Y-34871D01*
X112478Y-35171D01*
X112478Y-34871D01*
X112621Y-35171D02*
X112621Y-34871D01*
X112792Y-35171D01*
X112792Y-34871D01*
X112864Y-35200D02*
X113092Y-35200D01*
X113321Y-35171D02*
X113150Y-35171D01*
X113235Y-35171D02*
X113235Y-34871D01*
X113207Y-34914D01*
X113178Y-34942D01*
X113150Y-34957D01*
X100278Y-31621D02*
X100278Y-31321D01*
X100392Y-31321D01*
X100421Y-31335D01*
X100435Y-31350D01*
X100450Y-31378D01*
X100450Y-31421D01*
X100435Y-31450D01*
X100421Y-31464D01*
X100392Y-31478D01*
X100278Y-31478D01*
X100564Y-31350D02*
X100578Y-31335D01*
X100607Y-31321D01*
X100678Y-31321D01*
X100707Y-31335D01*
X100721Y-31350D01*
X100735Y-31378D01*
X100735Y-31407D01*
X100721Y-31450D01*
X100550Y-31621D01*
X100735Y-31621D01*
X99864Y-30842D02*
X99850Y-30857D01*
X99807Y-30871D01*
X99778Y-30871D01*
X99735Y-30857D01*
X99707Y-30828D01*
X99692Y-30800D01*
X99678Y-30742D01*
X99678Y-30700D01*
X99692Y-30642D01*
X99707Y-30614D01*
X99735Y-30585D01*
X99778Y-30571D01*
X99807Y-30571D01*
X99850Y-30585D01*
X99864Y-30600D01*
X100050Y-30571D02*
X100107Y-30571D01*
X100135Y-30585D01*
X100164Y-30614D01*
X100178Y-30671D01*
X100178Y-30771D01*
X100164Y-30828D01*
X100135Y-30857D01*
X100107Y-30871D01*
X100050Y-30871D01*
X100021Y-30857D01*
X99992Y-30828D01*
X99978Y-30771D01*
X99978Y-30671D01*
X99992Y-30614D01*
X100021Y-30585D01*
X100050Y-30571D01*
X100307Y-30871D02*
X100307Y-30571D01*
X100478Y-30871D01*
X100478Y-30571D01*
X100621Y-30871D02*
X100621Y-30571D01*
X100792Y-30871D01*
X100792Y-30571D01*
X100864Y-30900D02*
X101092Y-30900D01*
X101321Y-30871D02*
X101150Y-30871D01*
X101235Y-30871D02*
X101235Y-30571D01*
X101207Y-30614D01*
X101178Y-30642D01*
X101150Y-30657D01*
G54D17*
X102578Y-32671D02*
X102578Y-32371D01*
X102650Y-32371D01*
X102692Y-32385D01*
X102721Y-32414D01*
X102735Y-32442D01*
X102750Y-32500D01*
X102750Y-32542D01*
X102735Y-32600D01*
X102721Y-32628D01*
X102692Y-32657D01*
X102650Y-32671D01*
X102578Y-32671D01*
X102850Y-32371D02*
X103050Y-32371D01*
X102921Y-32671D01*
X101935Y-30435D02*
X102078Y-30435D01*
X101907Y-30521D02*
X102007Y-30221D01*
X102107Y-30521D01*
X102207Y-30521D02*
X102207Y-30321D01*
X102207Y-30350D02*
X102221Y-30335D01*
X102250Y-30321D01*
X102292Y-30321D01*
X102321Y-30335D01*
X102335Y-30364D01*
X102335Y-30521D01*
X102335Y-30364D02*
X102350Y-30335D01*
X102378Y-30321D01*
X102421Y-30321D01*
X102450Y-30335D01*
X102464Y-30364D01*
X102464Y-30521D01*
X102735Y-30521D02*
X102735Y-30364D01*
X102721Y-30335D01*
X102692Y-30321D01*
X102635Y-30321D01*
X102607Y-30335D01*
X102735Y-30507D02*
X102707Y-30521D01*
X102635Y-30521D01*
X102607Y-30507D01*
X102592Y-30478D01*
X102592Y-30450D01*
X102607Y-30421D01*
X102635Y-30407D01*
X102707Y-30407D01*
X102735Y-30392D01*
X102878Y-30521D02*
X102878Y-30321D01*
X102878Y-30378D02*
X102892Y-30350D01*
X102907Y-30335D01*
X102935Y-30321D01*
X102964Y-30321D01*
X103064Y-30521D02*
X103064Y-30321D01*
X103064Y-30221D02*
X103050Y-30235D01*
X103064Y-30250D01*
X103078Y-30235D01*
X103064Y-30221D01*
X103064Y-30250D01*
X103250Y-30521D02*
X103221Y-30507D01*
X103207Y-30478D01*
X103207Y-30221D01*
X103407Y-30521D02*
X103378Y-30507D01*
X103364Y-30478D01*
X103364Y-30221D01*
X103564Y-30521D02*
X103535Y-30507D01*
X103521Y-30492D01*
X103507Y-30464D01*
X103507Y-30378D01*
X103521Y-30350D01*
X103535Y-30335D01*
X103564Y-30321D01*
X103607Y-30321D01*
X103635Y-30335D01*
X103650Y-30350D01*
X103664Y-30378D01*
X103664Y-30464D01*
X103650Y-30492D01*
X103635Y-30507D01*
X103607Y-30521D01*
X103564Y-30521D01*
X109421Y-44421D02*
X109121Y-44421D01*
X109121Y-44350D01*
X109135Y-44307D01*
X109164Y-44278D01*
X109192Y-44264D01*
X109250Y-44250D01*
X109292Y-44250D01*
X109350Y-44264D01*
X109378Y-44278D01*
X109407Y-44307D01*
X109421Y-44350D01*
X109421Y-44421D01*
X109121Y-43978D02*
X109121Y-44121D01*
X109264Y-44135D01*
X109250Y-44121D01*
X109235Y-44092D01*
X109235Y-44021D01*
X109250Y-43992D01*
X109264Y-43978D01*
X109292Y-43964D01*
X109364Y-43964D01*
X109392Y-43978D01*
X109407Y-43992D01*
X109421Y-44021D01*
X109421Y-44092D01*
X109407Y-44121D01*
X109392Y-44135D01*
X107321Y-43750D02*
X107178Y-43850D01*
X107321Y-43921D02*
X107021Y-43921D01*
X107021Y-43807D01*
X107035Y-43778D01*
X107050Y-43764D01*
X107078Y-43750D01*
X107121Y-43750D01*
X107150Y-43764D01*
X107164Y-43778D01*
X107178Y-43807D01*
X107178Y-43921D01*
X107321Y-43578D02*
X107307Y-43607D01*
X107292Y-43621D01*
X107264Y-43635D01*
X107178Y-43635D01*
X107150Y-43621D01*
X107135Y-43607D01*
X107121Y-43578D01*
X107121Y-43535D01*
X107135Y-43507D01*
X107150Y-43492D01*
X107178Y-43478D01*
X107264Y-43478D01*
X107292Y-43492D01*
X107307Y-43507D01*
X107321Y-43535D01*
X107321Y-43578D01*
X107121Y-43349D02*
X107378Y-43349D01*
X107407Y-43364D01*
X107421Y-43392D01*
X107421Y-43407D01*
X107021Y-43349D02*
X107035Y-43364D01*
X107050Y-43349D01*
X107035Y-43335D01*
X107021Y-43349D01*
X107050Y-43349D01*
X107321Y-43164D02*
X107307Y-43192D01*
X107292Y-43207D01*
X107264Y-43221D01*
X107178Y-43221D01*
X107150Y-43207D01*
X107135Y-43192D01*
X107121Y-43164D01*
X107121Y-43121D01*
X107135Y-43092D01*
X107150Y-43078D01*
X107178Y-43064D01*
X107264Y-43064D01*
X107292Y-43078D01*
X107307Y-43092D01*
X107321Y-43121D01*
X107321Y-43164D01*
X104421Y-43121D02*
X104121Y-43121D01*
X104121Y-43050D01*
X104135Y-43007D01*
X104164Y-42978D01*
X104192Y-42964D01*
X104250Y-42950D01*
X104292Y-42950D01*
X104350Y-42964D01*
X104378Y-42978D01*
X104407Y-43007D01*
X104421Y-43050D01*
X104421Y-43121D01*
X104121Y-42692D02*
X104121Y-42750D01*
X104135Y-42778D01*
X104150Y-42792D01*
X104192Y-42821D01*
X104250Y-42835D01*
X104364Y-42835D01*
X104392Y-42821D01*
X104407Y-42807D01*
X104421Y-42778D01*
X104421Y-42721D01*
X104407Y-42692D01*
X104392Y-42678D01*
X104364Y-42664D01*
X104292Y-42664D01*
X104264Y-42678D01*
X104250Y-42692D01*
X104235Y-42721D01*
X104235Y-42778D01*
X104250Y-42807D01*
X104264Y-42821D01*
X104292Y-42835D01*
X106221Y-44185D02*
X106521Y-44085D01*
X106221Y-43985D01*
X106507Y-43771D02*
X106521Y-43800D01*
X106521Y-43857D01*
X106507Y-43885D01*
X106478Y-43900D01*
X106364Y-43900D01*
X106335Y-43885D01*
X106321Y-43857D01*
X106321Y-43800D01*
X106335Y-43771D01*
X106364Y-43757D01*
X106392Y-43757D01*
X106421Y-43900D01*
X106521Y-43628D02*
X106321Y-43628D01*
X106378Y-43628D02*
X106350Y-43614D01*
X106335Y-43600D01*
X106321Y-43571D01*
X106321Y-43542D01*
X106521Y-43314D02*
X106221Y-43314D01*
X106507Y-43314D02*
X106521Y-43342D01*
X106521Y-43400D01*
X106507Y-43428D01*
X106492Y-43442D01*
X106464Y-43457D01*
X106378Y-43457D01*
X106350Y-43442D01*
X106335Y-43428D01*
X106321Y-43400D01*
X106321Y-43342D01*
X106335Y-43314D01*
X106507Y-43057D02*
X106521Y-43085D01*
X106521Y-43142D01*
X106507Y-43171D01*
X106478Y-43185D01*
X106364Y-43185D01*
X106335Y-43171D01*
X106321Y-43142D01*
X106321Y-43085D01*
X106335Y-43057D01*
X106364Y-43042D01*
X106392Y-43042D01*
X106421Y-43185D01*
G54D15*
X107900Y-33185D02*
X107871Y-33214D01*
X107785Y-33242D01*
X107728Y-33242D01*
X107642Y-33214D01*
X107585Y-33157D01*
X107557Y-33100D01*
X107528Y-32985D01*
X107528Y-32900D01*
X107557Y-32785D01*
X107585Y-32728D01*
X107642Y-32671D01*
X107728Y-32642D01*
X107785Y-32642D01*
X107871Y-32671D01*
X107900Y-32700D01*
X108128Y-32700D02*
X108157Y-32671D01*
X108214Y-32642D01*
X108357Y-32642D01*
X108414Y-32671D01*
X108442Y-32700D01*
X108471Y-32757D01*
X108471Y-32814D01*
X108442Y-32900D01*
X108100Y-33242D01*
X108471Y-33242D01*
X107414Y-36242D02*
X107071Y-36242D01*
X107242Y-36242D02*
X107242Y-35642D01*
X107185Y-35728D01*
X107128Y-35785D01*
X107071Y-35814D01*
X108385Y-35842D02*
X108385Y-36242D01*
X108128Y-35842D02*
X108128Y-36157D01*
X108157Y-36214D01*
X108214Y-36242D01*
X108300Y-36242D01*
X108357Y-36214D01*
X108385Y-36185D01*
X108871Y-35928D02*
X108671Y-35928D01*
X108671Y-36242D02*
X108671Y-35642D01*
X108957Y-35642D01*
G54D18*
X106357Y-37642D02*
X106357Y-38128D01*
X106378Y-38185D01*
X106400Y-38214D01*
X106442Y-38242D01*
X106528Y-38242D01*
X106571Y-38214D01*
X106592Y-38185D01*
X106614Y-38128D01*
X106614Y-37642D01*
X107064Y-38242D02*
X106807Y-38242D01*
X106935Y-38242D02*
X106935Y-37642D01*
X106892Y-37728D01*
X106850Y-37785D01*
X106807Y-37814D01*
G54D15*
G54D18*
X108428Y-38842D02*
X108428Y-39242D01*
X108321Y-38614D02*
X108214Y-39042D01*
X108492Y-39042D01*
X108750Y-38642D02*
X108792Y-38642D01*
X108835Y-38671D01*
X108857Y-38700D01*
X108878Y-38757D01*
X108900Y-38871D01*
X108900Y-39014D01*
X108878Y-39128D01*
X108857Y-39185D01*
X108835Y-39214D01*
X108792Y-39242D01*
X108750Y-39242D01*
X108707Y-39214D01*
X108685Y-39185D01*
X108664Y-39128D01*
X108642Y-39014D01*
X108642Y-38871D01*
X108664Y-38757D01*
X108685Y-38700D01*
X108707Y-38671D01*
X108750Y-38642D01*
X109328Y-39242D02*
X109071Y-39242D01*
X109200Y-39242D02*
X109200Y-38642D01*
X109157Y-38728D01*
X109114Y-38785D01*
X109071Y-38814D01*
X109607Y-38642D02*
X109650Y-38642D01*
X109692Y-38671D01*
X109714Y-38700D01*
X109735Y-38757D01*
X109757Y-38871D01*
X109757Y-39014D01*
X109735Y-39128D01*
X109714Y-39185D01*
X109692Y-39214D01*
X109650Y-39242D01*
X109607Y-39242D01*
X109564Y-39214D01*
X109542Y-39185D01*
X109521Y-39128D01*
X109500Y-39014D01*
X109500Y-38871D01*
X109521Y-38757D01*
X109542Y-38700D01*
X109564Y-38671D01*
X109607Y-38642D01*
X110142Y-38642D02*
X110057Y-38642D01*
X110014Y-38671D01*
X109992Y-38700D01*
X109950Y-38785D01*
X109928Y-38900D01*
X109928Y-39128D01*
X109950Y-39185D01*
X109971Y-39214D01*
X110014Y-39242D01*
X110100Y-39242D01*
X110142Y-39214D01*
X110164Y-39185D01*
X110185Y-39128D01*
X110185Y-38985D01*
X110164Y-38928D01*
X110142Y-38900D01*
X110100Y-38871D01*
X110014Y-38871D01*
X109971Y-38900D01*
X109950Y-38928D01*
X109928Y-38985D01*
G54D15*
G54D11*
X102661Y-38945D02*
X102261Y-38945D01*
X102261Y-38849D01*
X102280Y-38792D01*
X102319Y-38754D01*
X102357Y-38735D01*
X102433Y-38716D01*
X102490Y-38716D01*
X102566Y-38735D01*
X102604Y-38754D01*
X102642Y-38792D01*
X102661Y-38849D01*
X102661Y-38945D01*
X102261Y-38583D02*
X102261Y-38335D01*
X102414Y-38469D01*
X102414Y-38411D01*
X102433Y-38373D01*
X102452Y-38354D01*
X102490Y-38335D01*
X102585Y-38335D01*
X102623Y-38354D01*
X102642Y-38373D01*
X102661Y-38411D01*
X102661Y-38526D01*
X102642Y-38564D01*
X102623Y-38583D01*
X103061Y-40109D02*
X103061Y-39842D01*
X103461Y-40109D01*
X103461Y-39842D01*
X103252Y-39690D02*
X103252Y-39557D01*
X103461Y-39500D02*
X103461Y-39690D01*
X103061Y-39690D01*
X103061Y-39500D01*
X103461Y-39328D02*
X103061Y-39328D01*
X103461Y-39100D01*
X103061Y-39100D01*
X103252Y-38909D02*
X103252Y-38776D01*
X103461Y-38719D02*
X103461Y-38909D01*
X103061Y-38909D01*
X103061Y-38719D01*
X103461Y-38319D02*
X103271Y-38452D01*
X103461Y-38547D02*
X103061Y-38547D01*
X103061Y-38395D01*
X103080Y-38357D01*
X103100Y-38338D01*
X103138Y-38319D01*
X103195Y-38319D01*
X103233Y-38338D01*
X103252Y-38357D01*
X103271Y-38395D01*
X103271Y-38547D01*
X103461Y-37633D02*
X103461Y-37861D01*
X103461Y-37747D02*
X103061Y-37747D01*
X103119Y-37785D01*
X103157Y-37823D01*
X103176Y-37861D01*
X103100Y-37480D02*
X103080Y-37461D01*
X103061Y-37423D01*
X103061Y-37328D01*
X103080Y-37290D01*
X103100Y-37271D01*
X103138Y-37252D01*
X103176Y-37252D01*
X103233Y-37271D01*
X103461Y-37500D01*
X103461Y-37252D01*
X103061Y-37138D02*
X103461Y-37004D01*
X103061Y-36871D01*
X100761Y-38795D02*
X100361Y-38795D01*
X100361Y-38699D01*
X100380Y-38642D01*
X100419Y-38604D01*
X100457Y-38585D01*
X100533Y-38566D01*
X100590Y-38566D01*
X100666Y-38585D01*
X100704Y-38604D01*
X100742Y-38642D01*
X100761Y-38699D01*
X100761Y-38795D01*
X100400Y-38414D02*
X100380Y-38395D01*
X100361Y-38357D01*
X100361Y-38261D01*
X100380Y-38223D01*
X100400Y-38204D01*
X100438Y-38185D01*
X100476Y-38185D01*
X100533Y-38204D01*
X100761Y-38433D01*
X100761Y-38185D01*
X101211Y-40159D02*
X101211Y-39892D01*
X101611Y-40159D01*
X101611Y-39892D01*
X101402Y-39740D02*
X101402Y-39607D01*
X101611Y-39550D02*
X101611Y-39740D01*
X101211Y-39740D01*
X101211Y-39550D01*
X101611Y-39378D02*
X101211Y-39378D01*
X101611Y-39150D01*
X101211Y-39150D01*
X101402Y-38959D02*
X101402Y-38826D01*
X101611Y-38769D02*
X101611Y-38959D01*
X101211Y-38959D01*
X101211Y-38769D01*
X101611Y-38369D02*
X101421Y-38502D01*
X101611Y-38597D02*
X101211Y-38597D01*
X101211Y-38445D01*
X101230Y-38407D01*
X101250Y-38388D01*
X101288Y-38369D01*
X101345Y-38369D01*
X101383Y-38388D01*
X101402Y-38407D01*
X101421Y-38445D01*
X101421Y-38597D01*
X101611Y-37683D02*
X101611Y-37911D01*
X101611Y-37797D02*
X101211Y-37797D01*
X101269Y-37835D01*
X101307Y-37873D01*
X101326Y-37911D01*
X101250Y-37530D02*
X101230Y-37511D01*
X101211Y-37473D01*
X101211Y-37378D01*
X101230Y-37340D01*
X101250Y-37321D01*
X101288Y-37302D01*
X101326Y-37302D01*
X101383Y-37321D01*
X101611Y-37550D01*
X101611Y-37302D01*
X101211Y-37188D02*
X101611Y-37054D01*
X101211Y-36921D01*
X99761Y-33095D02*
X99361Y-33095D01*
X99361Y-32999D01*
X99380Y-32942D01*
X99419Y-32904D01*
X99457Y-32885D01*
X99533Y-32866D01*
X99590Y-32866D01*
X99666Y-32885D01*
X99704Y-32904D01*
X99742Y-32942D01*
X99761Y-32999D01*
X99761Y-33095D01*
X99495Y-32523D02*
X99761Y-32523D01*
X99342Y-32619D02*
X99628Y-32714D01*
X99628Y-32466D01*
X98695Y-33295D02*
X98961Y-33295D01*
X98542Y-33390D02*
X98828Y-33485D01*
X98828Y-33238D01*
X98961Y-32876D02*
X98961Y-33104D01*
X98961Y-32990D02*
X98561Y-32990D01*
X98619Y-33028D01*
X98657Y-33066D01*
X98676Y-33104D01*
X98695Y-32533D02*
X98961Y-32533D01*
X98542Y-32628D02*
X98828Y-32723D01*
X98828Y-32476D01*
X98733Y-32266D02*
X98714Y-32304D01*
X98695Y-32323D01*
X98657Y-32342D01*
X98638Y-32342D01*
X98600Y-32323D01*
X98580Y-32304D01*
X98561Y-32266D01*
X98561Y-32190D01*
X98580Y-32152D01*
X98600Y-32133D01*
X98638Y-32114D01*
X98657Y-32114D01*
X98695Y-32133D01*
X98714Y-32152D01*
X98733Y-32190D01*
X98733Y-32266D01*
X98752Y-32304D01*
X98771Y-32323D01*
X98809Y-32342D01*
X98885Y-32342D01*
X98923Y-32323D01*
X98942Y-32304D01*
X98961Y-32266D01*
X98961Y-32190D01*
X98942Y-32152D01*
X98923Y-32133D01*
X98885Y-32114D01*
X98809Y-32114D01*
X98771Y-32133D01*
X98752Y-32152D01*
X98733Y-32190D01*
X109554Y-30411D02*
X109554Y-30011D01*
X109650Y-30011D01*
X109707Y-30030D01*
X109745Y-30069D01*
X109764Y-30107D01*
X109783Y-30183D01*
X109783Y-30240D01*
X109764Y-30316D01*
X109745Y-30354D01*
X109707Y-30392D01*
X109650Y-30411D01*
X109554Y-30411D01*
X110164Y-30411D02*
X109935Y-30411D01*
X110050Y-30411D02*
X110050Y-30011D01*
X110011Y-30069D01*
X109973Y-30107D01*
X109935Y-30126D01*
X108942Y-31161D02*
X108714Y-31161D01*
X108828Y-31161D02*
X108828Y-30761D01*
X108790Y-30819D01*
X108752Y-30857D01*
X108714Y-30876D01*
X109114Y-31161D02*
X109114Y-30761D01*
X109342Y-31161D01*
X109342Y-30761D01*
X109704Y-30895D02*
X109704Y-31161D01*
X109609Y-30742D02*
X109514Y-31028D01*
X109761Y-31028D01*
X109990Y-30761D02*
X110028Y-30761D01*
X110066Y-30780D01*
X110085Y-30800D01*
X110104Y-30838D01*
X110123Y-30914D01*
X110123Y-31009D01*
X110104Y-31085D01*
X110085Y-31123D01*
X110066Y-31142D01*
X110028Y-31161D01*
X109990Y-31161D01*
X109952Y-31142D01*
X109933Y-31123D01*
X109914Y-31085D01*
X109895Y-31009D01*
X109895Y-30914D01*
X109914Y-30838D01*
X109933Y-30800D01*
X109952Y-30780D01*
X109990Y-30761D01*
X110371Y-30761D02*
X110409Y-30761D01*
X110447Y-30780D01*
X110466Y-30800D01*
X110485Y-30838D01*
X110504Y-30914D01*
X110504Y-31009D01*
X110485Y-31085D01*
X110466Y-31123D01*
X110447Y-31142D01*
X110409Y-31161D01*
X110371Y-31161D01*
X110333Y-31142D01*
X110314Y-31123D01*
X110295Y-31085D01*
X110276Y-31009D01*
X110276Y-30914D01*
X110295Y-30838D01*
X110314Y-30800D01*
X110333Y-30780D01*
X110371Y-30761D01*
X110638Y-30761D02*
X110904Y-30761D01*
X110733Y-31161D01*
X113423Y-34016D02*
X113442Y-34035D01*
X113461Y-34092D01*
X113461Y-34130D01*
X113442Y-34188D01*
X113404Y-34226D01*
X113366Y-34245D01*
X113290Y-34264D01*
X113233Y-34264D01*
X113157Y-34245D01*
X113119Y-34226D01*
X113080Y-34188D01*
X113061Y-34130D01*
X113061Y-34092D01*
X113080Y-34035D01*
X113100Y-34016D01*
X113461Y-33635D02*
X113461Y-33864D01*
X113461Y-33749D02*
X113061Y-33749D01*
X113119Y-33788D01*
X113157Y-33826D01*
X113176Y-33864D01*
X110385Y-32961D02*
X110423Y-32961D01*
X110461Y-32980D01*
X110480Y-33000D01*
X110500Y-33038D01*
X110519Y-33114D01*
X110519Y-33209D01*
X110500Y-33285D01*
X110480Y-33323D01*
X110461Y-33342D01*
X110423Y-33361D01*
X110385Y-33361D01*
X110347Y-33342D01*
X110328Y-33323D01*
X110309Y-33285D01*
X110290Y-33209D01*
X110290Y-33114D01*
X110309Y-33038D01*
X110328Y-33000D01*
X110347Y-32980D01*
X110385Y-32961D01*
X110690Y-33323D02*
X110709Y-33342D01*
X110690Y-33361D01*
X110671Y-33342D01*
X110690Y-33323D01*
X110690Y-33361D01*
X111090Y-33361D02*
X110861Y-33361D01*
X110976Y-33361D02*
X110976Y-32961D01*
X110938Y-33019D01*
X110900Y-33057D01*
X110861Y-33076D01*
X111738Y-33095D02*
X111738Y-33361D01*
X111566Y-33095D02*
X111566Y-33304D01*
X111585Y-33342D01*
X111623Y-33361D01*
X111680Y-33361D01*
X111719Y-33342D01*
X111738Y-33323D01*
X112061Y-33152D02*
X111928Y-33152D01*
X111928Y-33361D02*
X111928Y-32961D01*
X112119Y-32961D01*
X112766Y-32961D02*
X112576Y-32961D01*
X112557Y-33152D01*
X112576Y-33133D01*
X112614Y-33114D01*
X112709Y-33114D01*
X112747Y-33133D01*
X112766Y-33152D01*
X112785Y-33190D01*
X112785Y-33285D01*
X112766Y-33323D01*
X112747Y-33342D01*
X112709Y-33361D01*
X112614Y-33361D01*
X112576Y-33342D01*
X112557Y-33323D01*
X113033Y-32961D02*
X113071Y-32961D01*
X113109Y-32980D01*
X113128Y-33000D01*
X113147Y-33038D01*
X113166Y-33114D01*
X113166Y-33209D01*
X113147Y-33285D01*
X113128Y-33323D01*
X113109Y-33342D01*
X113071Y-33361D01*
X113033Y-33361D01*
X112995Y-33342D01*
X112976Y-33323D01*
X112957Y-33285D01*
X112938Y-33209D01*
X112938Y-33114D01*
X112957Y-33038D01*
X112976Y-33000D01*
X112995Y-32980D01*
X113033Y-32961D01*
X113280Y-32961D02*
X113414Y-33361D01*
X113547Y-32961D01*
G54D15*
X112928Y-43528D02*
X112957Y-43442D01*
X112985Y-43414D01*
X113042Y-43385D01*
X113128Y-43385D01*
X113185Y-43414D01*
X113214Y-43442D01*
X113242Y-43500D01*
X113242Y-43728D01*
X112642Y-43728D01*
X112642Y-43528D01*
X112671Y-43471D01*
X112700Y-43442D01*
X112757Y-43414D01*
X112814Y-43414D01*
X112871Y-43442D01*
X112900Y-43471D01*
X112928Y-43528D01*
X112928Y-43728D01*
X112642Y-43185D02*
X112642Y-42785D01*
X113242Y-43185D01*
X113242Y-42785D01*
X113242Y-42242D02*
X113242Y-42585D01*
X113242Y-42414D02*
X112642Y-42414D01*
X112728Y-42471D01*
X112785Y-42528D01*
X112814Y-42585D01*
X110428Y-44614D02*
X110457Y-44528D01*
X110485Y-44500D01*
X110542Y-44471D01*
X110628Y-44471D01*
X110685Y-44500D01*
X110714Y-44528D01*
X110742Y-44585D01*
X110742Y-44814D01*
X110142Y-44814D01*
X110142Y-44614D01*
X110171Y-44557D01*
X110200Y-44528D01*
X110257Y-44500D01*
X110314Y-44500D01*
X110371Y-44528D01*
X110400Y-44557D01*
X110428Y-44614D01*
X110428Y-44814D01*
X110142Y-44214D02*
X110628Y-44214D01*
X110685Y-44185D01*
X110714Y-44157D01*
X110742Y-44100D01*
X110742Y-43985D01*
X110714Y-43928D01*
X110685Y-43900D01*
X110628Y-43871D01*
X110142Y-43871D01*
X110142Y-43642D02*
X110142Y-43242D01*
X110742Y-43642D01*
X110742Y-43242D01*
X110142Y-43071D02*
X110142Y-42671D01*
X110742Y-43071D01*
X110742Y-42671D01*
X110428Y-42442D02*
X110428Y-42242D01*
X110742Y-42157D02*
X110742Y-42442D01*
X110142Y-42442D01*
X110142Y-42157D01*
X110742Y-41557D02*
X110457Y-41757D01*
X110742Y-41900D02*
X110142Y-41900D01*
X110142Y-41671D01*
X110171Y-41614D01*
X110200Y-41585D01*
X110257Y-41557D01*
X110342Y-41557D01*
X110400Y-41585D01*
X110428Y-41614D01*
X110457Y-41671D01*
X110457Y-41900D01*
M02*
