G04 (created by PCBNEW (2013-june-11)-stable) date Sat 26 Oct 2013 23:01:24 ART*
%MOIN*%
G04 Gerber Fmt 3.4, Leading zero omitted, Abs format*
%FSLAX34Y34*%
G01*
G70*
G90*
G04 APERTURE LIST*
%ADD10C,0.00590551*%
%ADD11C,0.07*%
%ADD12R,0.07X0.07*%
%ADD13R,0.055X0.055*%
%ADD14C,0.055*%
%ADD15R,0.065X0.065*%
%ADD16C,0.065*%
%ADD17C,0.16*%
%ADD18C,0.035*%
%ADD19C,0.01*%
G04 APERTURE END LIST*
G54D10*
G54D11*
X76500Y-56500D03*
G54D12*
X80500Y-56500D03*
G54D13*
X86500Y-49000D03*
G54D14*
X86500Y-50000D03*
G54D15*
X83000Y-50500D03*
G54D16*
X84000Y-50500D03*
G54D15*
X83000Y-54500D03*
G54D16*
X84000Y-54500D03*
G54D17*
X79200Y-52000D03*
X77000Y-52000D03*
X78000Y-53900D03*
G54D18*
X77000Y-52000D03*
G54D19*
X77000Y-52000D02*
X77500Y-52000D01*
X78500Y-53000D02*
X84000Y-53000D01*
X77500Y-52000D02*
X78500Y-53000D01*
X84000Y-54500D02*
X84000Y-53000D01*
X84000Y-53000D02*
X84000Y-50500D01*
G54D10*
G36*
X87950Y-57450D02*
X87029Y-57450D01*
X87029Y-50075D01*
X87018Y-49867D01*
X86960Y-49727D01*
X86867Y-49702D01*
X86570Y-50000D01*
X86867Y-50297D01*
X86960Y-50272D01*
X87029Y-50075D01*
X87029Y-57450D01*
X86797Y-57450D01*
X86797Y-50367D01*
X86500Y-50070D01*
X86429Y-50141D01*
X86429Y-50000D01*
X86132Y-49702D01*
X86039Y-49727D01*
X85970Y-49924D01*
X85981Y-50132D01*
X86039Y-50272D01*
X86132Y-50297D01*
X86429Y-50000D01*
X86429Y-50141D01*
X86202Y-50367D01*
X86227Y-50460D01*
X86424Y-50529D01*
X86632Y-50518D01*
X86772Y-50460D01*
X86797Y-50367D01*
X86797Y-57450D01*
X84579Y-57450D01*
X84579Y-54587D01*
X84579Y-50587D01*
X84569Y-50359D01*
X84501Y-50197D01*
X84404Y-50166D01*
X84333Y-50237D01*
X84333Y-50095D01*
X84302Y-49998D01*
X84087Y-49920D01*
X83859Y-49930D01*
X83697Y-49998D01*
X83666Y-50095D01*
X84000Y-50429D01*
X84333Y-50095D01*
X84333Y-50237D01*
X84070Y-50500D01*
X84404Y-50833D01*
X84501Y-50802D01*
X84579Y-50587D01*
X84579Y-54587D01*
X84569Y-54359D01*
X84501Y-54197D01*
X84404Y-54166D01*
X84333Y-54237D01*
X84333Y-54095D01*
X84333Y-50904D01*
X84000Y-50570D01*
X83929Y-50641D01*
X83929Y-50500D01*
X83595Y-50166D01*
X83575Y-50173D01*
X83575Y-50125D01*
X83537Y-50033D01*
X83466Y-49963D01*
X83374Y-49925D01*
X83275Y-49924D01*
X82625Y-49924D01*
X82533Y-49962D01*
X82463Y-50033D01*
X82425Y-50125D01*
X82424Y-50224D01*
X82424Y-50874D01*
X82462Y-50966D01*
X82533Y-51036D01*
X82625Y-51074D01*
X82724Y-51075D01*
X83374Y-51075D01*
X83466Y-51037D01*
X83536Y-50966D01*
X83574Y-50874D01*
X83574Y-50826D01*
X83595Y-50833D01*
X83929Y-50500D01*
X83929Y-50641D01*
X83666Y-50904D01*
X83697Y-51001D01*
X83912Y-51079D01*
X84140Y-51069D01*
X84302Y-51001D01*
X84333Y-50904D01*
X84333Y-54095D01*
X84302Y-53998D01*
X84087Y-53920D01*
X83859Y-53930D01*
X83697Y-53998D01*
X83666Y-54095D01*
X84000Y-54429D01*
X84333Y-54095D01*
X84333Y-54237D01*
X84070Y-54500D01*
X84404Y-54833D01*
X84501Y-54802D01*
X84579Y-54587D01*
X84579Y-57450D01*
X84333Y-57450D01*
X84333Y-54904D01*
X84000Y-54570D01*
X83929Y-54641D01*
X83929Y-54500D01*
X83595Y-54166D01*
X83575Y-54173D01*
X83575Y-54125D01*
X83537Y-54033D01*
X83466Y-53963D01*
X83374Y-53925D01*
X83275Y-53924D01*
X82625Y-53924D01*
X82533Y-53962D01*
X82463Y-54033D01*
X82425Y-54125D01*
X82424Y-54224D01*
X82424Y-54874D01*
X82462Y-54966D01*
X82533Y-55036D01*
X82625Y-55074D01*
X82724Y-55075D01*
X83374Y-55075D01*
X83466Y-55037D01*
X83536Y-54966D01*
X83574Y-54874D01*
X83574Y-54826D01*
X83595Y-54833D01*
X83929Y-54500D01*
X83929Y-54641D01*
X83666Y-54904D01*
X83697Y-55001D01*
X83912Y-55079D01*
X84140Y-55069D01*
X84302Y-55001D01*
X84333Y-54904D01*
X84333Y-57450D01*
X81100Y-57450D01*
X81100Y-56800D01*
X81100Y-56100D01*
X81062Y-56008D01*
X80991Y-55938D01*
X80899Y-55900D01*
X80800Y-55899D01*
X80250Y-55899D01*
X80250Y-51792D01*
X80090Y-51406D01*
X79795Y-51110D01*
X79409Y-50950D01*
X78992Y-50949D01*
X78606Y-51109D01*
X78310Y-51404D01*
X78150Y-51790D01*
X78149Y-52207D01*
X78309Y-52594D01*
X78604Y-52889D01*
X78990Y-53049D01*
X79407Y-53050D01*
X79794Y-52890D01*
X80089Y-52595D01*
X80249Y-52209D01*
X80250Y-51792D01*
X80250Y-55899D01*
X80100Y-55899D01*
X80008Y-55937D01*
X79938Y-56008D01*
X79900Y-56100D01*
X79899Y-56199D01*
X79899Y-56899D01*
X79937Y-56991D01*
X80008Y-57061D01*
X80100Y-57099D01*
X80199Y-57100D01*
X80899Y-57100D01*
X80991Y-57062D01*
X81061Y-56991D01*
X81099Y-56899D01*
X81100Y-56800D01*
X81100Y-57450D01*
X79050Y-57450D01*
X79050Y-53692D01*
X78890Y-53306D01*
X78595Y-53010D01*
X78209Y-52850D01*
X78051Y-52850D01*
X78051Y-52201D01*
X78048Y-51783D01*
X77894Y-51411D01*
X77747Y-51323D01*
X77676Y-51394D01*
X77676Y-51252D01*
X77588Y-51105D01*
X77201Y-50948D01*
X76783Y-50951D01*
X76411Y-51105D01*
X76323Y-51252D01*
X77000Y-51929D01*
X77676Y-51252D01*
X77676Y-51394D01*
X77070Y-52000D01*
X77747Y-52676D01*
X77894Y-52588D01*
X78051Y-52201D01*
X78051Y-52850D01*
X77792Y-52849D01*
X77676Y-52897D01*
X77676Y-52747D01*
X77000Y-52070D01*
X76929Y-52141D01*
X76929Y-52000D01*
X76252Y-51323D01*
X76105Y-51411D01*
X75948Y-51798D01*
X75951Y-52216D01*
X76105Y-52588D01*
X76252Y-52676D01*
X76929Y-52000D01*
X76929Y-52141D01*
X76323Y-52747D01*
X76411Y-52894D01*
X76798Y-53051D01*
X77216Y-53048D01*
X77588Y-52894D01*
X77676Y-52747D01*
X77676Y-52897D01*
X77406Y-53009D01*
X77110Y-53304D01*
X76950Y-53690D01*
X76949Y-54107D01*
X77109Y-54494D01*
X77404Y-54789D01*
X77790Y-54949D01*
X78207Y-54950D01*
X78594Y-54790D01*
X78889Y-54495D01*
X79049Y-54109D01*
X79050Y-53692D01*
X79050Y-57450D01*
X77100Y-57450D01*
X77100Y-56381D01*
X77008Y-56160D01*
X76840Y-55991D01*
X76619Y-55900D01*
X76381Y-55899D01*
X76160Y-55991D01*
X75991Y-56159D01*
X75900Y-56380D01*
X75899Y-56618D01*
X75991Y-56839D01*
X76159Y-57008D01*
X76380Y-57099D01*
X76618Y-57100D01*
X76839Y-57008D01*
X77008Y-56840D01*
X77099Y-56619D01*
X77100Y-56381D01*
X77100Y-57450D01*
X75550Y-57450D01*
X75550Y-48550D01*
X86046Y-48550D01*
X86013Y-48583D01*
X85975Y-48675D01*
X85974Y-48774D01*
X85974Y-49324D01*
X86012Y-49416D01*
X86083Y-49486D01*
X86175Y-49524D01*
X86262Y-49525D01*
X86227Y-49539D01*
X86202Y-49632D01*
X86500Y-49929D01*
X86797Y-49632D01*
X86772Y-49539D01*
X86731Y-49525D01*
X86824Y-49525D01*
X86916Y-49487D01*
X86986Y-49416D01*
X87024Y-49324D01*
X87025Y-49225D01*
X87025Y-48675D01*
X86987Y-48583D01*
X86953Y-48550D01*
X87950Y-48550D01*
X87950Y-57450D01*
X87950Y-57450D01*
G37*
G54D19*
X87950Y-57450D02*
X87029Y-57450D01*
X87029Y-50075D01*
X87018Y-49867D01*
X86960Y-49727D01*
X86867Y-49702D01*
X86570Y-50000D01*
X86867Y-50297D01*
X86960Y-50272D01*
X87029Y-50075D01*
X87029Y-57450D01*
X86797Y-57450D01*
X86797Y-50367D01*
X86500Y-50070D01*
X86429Y-50141D01*
X86429Y-50000D01*
X86132Y-49702D01*
X86039Y-49727D01*
X85970Y-49924D01*
X85981Y-50132D01*
X86039Y-50272D01*
X86132Y-50297D01*
X86429Y-50000D01*
X86429Y-50141D01*
X86202Y-50367D01*
X86227Y-50460D01*
X86424Y-50529D01*
X86632Y-50518D01*
X86772Y-50460D01*
X86797Y-50367D01*
X86797Y-57450D01*
X84579Y-57450D01*
X84579Y-54587D01*
X84579Y-50587D01*
X84569Y-50359D01*
X84501Y-50197D01*
X84404Y-50166D01*
X84333Y-50237D01*
X84333Y-50095D01*
X84302Y-49998D01*
X84087Y-49920D01*
X83859Y-49930D01*
X83697Y-49998D01*
X83666Y-50095D01*
X84000Y-50429D01*
X84333Y-50095D01*
X84333Y-50237D01*
X84070Y-50500D01*
X84404Y-50833D01*
X84501Y-50802D01*
X84579Y-50587D01*
X84579Y-54587D01*
X84569Y-54359D01*
X84501Y-54197D01*
X84404Y-54166D01*
X84333Y-54237D01*
X84333Y-54095D01*
X84333Y-50904D01*
X84000Y-50570D01*
X83929Y-50641D01*
X83929Y-50500D01*
X83595Y-50166D01*
X83575Y-50173D01*
X83575Y-50125D01*
X83537Y-50033D01*
X83466Y-49963D01*
X83374Y-49925D01*
X83275Y-49924D01*
X82625Y-49924D01*
X82533Y-49962D01*
X82463Y-50033D01*
X82425Y-50125D01*
X82424Y-50224D01*
X82424Y-50874D01*
X82462Y-50966D01*
X82533Y-51036D01*
X82625Y-51074D01*
X82724Y-51075D01*
X83374Y-51075D01*
X83466Y-51037D01*
X83536Y-50966D01*
X83574Y-50874D01*
X83574Y-50826D01*
X83595Y-50833D01*
X83929Y-50500D01*
X83929Y-50641D01*
X83666Y-50904D01*
X83697Y-51001D01*
X83912Y-51079D01*
X84140Y-51069D01*
X84302Y-51001D01*
X84333Y-50904D01*
X84333Y-54095D01*
X84302Y-53998D01*
X84087Y-53920D01*
X83859Y-53930D01*
X83697Y-53998D01*
X83666Y-54095D01*
X84000Y-54429D01*
X84333Y-54095D01*
X84333Y-54237D01*
X84070Y-54500D01*
X84404Y-54833D01*
X84501Y-54802D01*
X84579Y-54587D01*
X84579Y-57450D01*
X84333Y-57450D01*
X84333Y-54904D01*
X84000Y-54570D01*
X83929Y-54641D01*
X83929Y-54500D01*
X83595Y-54166D01*
X83575Y-54173D01*
X83575Y-54125D01*
X83537Y-54033D01*
X83466Y-53963D01*
X83374Y-53925D01*
X83275Y-53924D01*
X82625Y-53924D01*
X82533Y-53962D01*
X82463Y-54033D01*
X82425Y-54125D01*
X82424Y-54224D01*
X82424Y-54874D01*
X82462Y-54966D01*
X82533Y-55036D01*
X82625Y-55074D01*
X82724Y-55075D01*
X83374Y-55075D01*
X83466Y-55037D01*
X83536Y-54966D01*
X83574Y-54874D01*
X83574Y-54826D01*
X83595Y-54833D01*
X83929Y-54500D01*
X83929Y-54641D01*
X83666Y-54904D01*
X83697Y-55001D01*
X83912Y-55079D01*
X84140Y-55069D01*
X84302Y-55001D01*
X84333Y-54904D01*
X84333Y-57450D01*
X81100Y-57450D01*
X81100Y-56800D01*
X81100Y-56100D01*
X81062Y-56008D01*
X80991Y-55938D01*
X80899Y-55900D01*
X80800Y-55899D01*
X80250Y-55899D01*
X80250Y-51792D01*
X80090Y-51406D01*
X79795Y-51110D01*
X79409Y-50950D01*
X78992Y-50949D01*
X78606Y-51109D01*
X78310Y-51404D01*
X78150Y-51790D01*
X78149Y-52207D01*
X78309Y-52594D01*
X78604Y-52889D01*
X78990Y-53049D01*
X79407Y-53050D01*
X79794Y-52890D01*
X80089Y-52595D01*
X80249Y-52209D01*
X80250Y-51792D01*
X80250Y-55899D01*
X80100Y-55899D01*
X80008Y-55937D01*
X79938Y-56008D01*
X79900Y-56100D01*
X79899Y-56199D01*
X79899Y-56899D01*
X79937Y-56991D01*
X80008Y-57061D01*
X80100Y-57099D01*
X80199Y-57100D01*
X80899Y-57100D01*
X80991Y-57062D01*
X81061Y-56991D01*
X81099Y-56899D01*
X81100Y-56800D01*
X81100Y-57450D01*
X79050Y-57450D01*
X79050Y-53692D01*
X78890Y-53306D01*
X78595Y-53010D01*
X78209Y-52850D01*
X78051Y-52850D01*
X78051Y-52201D01*
X78048Y-51783D01*
X77894Y-51411D01*
X77747Y-51323D01*
X77676Y-51394D01*
X77676Y-51252D01*
X77588Y-51105D01*
X77201Y-50948D01*
X76783Y-50951D01*
X76411Y-51105D01*
X76323Y-51252D01*
X77000Y-51929D01*
X77676Y-51252D01*
X77676Y-51394D01*
X77070Y-52000D01*
X77747Y-52676D01*
X77894Y-52588D01*
X78051Y-52201D01*
X78051Y-52850D01*
X77792Y-52849D01*
X77676Y-52897D01*
X77676Y-52747D01*
X77000Y-52070D01*
X76929Y-52141D01*
X76929Y-52000D01*
X76252Y-51323D01*
X76105Y-51411D01*
X75948Y-51798D01*
X75951Y-52216D01*
X76105Y-52588D01*
X76252Y-52676D01*
X76929Y-52000D01*
X76929Y-52141D01*
X76323Y-52747D01*
X76411Y-52894D01*
X76798Y-53051D01*
X77216Y-53048D01*
X77588Y-52894D01*
X77676Y-52747D01*
X77676Y-52897D01*
X77406Y-53009D01*
X77110Y-53304D01*
X76950Y-53690D01*
X76949Y-54107D01*
X77109Y-54494D01*
X77404Y-54789D01*
X77790Y-54949D01*
X78207Y-54950D01*
X78594Y-54790D01*
X78889Y-54495D01*
X79049Y-54109D01*
X79050Y-53692D01*
X79050Y-57450D01*
X77100Y-57450D01*
X77100Y-56381D01*
X77008Y-56160D01*
X76840Y-55991D01*
X76619Y-55900D01*
X76381Y-55899D01*
X76160Y-55991D01*
X75991Y-56159D01*
X75900Y-56380D01*
X75899Y-56618D01*
X75991Y-56839D01*
X76159Y-57008D01*
X76380Y-57099D01*
X76618Y-57100D01*
X76839Y-57008D01*
X77008Y-56840D01*
X77099Y-56619D01*
X77100Y-56381D01*
X77100Y-57450D01*
X75550Y-57450D01*
X75550Y-48550D01*
X86046Y-48550D01*
X86013Y-48583D01*
X85975Y-48675D01*
X85974Y-48774D01*
X85974Y-49324D01*
X86012Y-49416D01*
X86083Y-49486D01*
X86175Y-49524D01*
X86262Y-49525D01*
X86227Y-49539D01*
X86202Y-49632D01*
X86500Y-49929D01*
X86797Y-49632D01*
X86772Y-49539D01*
X86731Y-49525D01*
X86824Y-49525D01*
X86916Y-49487D01*
X86986Y-49416D01*
X87024Y-49324D01*
X87025Y-49225D01*
X87025Y-48675D01*
X86987Y-48583D01*
X86953Y-48550D01*
X87950Y-48550D01*
X87950Y-57450D01*
M02*
