G04 (created by PCBNEW (2013-june-11)-stable) date Sat 26 Oct 2013 23:01:24 ART*
%MOIN*%
G04 Gerber Fmt 3.4, Leading zero omitted, Abs format*
%FSLAX34Y34*%
G01*
G70*
G90*
G04 APERTURE LIST*
%ADD10C,0.00590551*%
%ADD11C,0.012*%
%ADD12C,0.005*%
%ADD13C,0.008*%
%ADD14C,0.0107*%
G04 APERTURE END LIST*
G54D10*
G54D11*
X77000Y-56000D02*
X80000Y-56000D01*
X80000Y-56000D02*
X80000Y-57000D01*
X80000Y-57000D02*
X77000Y-57000D01*
X77000Y-57000D02*
X77000Y-56000D01*
X79750Y-56000D02*
X79750Y-57000D01*
X79500Y-57000D02*
X79500Y-56000D01*
X77000Y-56500D02*
X76500Y-56500D01*
X80000Y-56500D02*
X80500Y-56500D01*
G54D12*
X87600Y-52650D02*
X87600Y-53350D01*
X87600Y-53350D02*
X86400Y-53350D01*
X86400Y-53350D02*
X86400Y-52650D01*
X86400Y-52650D02*
X87600Y-52650D01*
G54D11*
X86000Y-48500D02*
X87000Y-48500D01*
X87000Y-48500D02*
X87000Y-50500D01*
X87000Y-50500D02*
X86000Y-50500D01*
X86000Y-50500D02*
X86000Y-48500D01*
G54D13*
X85100Y-50500D02*
G75*
G03X85100Y-50500I-1600J0D01*
G74*
G01*
X85100Y-54500D02*
G75*
G03X85100Y-54500I-1600J0D01*
G74*
G01*
G54D10*
X80500Y-51000D02*
X75500Y-51000D01*
X75500Y-51000D02*
X75500Y-55000D01*
X75500Y-55000D02*
X80500Y-55000D01*
X80500Y-55000D02*
X80500Y-51000D01*
G54D13*
X78204Y-56702D02*
X78204Y-56202D01*
X78300Y-56202D01*
X78357Y-56226D01*
X78395Y-56273D01*
X78414Y-56321D01*
X78433Y-56416D01*
X78433Y-56488D01*
X78414Y-56583D01*
X78395Y-56630D01*
X78357Y-56678D01*
X78300Y-56702D01*
X78204Y-56702D01*
X78814Y-56702D02*
X78585Y-56702D01*
X78700Y-56702D02*
X78700Y-56202D01*
X78661Y-56273D01*
X78623Y-56321D01*
X78585Y-56345D01*
G54D12*
X87717Y-53072D02*
X87919Y-53072D01*
X87943Y-53060D01*
X87955Y-53048D01*
X87967Y-53024D01*
X87967Y-52977D01*
X87955Y-52953D01*
X87943Y-52941D01*
X87919Y-52929D01*
X87717Y-52929D01*
X87967Y-52679D02*
X87967Y-52822D01*
X87967Y-52751D02*
X87717Y-52751D01*
X87752Y-52774D01*
X87776Y-52798D01*
X87788Y-52822D01*
X86321Y-53101D02*
X86321Y-52851D01*
X86464Y-53101D01*
X86464Y-52851D01*
X86726Y-53077D02*
X86714Y-53089D01*
X86678Y-53101D01*
X86654Y-53101D01*
X86619Y-53089D01*
X86595Y-53065D01*
X86583Y-53041D01*
X86571Y-52994D01*
X86571Y-52958D01*
X86583Y-52910D01*
X86595Y-52886D01*
X86619Y-52863D01*
X86654Y-52851D01*
X86678Y-52851D01*
X86714Y-52863D01*
X86726Y-52875D01*
X86833Y-53101D02*
X86833Y-52851D01*
X86928Y-52851D01*
X86952Y-52863D01*
X86964Y-52875D01*
X86976Y-52898D01*
X86976Y-52934D01*
X86964Y-52958D01*
X86952Y-52970D01*
X86928Y-52982D01*
X86833Y-52982D01*
X87202Y-52851D02*
X87083Y-52851D01*
X87071Y-52970D01*
X87083Y-52958D01*
X87107Y-52946D01*
X87166Y-52946D01*
X87190Y-52958D01*
X87202Y-52970D01*
X87214Y-52994D01*
X87214Y-53053D01*
X87202Y-53077D01*
X87190Y-53089D01*
X87166Y-53101D01*
X87107Y-53101D01*
X87083Y-53089D01*
X87071Y-53077D01*
X87440Y-52851D02*
X87321Y-52851D01*
X87309Y-52970D01*
X87321Y-52958D01*
X87345Y-52946D01*
X87404Y-52946D01*
X87428Y-52958D01*
X87440Y-52970D01*
X87452Y-52994D01*
X87452Y-53053D01*
X87440Y-53077D01*
X87428Y-53089D01*
X87404Y-53101D01*
X87345Y-53101D01*
X87321Y-53089D01*
X87309Y-53077D01*
X87690Y-53101D02*
X87547Y-53101D01*
X87619Y-53101D02*
X87619Y-52851D01*
X87595Y-52886D01*
X87571Y-52910D01*
X87547Y-52922D01*
G54D14*
X87775Y-49815D02*
X87094Y-49815D01*
X87094Y-49652D01*
X87127Y-49612D01*
X87159Y-49591D01*
X87224Y-49571D01*
X87321Y-49571D01*
X87386Y-49591D01*
X87418Y-49612D01*
X87451Y-49652D01*
X87451Y-49815D01*
X87775Y-49163D02*
X87775Y-49408D01*
X87775Y-49286D02*
X87094Y-49286D01*
X87191Y-49326D01*
X87256Y-49367D01*
X87289Y-49408D01*
G54D11*
G54D13*
X83441Y-51423D02*
X83425Y-51442D01*
X83375Y-51461D01*
X83341Y-51461D01*
X83291Y-51442D01*
X83258Y-51404D01*
X83241Y-51366D01*
X83225Y-51290D01*
X83225Y-51233D01*
X83241Y-51157D01*
X83258Y-51119D01*
X83291Y-51080D01*
X83341Y-51061D01*
X83375Y-51061D01*
X83425Y-51080D01*
X83441Y-51100D01*
X83575Y-51100D02*
X83591Y-51080D01*
X83625Y-51061D01*
X83708Y-51061D01*
X83741Y-51080D01*
X83758Y-51100D01*
X83775Y-51138D01*
X83775Y-51176D01*
X83758Y-51233D01*
X83558Y-51461D01*
X83775Y-51461D01*
X82825Y-49962D02*
X82625Y-49962D01*
X82725Y-49962D02*
X82725Y-49562D01*
X82691Y-49620D01*
X82658Y-49658D01*
X82625Y-49677D01*
X83041Y-49562D02*
X83075Y-49562D01*
X83108Y-49581D01*
X83125Y-49601D01*
X83141Y-49639D01*
X83158Y-49715D01*
X83158Y-49810D01*
X83141Y-49886D01*
X83125Y-49924D01*
X83108Y-49943D01*
X83075Y-49962D01*
X83041Y-49962D01*
X83008Y-49943D01*
X82991Y-49924D01*
X82975Y-49886D01*
X82958Y-49810D01*
X82958Y-49715D01*
X82975Y-49639D01*
X82991Y-49601D01*
X83008Y-49581D01*
X83041Y-49562D01*
X83375Y-49562D02*
X83408Y-49562D01*
X83441Y-49581D01*
X83458Y-49601D01*
X83475Y-49639D01*
X83491Y-49715D01*
X83491Y-49810D01*
X83475Y-49886D01*
X83458Y-49924D01*
X83441Y-49943D01*
X83408Y-49962D01*
X83375Y-49962D01*
X83341Y-49943D01*
X83325Y-49924D01*
X83308Y-49886D01*
X83291Y-49810D01*
X83291Y-49715D01*
X83308Y-49639D01*
X83325Y-49601D01*
X83341Y-49581D01*
X83375Y-49562D01*
X84058Y-49696D02*
X84058Y-49962D01*
X83908Y-49696D02*
X83908Y-49905D01*
X83925Y-49943D01*
X83958Y-49962D01*
X84008Y-49962D01*
X84041Y-49943D01*
X84058Y-49924D01*
X84341Y-49753D02*
X84225Y-49753D01*
X84225Y-49962D02*
X84225Y-49562D01*
X84391Y-49562D01*
X82072Y-50514D02*
X82529Y-50514D01*
X82301Y-50742D02*
X82301Y-50285D01*
X83441Y-55423D02*
X83425Y-55442D01*
X83375Y-55461D01*
X83341Y-55461D01*
X83291Y-55442D01*
X83258Y-55404D01*
X83241Y-55366D01*
X83225Y-55290D01*
X83225Y-55233D01*
X83241Y-55157D01*
X83258Y-55119D01*
X83291Y-55080D01*
X83341Y-55061D01*
X83375Y-55061D01*
X83425Y-55080D01*
X83441Y-55100D01*
X83775Y-55461D02*
X83575Y-55461D01*
X83675Y-55461D02*
X83675Y-55061D01*
X83641Y-55119D01*
X83608Y-55157D01*
X83575Y-55176D01*
X82825Y-53962D02*
X82625Y-53962D01*
X82725Y-53962D02*
X82725Y-53562D01*
X82691Y-53620D01*
X82658Y-53658D01*
X82625Y-53677D01*
X83041Y-53562D02*
X83075Y-53562D01*
X83108Y-53581D01*
X83125Y-53601D01*
X83141Y-53639D01*
X83158Y-53715D01*
X83158Y-53810D01*
X83141Y-53886D01*
X83125Y-53924D01*
X83108Y-53943D01*
X83075Y-53962D01*
X83041Y-53962D01*
X83008Y-53943D01*
X82991Y-53924D01*
X82975Y-53886D01*
X82958Y-53810D01*
X82958Y-53715D01*
X82975Y-53639D01*
X82991Y-53601D01*
X83008Y-53581D01*
X83041Y-53562D01*
X83375Y-53562D02*
X83408Y-53562D01*
X83441Y-53581D01*
X83458Y-53601D01*
X83475Y-53639D01*
X83491Y-53715D01*
X83491Y-53810D01*
X83475Y-53886D01*
X83458Y-53924D01*
X83441Y-53943D01*
X83408Y-53962D01*
X83375Y-53962D01*
X83341Y-53943D01*
X83325Y-53924D01*
X83308Y-53886D01*
X83291Y-53810D01*
X83291Y-53715D01*
X83308Y-53639D01*
X83325Y-53601D01*
X83341Y-53581D01*
X83375Y-53562D01*
X84058Y-53696D02*
X84058Y-53962D01*
X83908Y-53696D02*
X83908Y-53905D01*
X83925Y-53943D01*
X83958Y-53962D01*
X84008Y-53962D01*
X84041Y-53943D01*
X84058Y-53924D01*
X84341Y-53753D02*
X84225Y-53753D01*
X84225Y-53962D02*
X84225Y-53562D01*
X84391Y-53562D01*
X82072Y-54514D02*
X82529Y-54514D01*
X82301Y-54742D02*
X82301Y-54285D01*
G54D10*
X78709Y-50759D02*
X78709Y-50365D01*
X78934Y-50759D02*
X78765Y-50534D01*
X78934Y-50365D02*
X78709Y-50590D01*
X79309Y-50759D02*
X79084Y-50759D01*
X79196Y-50759D02*
X79196Y-50365D01*
X79159Y-50421D01*
X79121Y-50459D01*
X79084Y-50478D01*
X80921Y-55034D02*
X80940Y-55053D01*
X80959Y-55109D01*
X80959Y-55146D01*
X80940Y-55202D01*
X80903Y-55240D01*
X80865Y-55259D01*
X80790Y-55277D01*
X80734Y-55277D01*
X80659Y-55259D01*
X80621Y-55240D01*
X80584Y-55202D01*
X80565Y-55146D01*
X80565Y-55109D01*
X80584Y-55053D01*
X80603Y-55034D01*
X80565Y-54790D02*
X80565Y-54715D01*
X80584Y-54678D01*
X80621Y-54640D01*
X80696Y-54621D01*
X80828Y-54621D01*
X80903Y-54640D01*
X80940Y-54678D01*
X80959Y-54715D01*
X80959Y-54790D01*
X80940Y-54828D01*
X80903Y-54865D01*
X80828Y-54884D01*
X80696Y-54884D01*
X80621Y-54865D01*
X80584Y-54828D01*
X80565Y-54790D01*
X80959Y-54453D02*
X80565Y-54453D01*
X80959Y-54228D01*
X80565Y-54228D01*
X80959Y-54040D02*
X80565Y-54040D01*
X80959Y-53815D01*
X80565Y-53815D01*
X80996Y-53721D02*
X80996Y-53421D01*
X80565Y-53365D02*
X80565Y-53122D01*
X80715Y-53253D01*
X80715Y-53197D01*
X80734Y-53159D01*
X80753Y-53140D01*
X80790Y-53122D01*
X80884Y-53122D01*
X80921Y-53140D01*
X80940Y-53159D01*
X80959Y-53197D01*
X80959Y-53309D01*
X80940Y-53346D01*
X80921Y-53365D01*
M02*
