G04 (created by PCBNEW (2013-june-11)-stable) date Sat 26 Oct 2013 23:01:24 ART*
%MOIN*%
G04 Gerber Fmt 3.4, Leading zero omitted, Abs format*
%FSLAX34Y34*%
G01*
G70*
G90*
G04 APERTURE LIST*
%ADD10C,0.00590551*%
%ADD11C,0.07*%
%ADD12R,0.07X0.07*%
%ADD13R,0.02X0.03*%
%ADD14R,0.055X0.055*%
%ADD15C,0.055*%
%ADD16R,0.065X0.065*%
%ADD17C,0.065*%
%ADD18C,0.16*%
%ADD19C,0.035*%
%ADD20C,0.024*%
%ADD21C,0.01*%
G04 APERTURE END LIST*
G54D10*
G54D11*
X76500Y-56500D03*
G54D12*
X80500Y-56500D03*
G54D13*
X86625Y-53500D03*
X87375Y-53500D03*
X86625Y-52500D03*
X87000Y-53500D03*
X87375Y-52500D03*
G54D14*
X86500Y-49000D03*
G54D15*
X86500Y-50000D03*
G54D16*
X83000Y-50500D03*
G54D17*
X84000Y-50500D03*
G54D16*
X83000Y-54500D03*
G54D17*
X84000Y-54500D03*
G54D18*
X79200Y-52000D03*
X77000Y-52000D03*
X78000Y-53900D03*
G54D19*
X77000Y-52000D03*
G54D20*
X86500Y-49000D02*
X86500Y-49495D01*
X86625Y-52500D02*
X86625Y-52129D01*
X86625Y-51517D02*
X86625Y-52129D01*
X84017Y-51517D02*
X86625Y-51517D01*
X83000Y-50500D02*
X84017Y-51517D01*
X86716Y-49495D02*
X86500Y-49495D01*
X87001Y-49779D02*
X86716Y-49495D01*
X87001Y-51140D02*
X87001Y-49779D01*
X86625Y-51517D02*
X87001Y-51140D01*
G54D21*
X77000Y-52000D02*
X77000Y-49562D01*
X77000Y-49562D02*
X77000Y-49000D01*
X84000Y-50187D02*
X84000Y-50500D01*
X83374Y-49562D02*
X84000Y-50187D01*
X77000Y-49562D02*
X83374Y-49562D01*
X86312Y-50187D02*
X86500Y-50000D01*
X84000Y-50187D02*
X86312Y-50187D01*
X86300Y-54500D02*
X87000Y-53800D01*
X84000Y-54500D02*
X86300Y-54500D01*
X87000Y-53500D02*
X87000Y-53800D01*
G54D20*
X78000Y-53900D02*
X78000Y-53200D01*
X78000Y-53200D02*
X79200Y-52000D01*
X76500Y-55400D02*
X76500Y-56500D01*
X78000Y-53900D02*
X76500Y-55400D01*
X80500Y-56500D02*
X81070Y-56500D01*
X82525Y-55045D02*
X81070Y-56500D01*
X83000Y-55045D02*
X82525Y-55045D01*
X83000Y-54500D02*
X83000Y-55045D01*
X87375Y-53500D02*
X87375Y-53129D01*
X86786Y-53129D02*
X87375Y-53129D01*
X86625Y-53291D02*
X86786Y-53129D01*
X86625Y-53500D02*
X86625Y-53291D01*
X84208Y-53291D02*
X86625Y-53291D01*
X83000Y-54500D02*
X84208Y-53291D01*
M02*
